<?xml version="1.0" encoding="UTF-8" standalone="no"?>
<svg
   xmlns:dc="http://purl.org/dc/elements/1.1/"
   xmlns:cc="http://creativecommons.org/ns#"
   xmlns:rdf="http://www.w3.org/1999/02/22-rdf-syntax-ns#"
   xmlns:svg="http://www.w3.org/2000/svg"
   xmlns="http://www.w3.org/2000/svg"
   xmlns:sodipodi="http://sodipodi.sourceforge.net/DTD/sodipodi-0.dtd"
   xmlns:inkscape="http://www.inkscape.org/namespaces/inkscape"
   width="582.86"
   height="230.36"
   viewBox="0 0 582.86 230.36"
   version="1.1"
   id="svg124"
   sodipodi:docname="A4.svg"
   inkscape:version="0.92.4 (5da689c313, 2019-01-14)">
  <metadata
     id="metadata128">
    <rdf:RDF>
      <cc:Work
         rdf:about="">
        <dc:format>image/svg+xml</dc:format>
        <dc:type
           rdf:resource="http://purl.org/dc/dcmitype/StillImage" />
      </cc:Work>
    </rdf:RDF>
  </metadata>
  <sodipodi:namedview
     pagecolor="#ffffff"
     bordercolor="#666666"
     borderopacity="1"
     objecttolerance="10"
     gridtolerance="10"
     guidetolerance="10"
     inkscape:pageopacity="0"
     inkscape:pageshadow="2"
     inkscape:window-width="1920"
     inkscape:window-height="1046"
     id="namedview126"
     showgrid="false"
     inkscape:zoom="2.8976767"
     inkscape:cx="344.40597"
     inkscape:cy="50.69769"
     inkscape:window-x="-11"
     inkscape:window-y="-11"
     inkscape:window-maximized="1"
     inkscape:current-layer="レイヤー_1-2" />
  <defs
     id="defs4">
    <style
       id="style2">.cls-1{fill:#d93569;opacity:0.2;}.cls-2{fill:#c68;}.cls-3{fill:#e4006e;}.cls-14,.cls-4,.cls-5,.cls-9{fill:none;stroke:#231815;}.cls-14,.cls-4{stroke-width:2px;}.cls-5{stroke-width:0.25px;}.cls-10,.cls-11,.cls-6,.cls-8{fill:#fff;}.cls-7{font-size:14.84px;fill:#f7f7f7;font-family:MyriadPro-Semibold, Myriad Pro;font-weight:600;}.cls-8{font-size:22.39px;letter-spacing:-0.02em;}.cls-10,.cls-11,.cls-16,.cls-8{font-family:AxisStd-Medium-90ms-RKSJ-H, AXIS Std;}.cls-10,.cls-11{font-size:19.34px;}.cls-10{letter-spacing:-0.05em;}.cls-11{letter-spacing:-0.02em;}.cls-12{fill:#7d7d7d;opacity:0.9;}.cls-13{fill:#73c08c;}.cls-14{stroke-miterlimit:10;}.cls-15,.cls-16{fill:#231815;}.cls-16{font-size:11.12px;}</style>
  </defs>
  <title
     id="title6">A4</title>
  <g
     id="レイヤー_2"
     data-name="レイヤー 2">
    <g
       id="レイヤー_1-2"
       data-name="レイヤー 1">
      <rect
         class="cls-4"
         x="423.23999"
         y="159.83"
         width="56.299999"
         height="69.510002"
         id="rect98-9"
         style="fill:#cc6688;fill-opacity:1;stroke:#231815;stroke-width:2px" />
      <rect
         class="cls-4"
         x="366.94"
         y="159.83"
         width="56.299999"
         height="69.510002"
         id="rect98-53"
         style="fill:#cc6688;fill-opacity:1;stroke:#231815;stroke-width:2px" />
      <rect
         class="cls-4"
         x="310.64999"
         y="159.77"
         width="56.299999"
         height="69.510002"
         id="rect98-2"
         style="fill:#cc6688;fill-opacity:1;stroke:#231815;stroke-width:2px" />
      <rect
         class="cls-4"
         x="254.35001"
         y="159.77"
         width="56.299999"
         height="69.510002"
         id="rect98-5"
         style="fill:#cc6688;fill-opacity:1;stroke:#231815;stroke-width:2px" />
      <rect
         class="cls-4"
         x="198.05002"
         y="159.77"
         width="56.299999"
         height="69.510002"
         id="rect98-8"
         style="fill:#cc6688;fill-opacity:1;stroke:#231815;stroke-width:2px" />
      <rect
         class="cls-4"
         x="141.75"
         y="145.81"
         width="56.299999"
         height="69.510002"
         id="rect98-4"
         style="fill:#cc6688;fill-opacity:1;stroke:#231815;stroke-width:2px" />
      <rect
         class="cls-4"
         x="85.449997"
         y="145.81"
         width="56.299999"
         height="69.510002"
         id="rect98-6"
         style="fill:#cc6688;fill-opacity:1;stroke:#231815;stroke-width:2px" />
      <path
         class="cls-1"
         d="M.86,145.77q.29-13.86.56-27.73H198.15l.06-55.18,56.59-.51q-.12,27.78-.25,55.56l262.91-.06L517,229.17l-37.54.19.09-69.33-90.07-.51-191.33.23-.08-13.86Z"
         id="path8" />
      <path
         class="cls-2"
         d="m 467.32407,364.73135 175,0.07 h 106.63 q 0,34.8 0,69.59 l -133.09,-0.24 -148.26,0.13 q -0.09,-6.75 -0.19,-13.51 l -168.88,-0.3 q 0,-34.83 0,-69.67 l 168.93,0.12 q -0.06,6.9 -0.14,13.81 z"
         id="path10"
         inkscape:connector-curvature="0"
         style="fill:#cc6688" />
      <rect
         class="cls-3"
         x="-19.67"
         y="166.45"
         width="69.5"
         height="28.16"
         transform="translate(195.61 165.45) rotate(90)"
         id="rect12" />
      <path
         class="cls-4"
         d="M479.55,86.53v31.61l-225.19-.08V62.46l-56.3,0V118L1,118l0,97.3,197.05.07v13.91l319,.11L517.4,118l22.83-30.23"
         id="path14" />
      <rect
         class="cls-5"
         x="1.85"
         y="145.78"
         width="27.31"
         height="69.5"
         id="rect16" />
      <line
         class="cls-4"
         x1="226.21"
         y1="118.05"
         x2="198.06"
         y2="118.04"
         id="line32" />
      <line
         class="cls-4"
         x1="498.31"
         y1="158.92"
         x2="498.3"
         y2="214.53"
         id="line34" />
      <text
         id="text36" />
      <rect
         class="cls-6"
         x="2.87"
         y="169.35"
         width="24.41"
         height="24.46"
         id="rect38" />
      <path
         class="cls-3"
         d="M26.79,169.85v23.46H3.37V169.85H26.79m1-1H2.37v25.46H27.79V168.85Z"
         id="path40" />
      <path
         class="cls-3"
         d="M15.08,174.63a1.47,1.47,0,1,0-1.46-1.46,1.46,1.46,0,0,0,1.46,1.46"
         id="path42" />
      <path
         class="cls-3"
         d="M17.1,177.71,18.23,182h1.1l-.88-5a2.06,2.06,0,0,0-1.53-1.63,7.47,7.47,0,0,0-3.68,0,2,2,0,0,0-1.52,1.63l-.88,5h1.09l1.14-4.24.46,1.7a9.76,9.76,0,0,0-1.67,5.47h1.91l.58,6.58h1.47l.57-6.58H18.3a9.75,9.75,0,0,0-1.66-5.47Z"
         id="path44" />
      <text
         class="cls-7"
         transform="translate(97.71 184.76) rotate(-0.01)"
         id="text46">A402</text>
      <text
         class="cls-7"
         transform="translate(153.68 184.76) rotate(-0.01)"
         id="text48">A403</text>
      <text
         class="cls-7"
         transform="translate(211.57 198.9) rotate(-0.01)"
         id="text50">A404</text>
      <text
         class="cls-7"
         transform="translate(267.02 198.9) rotate(-0.01)"
         id="text52">A405</text>
      <text
         class="cls-7"
         transform="translate(322.46 198.9) rotate(-0.01)"
         id="text54">A406</text>
      <text
         class="cls-7"
         transform="translate(377.23 198.9) rotate(-0.01)"
         id="text56">A407</text>
      <text
         class="cls-7"
         transform="translate(434.53 198.9) rotate(-0.01)"
         id="text58">A408</text>
      <rect
         class="cls-2"
         x="527.52"
         y="161.07"
         width="55.34"
         height="53.16"
         rx="6.61"
         id="rect60" />
      <path
         class="cls-6"
         d="M567.46,169.39a2,2,0,1,0-2-2A2,2,0,0,0,567.46,169.39Z"
         id="path62" />
      <path
         class="cls-6"
         d="M571.41,179.52l-3.83-2.21.36-1.82a11.45,11.45,0,0,0,.2-2.12,11.1,11.1,0,0,0-.46-3.17.3.3,0,0,0-.29-.21h0a8,8,0,0,0-7.7,8c0,.22,0,.42,0,.63l1.67.3v-.14a5.88,5.88,0,0,1,2-4.45l-1,18.41h2.14L566.87,181l2.1,1-1.44,5.39,1.52,1.52,3.17-6.79a2,2,0,0,0-.81-2.57Z"
         id="path64" />
      <polygon
         class="cls-6"
         points="575.94 191.25 568.09 191.25 568.09 194.44 561.16 194.44 561.16 197.61 554.22 197.61 554.22 200.79 547.28 200.79 547.28 203.98 540.35 203.98 540.35 207.16 534.44 207.16 534.44 210.97 544.16 210.97 544.16 207.79 551.1 207.79 551.1 204.61 558.04 204.61 558.04 201.43 564.97 201.43 564.97 198.25 571.91 198.25 571.91 195.07 575.94 195.07 575.94 191.25"
         id="polygon66" />
      <text
         class="cls-8"
         transform="translate(531.57 186.73) scale(1 1.05)"
         id="text68">東</text>
      <line
         class="cls-9"
         x1="498.31"
         y1="194.61"
         x2="517.07"
         y2="194.61"
         id="line70" />
      <line
         class="cls-9"
         x1="498.3"
         y1="208.51"
         x2="517.07"
         y2="208.51"
         id="line72" />
      <line
         class="cls-9"
         x1="498.31"
         y1="201.55"
         x2="517.07"
         y2="201.56"
         id="line74" />
      <line
         class="cls-9"
         x1="498.31"
         y1="159.85"
         x2="517.08"
         y2="159.86"
         id="line76" />
      <line
         class="cls-9"
         x1="498.31"
         y1="173.75"
         x2="517.07"
         y2="173.76"
         id="line78" />
      <line
         class="cls-9"
         x1="498.31"
         y1="166.8"
         x2="517.07"
         y2="166.81"
         id="line80" />
      <line
         class="cls-9"
         x1="498.31"
         y1="180.7"
         x2="517.07"
         y2="180.71"
         id="line82" />
      <line
         class="cls-9"
         x1="498.31"
         y1="187.65"
         x2="517.07"
         y2="187.66"
         id="line84" />
      <path
         class="cls-2"
         d="M183,0h43.68a6.85,6.85,0,0,1,6.85,6.85V48.28a6.86,6.86,0,0,1-6.86,6.86H183a6.85,6.85,0,0,1-6.85-6.85V6.86A6.86,6.86,0,0,1,183,0Z"
         id="path86" />
      <path
         class="cls-6"
         d="M217.6,8.63a2.07,2.07,0,1,0-2.07-2.06A2.06,2.06,0,0,0,217.6,8.63Z"
         id="path88" />
      <path
         class="cls-6"
         d="M221.69,19.14l-4-2.29.36-1.89a11.29,11.29,0,0,0,.21-2.19,11.14,11.14,0,0,0-.48-3.29.3.3,0,0,0-.29-.22h0a8.26,8.26,0,0,0-8,8.26c0,.22,0,.44,0,.66l1.73.3v-.13a6,6,0,0,1,2.12-4.61l-1,19.08h2.21L217,20.67l2.19,1-1.5,5.58,1.58,1.58,3.28-7a2,2,0,0,0,.19-.87A2.05,2.05,0,0,0,221.69,19.14Z"
         id="path90" />
      <polygon
         class="cls-6"
         points="226.39 31.31 218.25 31.31 218.25 34.6 211.06 34.6 211.06 37.9 203.87 37.9 203.87 41.2 196.68 41.2 196.68 44.5 189.48 44.5 189.48 47.8 183.36 47.8 183.36 51.76 193.44 51.76 193.44 48.46 200.63 48.46 200.63 45.16 207.82 45.16 207.82 41.86 215.02 41.86 215.02 38.56 222.21 38.56 222.21 35.26 226.39 35.26 226.39 31.31"
         id="polygon92" />
      <text
         class="cls-10"
         transform="translate(182.58 18.55) scale(1 0.85)"
         id="text94">中</text>
      <text
         class="cls-11"
         transform="translate(182.55 35.65) scale(1 0.85)"
         id="text96">央</text>
      <rect
         class="cls-4"
         x="29.150002"
         y="145.81"
         width="56.299999"
         height="69.510002"
         id="rect98"
         style="fill:#cc6688;fill-opacity:1;stroke:#231815;stroke-width:2px" />
      <text
         class="cls-7"
         transform="translate(40.64 184.76) rotate(-0.01)"
         id="text100">A401</text>
      <line
         class="cls-9"
         x1="226.21"
         y1="63.05"
         x2="226.21"
         y2="118.96"
         id="line102" />
      <line
         class="cls-9"
         x1="220"
         y1="62.28"
         x2="220"
         y2="118.2"
         id="line104" />
      <line
         class="cls-9"
         x1="213.8"
         y1="62.29"
         x2="213.8"
         y2="118.21"
         id="line106" />
      <line
         class="cls-9"
         x1="207.59"
         y1="62.28"
         x2="207.59"
         y2="118.2"
         id="line108" />
      <rect
         class="cls-12"
         x="199.11"
         y="90.75"
         width="26.59"
         height="26.3"
         id="rect110" />
      <polyline
         class="cls-9"
         points="226.21 118.05 198.07 90.24 226.21 90.25"
         id="polyline112" />
      <rect
         class="cls-13"
         x="467.47"
         y="45.06"
         width="63.97"
         height="22.73"
         rx="3.94"
         id="rect114" />
      <path
         class="cls-14"
         d="M499.39,140.33l.06-61.54"
         id="path116" />
      <polygon
         class="cls-15"
         points="505.93 80.69 499.46 69.46 492.97 80.68 505.93 80.69"
         id="polygon118" />
      <text
         class="cls-16"
         transform="translate(474.44 60.67) scale(0.9 1)"
         id="text120">グラウンド</text>
    </g>
  </g>
</svg>
