<?xml version="1.0" encoding="UTF-8" standalone="no"?>
<svg
   xmlns:dc="http://purl.org/dc/elements/1.1/"
   xmlns:cc="http://creativecommons.org/ns#"
   xmlns:rdf="http://www.w3.org/1999/02/22-rdf-syntax-ns#"
   xmlns:svg="http://www.w3.org/2000/svg"
   xmlns="http://www.w3.org/2000/svg"
   xmlns:sodipodi="http://sodipodi.sourceforge.net/DTD/sodipodi-0.dtd"
   xmlns:inkscape="http://www.inkscape.org/namespaces/inkscape"
   width="574.6"
   height="407.61"
   viewBox="0 0 574.6 407.61"
   version="1.1"
   id="svg360"
   sodipodi:docname="B3.svg"
   inkscape:version="0.92.4 (5da689c313, 2019-01-14)">
  <metadata
     id="metadata364">
    <rdf:RDF>
      <cc:Work
         rdf:about="">
        <dc:format>image/svg+xml</dc:format>
        <dc:type
           rdf:resource="http://purl.org/dc/dcmitype/StillImage" />
      </cc:Work>
    </rdf:RDF>
  </metadata>
  <sodipodi:namedview
     pagecolor="#ffffff"
     bordercolor="#666666"
     borderopacity="1"
     objecttolerance="10"
     gridtolerance="10"
     guidetolerance="10"
     inkscape:pageopacity="0"
     inkscape:pageshadow="2"
     inkscape:window-width="960"
     inkscape:window-height="1035"
     id="namedview362"
     showgrid="false"
     inkscape:zoom="2.3159393"
     inkscape:cx="481.7583"
     inkscape:cy="342.31736"
     inkscape:window-x="2038"
     inkscape:window-y="0"
     inkscape:window-maximized="0"
     inkscape:current-layer="レイヤー_2" />
  <defs
     id="defs4">
    <style
       id="style2">.cls-1{fill:#a0a0ff;}.cls-2{fill:#cce1f2;}.cls-3,.cls-6,.cls-7{fill:#7d7d7d;}.cls-4{fill:#036eb7;}.cls-15,.cls-18,.cls-20,.cls-21,.cls-23,.cls-24,.cls-34,.cls-44,.cls-45,.cls-5{fill:#fff;}.cls-10,.cls-11,.cls-12,.cls-13,.cls-14,.cls-17,.cls-19,.cls-26,.cls-28,.cls-30,.cls-31,.cls-32,.cls-6,.cls-7,.cls-9{stroke:#231815;}.cls-11,.cls-17,.cls-6,.cls-9{stroke-width:2px;}.cls-8{fill:#888;opacity:0.7;}.cls-10,.cls-11,.cls-12,.cls-13,.cls-14,.cls-17,.cls-19,.cls-26,.cls-28,.cls-29,.cls-30,.cls-31,.cls-32,.cls-33,.cls-47,.cls-9{fill:none;}.cls-21,.cls-29,.cls-30,.cls-31,.cls-32,.cls-33,.cls-34,.cls-47,.cls-9{stroke-miterlimit:10;}.cls-10,.cls-17,.cls-19{stroke-linecap:square;}.cls-10,.cls-28{stroke-width:1.6px;}.cls-12{stroke-width:0.8px;}.cls-13{stroke-linejoin:bevel;}.cls-14{stroke-width:0.2px;}.cls-15,.cls-46{font-size:14.32px;font-family:MyriadPro-Regular, Myriad Pro;}.cls-16{font-size:13.27px;}.cls-16,.cls-22,.cls-25,.cls-27,.cls-37,.cls-38,.cls-39,.cls-40,.cls-42{fill:#231815;}.cls-16,.cls-25,.cls-48{font-family:AxisStd-Regular-90ms-RKSJ-H, AXIS Std;}.cls-18,.cls-20{font-size:14.55px;}.cls-18,.cls-20,.cls-23,.cls-24,.cls-38,.cls-40,.cls-42,.cls-45{font-family:AxisStd-Medium-90ms-RKSJ-H, AXIS Std;}.cls-18{letter-spacing:-0.02em;}.cls-19{stroke-width:0.25px;}.cls-20{letter-spacing:-0.03em;}.cls-21{stroke:#0b308e;}.cls-21,.cls-31,.cls-47{stroke-width:3px;}.cls-22{font-size:27.08px;font-family:Constantia-Bold, Constantia;font-weight:700;}.cls-23,.cls-24{font-size:12.91px;}.cls-23{letter-spacing:-0.05em;}.cls-24{letter-spacing:-0.01em;}.cls-25{font-size:14.37px;}.cls-29,.cls-33,.cls-34{stroke:#fff;}.cls-32{stroke-width:4px;}.cls-33{stroke-width:0.5px;}.cls-34{stroke-dasharray:1.5 1;}.cls-35{fill:#f6b162;}.cls-36{fill:#ffe727;}.cls-37,.cls-44{font-size:23.72px;}.cls-37,.cls-39,.cls-44{font-family:SFProText-Semibold, SFProText Semibold;font-weight:600;}.cls-38,.cls-45{font-size:9.49px;}.cls-39{font-size:23.52px;}.cls-40{font-size:9.41px;}.cls-41{fill:#75b989;}.cls-42{font-size:13.98px;}.cls-43{fill:#c68;}.cls-46{fill:#f7f7f7;}.cls-47{stroke:#3e3a39;stroke-linecap:round;}.cls-48{font-size:11px;fill:#3e3a39;}.cls-49{letter-spacing:0.25em;}</style>
  </defs>
  <title
     id="title6">B3</title>
  <path
     style="fill:#a0a0ff;stroke-width:0.80010223"
     inkscape:connector-curvature="0"
     id="path8-1"
     d="m 279.17448,74.121344 -16.74565,58.196636 c -31.19012,-7.94352 -30.99197,-7.9534 -61.64273,-13.69005 0.0807,-18.51796 9.12838,-38.575551 9.20366,-57.093504 36.09235,4.843771 36.74508,5.130562 69.18472,12.586918 z"
     class="cls-1"
     sodipodi:nodetypes="ccccc" />
  <path
     style="fill:#a0a0ff;stroke-width:0.80010223"
     inkscape:connector-curvature="0"
     id="path8-6"
     d="m 209.98976,61.534426 -9.20366,57.093504 c -29.63593,-4.71538 -29.92414,-4.70846 -62.21542,-7.89659 0.0807,-18.51795 5.10329,-36.821631 5.17857,-55.339582 39.14602,1.961893 39.06937,2.474488 66.24051,6.142668 z"
     class="cls-1"
     sodipodi:nodetypes="ccccc" />
  <path
     style="fill:#a0a0ff;stroke-width:0.80010223"
     inkscape:connector-curvature="0"
     id="path8-5"
     d="m 143.74925,55.391758 -5.17857,55.339582 c -25.49145,-1.91198 -29.55014,-2.12167 -61.15068,-2.16661 0.08066,-18.517948 0.15864,-37.035901 0.233923,-55.553852 27.178487,-0.502429 41.341797,-0.09799 66.095327,2.38088 z"
     class="cls-1"
     sodipodi:nodetypes="ccccc" />
  <path
     style="fill:#a0a0ff;stroke-width:0.80010223"
     inkscape:connector-curvature="0"
     id="path8"
     d="M 350.01279,95.422284 324.37,154.73 c -26.61392,-10.66196 -27.56277,-11.26701 -61.94117,-22.41202 0.0807,-18.51795 11.54184,-39.678683 16.74565,-58.196636 47.0896,12.835655 -16.42772,-9.041939 70.83831,21.30094 z"
     class="cls-1"
     sodipodi:nodetypes="ccccc" />
  <g
     id="レイヤー_2"
     data-name="レイヤー 2">
    <rect
       style="fill:#a0a0ff;stroke-width:0.60363185"
       id="rect16-1"
       height="56.921947"
       width="68.448639"
       y="206.09"
       x="366.17188"
       class="cls-1" />
    <rect
       style="fill:#a0a0ff;stroke-width:0.60494065"
       id="rect16-6"
       height="57.236141"
       width="68.368408"
       y="263.01196"
       x="366.17188"
       class="cls-1" />
    <rect
       style="fill:#a0a0ff;stroke-width:0.90782136"
       id="rect16-5"
       height="54.593849"
       width="161.42"
       y="320.54617"
       x="273.69"
       class="cls-1" />
    <text
       id="text8" />
    <path
       style="fill:#cce1f2"
       inkscape:connector-curvature="0"
       id="path14"
       d="m 78.16,131 -0.27,-22.28 a 650.72,650.72 0 0 1 71.6,3.32 658.84,658.84 0 0 1 174.88,42.69 c 0.49,-1.19 1,-2.39 1.46,-3.58 l 24.17,5.43 q 14.46,-24.47 28.9,-48.93 l 3.72,1.59 Q 398.79,73.91 414.97,38.57 L 432,46.66 400,117.6 427.52,133 q -13.71,28.36 -27.44,56.74 c -3.42,-2.07 -7.13,-4.16 -11.14,-6.23 -4.01,-2.07 -7.87,-3.86 -11.53,-5.43 v 27.82 l -11.41,-0.13 -0.33,114.12 -23,0.23 -87.41,0.07 q 0.41,-44.68 0.8,-89.36 0.14,-12.47 0.26,-24.93 l 56.62,0.93 c 1.18,-4.81 2.27,-10 3.2,-15.49 q 1.08,-6.53 1.7,-12.49 a 415.27,415.27 0 0 0 -56.61,-22.27 c -22.28,-6.93 -39.71,-10.26 -58.87,-13.92 -11.64,-2.23 -30.25,-5.75 -54.89,-8.36 A 604.25,604.25 0 0 0 78.16,131 Z"
       class="cls-2" />
    <rect
       style="fill:#7d7d7d"
       id="rect16"
       height="143.13"
       width="232.31"
       y="232.16"
       x="1"
       class="cls-3" />
    <path
       style="fill:#036eb7"
       inkscape:connector-curvature="0"
       id="path18"
       d="m 352.07,167.61 a 150.92,150.92 0 0 0 -16.13,-8.4 c -4,-1.81 -7.9,-3.33 -11.57,-4.62 L 349.64,96 l 29.09,11.82 q -7.1,15.8 -14.52,31.8 -3.9,8.38 -7.8,16.64 c 0.16,0.39 0.33,0.77 0.49,1.15 z"
       class="cls-4" />
    <rect
       style="fill:#ffffff"
       id="rect20"
       transform="rotate(-0.11)"
       height="21.879999"
       width="21.83"
       y="119.6295"
       x="340.03864"
       class="cls-5" />
    <path
       style="fill:#036eb7"
       inkscape:connector-curvature="0"
       id="path22"
       d="m 361.61,119.41 v 20.88 h -20.83 v -20.88 h 20.83 m 1,-1 h -22.83 v 22.89 l 22.84,-0.05 -0.05,-22.88 z"
       class="cls-4" />
    <rect
       style="fill:#7d7d7d;stroke:#231815;stroke-width:2px"
       id="rect24"
       height="45.41"
       width="49.720001"
       y="230.00999"
       x="275.51999"
       class="cls-6" />
    <rect
       style="fill:#7d7d7d"
       id="rect26"
       height="88.029999"
       width="22.9"
       y="231.89999"
       x="232.63"
       class="cls-3" />
    <path
       style="fill:#7d7d7d;stroke:#231815"
       inkscape:connector-curvature="0"
       id="path28"
       d="m 255.66,320.28 q 0,-16.87 0,-33.75 h 6.41 v 33.75 z"
       class="cls-7" />
    <path
       style="opacity:0.7;fill:#888888"
       inkscape:connector-curvature="0"
       id="path30"
       d="m 538.46,145.64 a 54.43,54.43 0 0 0 -16.05,-17.85 255,255 0 0 0 -22.77,-15.57 c -7.33,-4.43 -16.18,-9.39 -24.42,-14.3 -6.73,-4 -6.16,-3.77 -13.92,-8 -14,-7.6 -39.39,-21 -73,-36 -8.13,-3.63 -14.93,-6.55 -19.67,-8.57 l -14.12,31.36 c 8.53,3.26 28.3,11 42.05,17.79 0.7,0.35 4.29,2.13 9,4.53 8.19,4.2 14.49,7.57 18.32,9.63 25.39,13.68 25.79,14.77 45.48,25.35 9.45,5.08 22.87,12.09 30.58,22.18 a 37.44,37.44 0 0 1 5.81,10.81 38.28,38.28 0 0 1 1.9,14.4 c -0.43,10.1 -2.94,41.12 -7.32,83 l -11.67,143.21 36,-2.62 q 4.92,-57.75 9.83,-115.5 c 1.23,-14.39 5.86,-49.85 9.18,-98.3 0.44,-6.42 0.77,-11.72 1,-15.24 a 49.78,49.78 0 0 0 -0.33,-13.6 52.3,52.3 0 0 0 -5.88,-16.71 z"
       class="cls-8" />
    <path
       style="fill:none;stroke:#231815;stroke-width:2px;stroke-miterlimit:10"
       inkscape:connector-curvature="0"
       id="path32"
       d="M 1.26,376 Q 1.13,304.09 1,232.16 l 255.18,-0.76 -0.09,-24.68 H 313 q 0.94,-3.19 1.76,-6.63 a 129.67,129.67 0 0 0 3.2,-20.85 c -37.41,-22 -137.5,-48.54 -240.51,-48.18 l 0.26,-78 c 134.86,-0.48 249.61,21.42 349.65,80 l -27.95,56.91 c 0,0 -7.45,-5.64 -22.34,-12 v 0.71 l 0.09,27.61 57.34,-0.2 0.6,168.48 -161.41,0.57 q -0.07,-27.5 -0.13,-55 h -40.3 l 0.06,55.14 z"
       class="cls-9" />
    <line
       style="fill:none;stroke:#231815;stroke-width:1.60000002px;stroke-linecap:square"
       id="line34"
       y2="320.17001"
       x2="240.06"
       y1="320.17001"
       x1="233.69"
       class="cls-10" />
    <path
       style="fill:none;stroke:#231815;stroke-width:2px"
       inkscape:connector-curvature="0"
       id="path36"
       d="m 76.71,109 a 626.88,626.88 0 0 1 275.57,58.27"
       class="cls-11" />
    <line
       style="fill:none;stroke:#231815;stroke-width:2px"
       id="line38"
       y2="62.619999"
       x2="209.81"
       y1="119.47"
       x1="200.72"
       class="cls-11" />
    <line
       style="fill:none;stroke:#231815;stroke-width:2px"
       id="line40"
       y2="75.120003"
       x2="278.62"
       y1="133.32001"
       x1="262.10001"
       class="cls-11" />
    <line
       style="fill:none;stroke:#231815;stroke-width:2px"
       id="line42"
       y2="96.639999"
       x2="349.04001"
       y1="154.33"
       x1="324.29001"
       class="cls-11" />
    <line
       style="fill:none;stroke:#231815;stroke-width:2px"
       id="line44"
       y2="108.49"
       x2="378.29001"
       y1="157.14999"
       x1="355.88"
       class="cls-11" />
    <path
       style="fill:none;stroke:#231815;stroke-width:2px"
       inkscape:connector-curvature="0"
       id="path46"
       d="m 382.6,159.56 19.15,-40.38"
       class="cls-11" />
    <path
       style="fill:none;stroke:#231815;stroke-width:0.80000001px"
       inkscape:connector-curvature="0"
       id="path48"
       d="m 397.73,127 12.85,6.55 q -7.68,16 -15.37,31.95"
       class="cls-12" />
    <path
       style="fill:none;stroke:#231815;stroke-width:2px"
       inkscape:connector-curvature="0"
       id="path50"
       d="m 365.76,319.89 q 0.09,-56.81 0.17,-113.6 h 11"
       class="cls-11" />
    <path
       style="fill:none;stroke:#231815;stroke-width:2px"
       inkscape:connector-curvature="0"
       id="path52"
       d="M 434.58,320.1 273,320.18"
       class="cls-11" />
    <line
       style="fill:none;stroke:#231815;stroke-width:2px"
       id="line54"
       y2="262.79001"
       x2="434.57999"
       y1="263.03"
       x1="365.56"
       class="cls-11" />
    <path
       style="fill:none;stroke:#231815;stroke-width:2px"
       inkscape:connector-curvature="0"
       id="path56"
       d="m 342.07,229.1 q 0,31.22 0,62.44 l -67.42,0.09"
       class="cls-11" />
    <line
       style="fill:none;stroke:#231815;stroke-linejoin:bevel"
       id="line58"
       y2="274.69"
       x2="310.72"
       y1="291.59"
       x1="310.78"
       class="cls-13" />
    <line
       style="fill:none;stroke:#231815;stroke-linejoin:bevel"
       id="line60"
       y2="274.88"
       x2="307.70999"
       y1="291.76999"
       x1="307.76999"
       class="cls-13" />
    <line
       style="fill:none;stroke:#231815;stroke-linejoin:bevel"
       id="line62"
       y2="274.79001"
       x2="304.70001"
       y1="291.70001"
       x1="304.76001"
       class="cls-13" />
    <line
       style="fill:none;stroke:#231815;stroke-linejoin:bevel"
       id="line64"
       y2="274.67999"
       x2="301.69"
       y1="291.57999"
       x1="301.75"
       class="cls-13" />
    <line
       style="fill:none;stroke:#231815;stroke-linejoin:bevel"
       id="line66"
       y2="274.85999"
       x2="298.67999"
       y1="291.76001"
       x1="298.73999"
       class="cls-13" />
    <line
       style="fill:none;stroke:#231815;stroke-linejoin:bevel"
       id="line68"
       y2="275.14001"
       x2="295.67001"
       y1="292.04001"
       x1="295.73001"
       class="cls-13" />
    <line
       style="fill:none;stroke:#231815;stroke-linejoin:bevel"
       id="line70"
       y2="275.32999"
       x2="292.66"
       y1="292.23001"
       x1="292.72"
       class="cls-13" />
    <line
       style="fill:none;stroke:#231815;stroke-linejoin:bevel"
       id="line72"
       y2="274.79999"
       x2="289.64999"
       y1="291.70001"
       x1="289.72"
       class="cls-13" />
    <line
       style="fill:none;stroke:#231815;stroke-linejoin:bevel"
       id="line74"
       y2="274.98999"
       x2="286.64001"
       y1="291.89001"
       x1="286.70001"
       class="cls-13" />
    <line
       style="fill:none;stroke:#231815;stroke-width:0.2px"
       id="line76"
       y2="136.2"
       x2="409.07999"
       y1="129.69"
       x1="396.31"
       class="cls-14" />
    <line
       style="fill:none;stroke:#231815;stroke-width:0.2px"
       id="line78"
       y2="139"
       x2="407.95001"
       y1="132.49001"
       x1="395.17999"
       class="cls-14" />
    <line
       style="fill:none;stroke:#231815;stroke-width:0.2px"
       id="line80"
       y2="141.60001"
       x2="406.42001"
       y1="135.10001"
       x1="393.64999"
       class="cls-14" />
    <line
       style="fill:none;stroke:#231815;stroke-width:0.2px"
       id="line82"
       y2="144.49001"
       x2="405.45999"
       y1="137.97"
       x1="392.67999"
       class="cls-14" />
    <line
       style="fill:none;stroke:#231815;stroke-width:0.2px"
       id="line84"
       y2="147.33"
       x2="404.39999"
       y1="140.82001"
       x1="391.63"
       class="cls-14" />
    <line
       style="fill:none;stroke:#231815;stroke-width:0.2px"
       id="line86"
       y2="149.85001"
       x2="402.72"
       y1="143.34"
       x1="389.95001"
       class="cls-14" />
    <line
       style="fill:none;stroke:#231815;stroke-width:0.2px"
       id="line88"
       y2="152.64999"
       x2="401.59"
       y1="146.14999"
       x1="388.82001"
       class="cls-14" />
    <line
       style="fill:none;stroke:#231815;stroke-width:0.2px"
       id="line90"
       y2="155.25"
       x2="400.06"
       y1="148.75"
       x1="387.29001"
       class="cls-14" />
    <line
       style="fill:none;stroke:#231815;stroke-width:0.2px"
       id="line92"
       y2="158.14"
       x2="399.10001"
       y1="151.63"
       x1="386.32001"
       class="cls-14" />
    <path
       style="fill:none;stroke:#231815;stroke-width:0.2px"
       inkscape:connector-curvature="0"
       id="path94"
       d="m 385.27,154.47 12.33,6.35"
       class="cls-14" />
    <path
       style="fill:none;stroke:#231815;stroke-width:0.2px"
       inkscape:connector-curvature="0"
       id="path96"
       d="m 410.2,135.08 12,6.13"
       class="cls-14" />
    <line
       style="fill:none;stroke:#231815;stroke-width:0.2px"
       id="line98"
       y2="144.00999"
       x2="421.10001"
       y1="137.5"
       x1="408.32001"
       class="cls-14" />
    <path
       style="fill:none;stroke:#231815;stroke-width:0.2px"
       inkscape:connector-curvature="0"
       id="path100"
       d="m 407,140.31 12.6,6.3"
       class="cls-14" />
    <line
       style="fill:none;stroke:#231815;stroke-width:0.2px"
       id="line102"
       y2="149.49001"
       x2="418.59"
       y1="142.99001"
       x1="405.82999"
       class="cls-14" />
    <line
       style="fill:none;stroke:#231815;stroke-width:0.2px"
       id="line104"
       y2="152.34"
       x2="417.54999"
       y1="145.83"
       x1="404.76999"
       class="cls-14" />
    <line
       style="fill:none;stroke:#231815;stroke-width:0.2px"
       id="line106"
       y2="154.86"
       x2="415.87"
       y1="148.35001"
       x1="403.09"
       class="cls-14" />
    <line
       style="fill:none;stroke:#231815;stroke-width:0.2px"
       id="line108"
       y2="157.66"
       x2="414.73001"
       y1="151.14999"
       x1="401.95999"
       class="cls-14" />
    <line
       style="fill:none;stroke:#231815;stroke-width:0.2px"
       id="line110"
       y2="160.25999"
       x2="413.20999"
       y1="153.75"
       x1="400.44"
       class="cls-14" />
    <line
       style="fill:none;stroke:#231815;stroke-width:0.2px"
       id="line112"
       y2="163.14"
       x2="412.23001"
       y1="156.63"
       x1="399.45999"
       class="cls-14" />
    <line
       style="fill:none;stroke:#231815;stroke-width:0.2px"
       id="line114"
       y2="165.99001"
       x2="411.19"
       y1="159.48"
       x1="398.41"
       class="cls-14" />
    <rect
       style="fill:#ffffff"
       id="rect116"
       height="14.67"
       width="4.5100002"
       y="112.44"
       x="71.489998"
       class="cls-5" />
    <path
       style="fill:none;stroke:#231815;stroke-width:2px"
       inkscape:connector-curvature="0"
       id="path118"
       d="m 325.28,247.38 v -17"
       class="cls-11" />
    <line
       style="fill:none;stroke:#231815;stroke-width:2px"
       id="line120"
       y2="55.48"
       x2="143.94"
       y1="111.48"
       x1="138.78"
       class="cls-11" />
    <text
       style="font-size:14.31999969px;font-family:MyriadPro-Regular, 'Myriad Pro';fill:#ffffff"
       id="text122"
       class="cls-15"
       x="386.39001"
       y="239.56">B303</text>
    <text
       style="font-size:14.31999969px;font-family:MyriadPro-Regular, 'Myriad Pro';fill:#ffffff"
       id="text124"
       class="cls-15"
       x="386.39001"
       y="295.81">B302</text>
    <text
       style="font-size:14.31999969px;font-family:MyriadPro-Regular, 'Myriad Pro';fill:#ffffff"
       id="text126"
       class="cls-15"
       x="342.51001"
       y="352.87">B301</text>
    <text
       style="font-size:13.27000046px;font-family:AxisStd-Regular-90ms-RKSJ-H, 'AXIS Std';fill:#231815"
       id="text128"
       class="cls-16"
       x="286.66"
       y="310.54001">休憩所</text>
    <text
       id="text130" />
    <text
       id="text132" />
    <text
       id="text134" />
    <line
       style="fill:none;stroke:#231815;stroke-width:2px;stroke-linecap:square"
       id="line136"
       y2="75.010002"
       x2="60.060001"
       y1="126.55"
       x1="60.060001"
       class="cls-17" />
    <path
       style="fill:#a0a0ff"
       inkscape:connector-curvature="0"
       id="path138"
       d="m 421.39,145.46 h 27.38 a 4.3,4.3 0 0 1 4.3,4.3 v 26 a 4.29,4.29 0 0 1 -4.29,4.29 h -27.39 a 4.29,4.29 0 0 1 -4.29,-4.29 v -26 a 4.29,4.29 0 0 1 4.29,-4.3 z"
       class="cls-1" />
    <path
       style="fill:#ffffff"
       inkscape:connector-curvature="0"
       id="path140"
       d="m 443.05,150.87 a 1.3,1.3 0 1 0 -1.29,-1.3 1.3,1.3 0 0 0 1.29,1.3 z"
       class="cls-5" />
    <path
       style="fill:#ffffff"
       inkscape:connector-curvature="0"
       id="path142"
       d="m 445.62,157.45 -2.49,-1.45 0.23,-1.19 a 6.85,6.85 0 0 0 0.13,-1.37 7,7 0 0 0 -0.3,-2.06 0.18,0.18 0 0 0 -0.18,-0.14 v 0 a 5.18,5.18 0 0 0 -5,5.18 2.88,2.88 0 0 0 0,0.41 l 1.08,0.19 V 157 a 3.82,3.82 0 0 1 1.33,-2.89 l -0.63,12 h 1.39 l 1.48,-7.61 1.37,0.64 -0.94,3.5 1,1 2.06,-4.42 a 1.27,1.27 0 0 0 0.13,-0.55 1.3,1.3 0 0 0 -0.66,-1.22 z"
       class="cls-5" />
    <polygon
       style="fill:#ffffff"
       id="polygon144"
       points="443.46,167.14 438.95,167.14 438.95,169.21 434.45,169.21 434.45,171.28 429.94,171.28 429.94,173.34 425.44,173.34 425.44,175.41 421.6,175.41 421.6,177.89 427.91,177.89 427.91,175.82 432.42,175.82 432.42,173.76 436.93,173.76 436.93,171.69 441.44,171.69 441.44,169.62 445.94,169.62 445.94,167.56 448.56,167.56 448.56,165.07 443.46,165.07 "
       class="cls-5" />
    <text
       style="font-size:14.9093132px;font-family:AxisStd-Medium-90ms-RKSJ-H, 'AXIS Std';letter-spacing:-0.02em;fill:#ffffff;stroke-width:1.02469504"
       id="text146"
       transform="scale(0.97590007,1.0246951)"
       class="cls-18"
       x="430.1055"
       y="158.23244">南</text>
    <polyline
       style="fill:none;stroke:#231815;stroke-width:2px;stroke-miterlimit:10"
       id="polyline148"
       points="233.17 319.89 233.17 231.9 1.26 376.01"
       class="cls-9" />
    <line
       style="fill:none;stroke:#231815;stroke-width:2px;stroke-miterlimit:10"
       id="line150"
       y2="286.48999"
       x2="256.12"
       y1="231.39999"
       x1="256.12"
       class="cls-9" />
    <line
       style="fill:none;stroke:#231815;stroke-width:2px;stroke-linecap:square"
       id="line152"
       y2="126.69"
       x2="42.34"
       y1="126.73"
       x1="76.639999"
       class="cls-17" />
    <line
       style="fill:none;stroke:#231815;stroke-width:0.25px;stroke-linecap:square"
       id="line154"
       y2="107.78"
       x2="59.200001"
       y1="107.8"
       x1="76.400002"
       class="cls-19" />
    <line
       style="fill:none;stroke:#231815;stroke-width:0.25px;stroke-linecap:square"
       id="line156"
       y2="112.16"
       x2="59.200001"
       y1="112.18"
       x1="76.400002"
       class="cls-19" />
    <line
       style="fill:none;stroke:#231815;stroke-width:0.25px;stroke-linecap:square"
       id="line158"
       y2="99.220001"
       x2="59.16"
       y1="99.239998"
       x1="76.349998"
       class="cls-19" />
    <line
       style="fill:none;stroke:#231815;stroke-width:0.25px;stroke-linecap:square"
       id="line160"
       y2="103.6"
       x2="59.16"
       y1="103.62"
       x1="76.349998"
       class="cls-19" />
    <line
       style="fill:none;stroke:#231815;stroke-width:0.25px;stroke-linecap:square"
       id="line162"
       y2="90.309998"
       x2="59.830002"
       y1="90.330002"
       x1="77.019997"
       class="cls-19" />
    <line
       style="fill:none;stroke:#231815;stroke-width:0.25px;stroke-linecap:square"
       id="line164"
       y2="94.690002"
       x2="59.830002"
       y1="94.709999"
       x1="77.019997"
       class="cls-19" />
    <line
       style="fill:none;stroke:#231815;stroke-width:2px;stroke-linecap:square"
       id="line166"
       y2="74.830002"
       x2="42.360001"
       y1="126.72"
       x1="42.360001"
       class="cls-17" />
    <line
       style="fill:none;stroke:#231815;stroke-width:0.25px;stroke-linecap:square"
       id="line168"
       y2="107.78"
       x2="42.240002"
       y1="107.8"
       x1="59.439999"
       class="cls-19" />
    <line
       style="fill:none;stroke:#231815;stroke-width:0.25px;stroke-linecap:square"
       id="line170"
       y2="112.16"
       x2="42.240002"
       y1="112.18"
       x1="59.439999"
       class="cls-19" />
    <line
       style="fill:none;stroke:#231815;stroke-width:0.25px;stroke-linecap:square"
       id="line172"
       y2="99.220001"
       x2="42.200001"
       y1="99.239998"
       x1="59.389999"
       class="cls-19" />
    <line
       style="fill:none;stroke:#231815;stroke-width:0.25px;stroke-linecap:square"
       id="line174"
       y2="103.6"
       x2="42.200001"
       y1="103.62"
       x1="59.389999"
       class="cls-19" />
    <line
       style="fill:none;stroke:#231815;stroke-width:0.25px;stroke-linecap:square"
       id="line176"
       y2="90.309998"
       x2="42.869999"
       y1="90.330002"
       x1="60.060001"
       class="cls-19" />
    <line
       style="fill:none;stroke:#231815;stroke-width:0.25px;stroke-linecap:square"
       id="line178"
       y2="94.690002"
       x2="42.869999"
       y1="94.709999"
       x1="60.060001"
       class="cls-19" />
    <line
       style="fill:none;stroke:#231815;stroke-width:2px;stroke-linecap:square"
       id="line180"
       y2="74.779999"
       x2="42.779999"
       y1="74.830002"
       x1="76.690002"
       class="cls-17" />
    <line
       style="fill:none;stroke:#231815;stroke-width:0.25px;stroke-linecap:square"
       id="line182"
       y2="85.900002"
       x2="42.360001"
       y1="85.919998"
       x1="59.560001"
       class="cls-19" />
    <line
       style="fill:none;stroke:#231815;stroke-width:0.25px;stroke-linecap:square"
       id="line184"
       y2="85.910004"
       x2="59.16"
       y1="85.93"
       x1="76.349998"
       class="cls-19" />
    <path
       style="fill:#a0a0ff"
       inkscape:connector-curvature="0"
       id="path186"
       d="M 17.3,83.5 H 44.68 A 4.3,4.3 0 0 1 49,87.8 v 26 A 4.29,4.29 0 0 1 44.68,118 H 17.31 A 4.29,4.29 0 0 1 13,113.75 v -26 a 4.29,4.29 0 0 1 4.3,-4.25 z"
       class="cls-1" />
    <path
       style="fill:#ffffff"
       inkscape:connector-curvature="0"
       id="path188"
       d="M 39,88.91 A 1.3,1.3 0 1 0 37.7,87.62 1.29,1.29 0 0 0 39,88.91 Z"
       class="cls-5" />
    <path
       style="fill:#ffffff"
       inkscape:connector-curvature="0"
       id="path190"
       d="m 41.53,95.5 -2.48,-1.44 0.23,-1.19 a 7.67,7.67 0 0 0 0.13,-1.37 7.38,7.38 0 0 0 -0.3,-2.06 0.2,0.2 0 0 0 -0.19,-0.14 v 0 a 5.18,5.18 0 0 0 -5,5.18 c 0,0.14 0,0.28 0,0.41 l 1.09,0.19 c 0,0 0,0 0,-0.08 a 3.81,3.81 0 0 1 1.33,-2.89 l -0.63,12 h 1.4 l 1.47,-7.62 1.37,0.64 -0.94,3.5 1,1 2.06,-4.42 a 1.22,1.22 0 0 0 0.12,-0.54 1.28,1.28 0 0 0 -0.66,-1.17 z"
       class="cls-5" />
    <polygon
       style="fill:#ffffff"
       id="polygon192"
       points="39.38,105.19 34.87,105.19 34.87,107.26 30.36,107.26 30.36,109.32 25.86,109.32 25.86,111.39 21.35,111.39 21.35,113.45 17.51,113.45 17.51,115.93 23.83,115.93 23.83,113.87 28.34,113.87 28.34,111.8 32.84,111.8 32.84,109.73 37.35,109.73 37.35,107.67 41.86,107.67 41.86,105.6 44.48,105.6 44.48,103.12 39.38,103.12 "
       class="cls-5" />
    <text
       style="font-size:14.9093132px;font-family:AxisStd-Medium-90ms-RKSJ-H, 'AXIS Std';letter-spacing:-0.03em;fill:#ffffff;stroke-width:1.02469504"
       id="text194"
       transform="scale(0.97590007,1.0246951)"
       class="cls-20"
       x="16.067219"
       y="97.765671">北</text>
    <path
       style="fill:#ffffff;stroke:#0b308e;stroke-width:3px;stroke-miterlimit:10"
       inkscape:connector-curvature="0"
       id="path196"
       d="M 277,210.79 A 13.37,13.37 0 1 1 263.63,197.42 13.38,13.38 0 0 1 277,210.79 Z"
       class="cls-21" />
    <text
       style="font-weight:700;font-size:27.07999992px;font-family:Constantia-Bold, Constantia;fill:#231815"
       id="text198"
       class="cls-22"
       x="259.16"
       y="220.45">i</text>
    <path
       style="fill:#036eb7"
       inkscape:connector-curvature="0"
       id="path200"
       d="m 351.21,123.63 a 1.32,1.32 0 0 0 1.31,-1.32 1.32,1.32 0 1 0 -1.31,1.32"
       class="cls-4" />
    <path
       style="fill:#036eb7"
       inkscape:connector-curvature="0"
       id="path202"
       d="m 353.18,124.2 a 10.69,10.69 0 0 0 -2,-0.18 10.8,10.8 0 0 0 -2,0.18 2.17,2.17 0 0 0 -1.76,2.25 l 0.25,4.54 h 1.06 v -4.34 h 0.33 v 12.1 h 1.44 l 0.52,-7.5 h 0.27 l 0.53,7.5 h 1.44 v -12.1 h 0.33 V 131 h 1.07 l 0.24,-4.54 a 2.15,2.15 0 0 0 -1.77,-2.24"
       class="cls-4" />
    <line
       style="fill:none;stroke:#231815;stroke-linejoin:bevel"
       id="line204"
       y2="242.86"
       x2="324.97"
       y1="242.81"
       x1="341.87"
       class="cls-13" />
    <line
       style="fill:none;stroke:#231815;stroke-linejoin:bevel"
       id="line206"
       y2="245.88"
       x2="325.16"
       y1="245.82001"
       x1="342.06"
       class="cls-13" />
    <line
       style="fill:none;stroke:#231815;stroke-linejoin:bevel"
       id="line208"
       y2="248.89"
       x2="325.07999"
       y1="248.83"
       x1="341.98001"
       class="cls-13" />
    <line
       style="fill:none;stroke:#231815;stroke-linejoin:bevel"
       id="line210"
       y2="251.89999"
       x2="324.95999"
       y1="251.84"
       x1="341.85999"
       class="cls-13" />
    <line
       style="fill:none;stroke:#231815;stroke-linejoin:bevel"
       id="line212"
       y2="254.91"
       x2="325.14001"
       y1="254.85001"
       x1="342.04999"
       class="cls-13" />
    <line
       style="fill:none;stroke:#231815;stroke-linejoin:bevel"
       id="line214"
       y2="257.92001"
       x2="325.42001"
       y1="257.85999"
       x1="342.32001"
       class="cls-13" />
    <line
       style="fill:none;stroke:#231815;stroke-linejoin:bevel"
       id="line216"
       y2="260.92999"
       x2="325.60999"
       y1="260.87"
       x1="342.51001"
       class="cls-13" />
    <line
       style="fill:none;stroke:#231815;stroke-linejoin:bevel"
       id="line218"
       y2="263.94"
       x2="325.09"
       y1="263.87"
       x1="341.98999"
       class="cls-13" />
    <line
       style="fill:none;stroke:#231815;stroke-linejoin:bevel"
       id="line220"
       y2="266.95001"
       x2="325.28"
       y1="266.89001"
       x1="342.17001"
       class="cls-13" />
    <path
       style="fill:#a0a0ff"
       inkscape:connector-curvature="0"
       id="path222"
       d="m 290.14,237.64 h 29.15 a 4.57,4.57 0 0 1 4.57,4.57 v 27.64 a 4.58,4.58 0 0 1 -4.58,4.58 h -29.14 a 4.57,4.57 0 0 1 -4.57,-4.57 v -27.64 a 4.57,4.57 0 0 1 4.57,-4.58 z"
       class="cls-1" />
    <path
       style="fill:#ffffff"
       inkscape:connector-curvature="0"
       id="path224"
       d="m 313.21,243.41 a 1.38,1.38 0 1 0 -1.38,-1.38 1.37,1.37 0 0 0 1.38,1.38 z"
       class="cls-5" />
    <path
       style="fill:#ffffff"
       inkscape:connector-curvature="0"
       id="path226"
       d="m 315.94,250.42 -2.65,-1.53 0.25,-1.27 a 7.77,7.77 0 0 0 0.14,-1.46 7.53,7.53 0 0 0 -0.32,-2.19 0.21,0.21 0 0 0 -0.2,-0.15 v 0 a 5.52,5.52 0 0 0 -5.33,5.52 c 0,0.14 0,0.29 0,0.43 L 309,250 v -0.09 a 4.06,4.06 0 0 1 1.41,-3.08 l -0.67,12.74 h 1.48 l 1.58,-8.11 1.45,0.68 -1,3.72 1.05,1.06 2.2,-4.71 a 1.37,1.37 0 0 0 -0.56,-1.77 z"
       class="cls-5" />
    <polygon
       style="fill:#ffffff"
       id="polygon228"
       points="313.64,260.74 308.84,260.74 308.84,262.94 304.04,262.94 304.04,265.14 299.24,265.14 299.24,267.34 294.44,267.34 294.44,269.54 290.36,269.54 290.36,272.18 297.08,272.18 297.08,269.98 301.88,269.98 301.88,267.78 306.68,267.78 306.68,265.58 311.48,265.58 311.48,263.38 316.28,263.38 316.28,261.18 319.07,261.18 319.07,258.54 313.64,258.54 "
       class="cls-5" />
    <text
       style="font-size:11.90243149px;font-family:AxisStd-Medium-90ms-RKSJ-H, 'AXIS Std';letter-spacing:-0.05em;fill:#ffffff;stroke-width:0.92195445"
       id="text230"
       transform="scale(1.0846523,0.92195445)"
       class="cls-23"
       x="267.21927"
       y="271.18475">中</text>
    <text
       style="font-size:11.90243149px;font-family:AxisStd-Medium-90ms-RKSJ-H, 'AXIS Std';letter-spacing:-0.01em;fill:#ffffff;stroke-width:0.92195445"
       id="text232"
       transform="scale(1.0846523,0.92195445)"
       class="cls-24"
       x="267.19162"
       y="283.56064">央</text>
    <line
       style="fill:none;stroke:#231815;stroke-width:0.2px"
       id="line234"
       y2="134.08"
       x2="394.91"
       y1="122.92"
       x1="372.16"
       class="cls-14" />
    <line
       style="fill:none;stroke:#231815;stroke-width:0.2px"
       id="line236"
       y2="136.42"
       x2="392.89001"
       y1="125.93"
       x1="371.51001"
       class="cls-14" />
    <line
       style="fill:none;stroke:#231815;stroke-width:0.2px"
       id="line238"
       y2="139.36"
       x2="392.10999"
       y1="128.52"
       x1="370"
       class="cls-14" />
    <line
       style="fill:none;stroke:#231815;stroke-width:0.2px"
       id="line240"
       y2="142.22"
       x2="391.14999"
       y1="131.28999"
       x1="368.88"
       class="cls-14" />
    <line
       style="fill:none;stroke:#231815;stroke-width:0.2px"
       id="line242"
       y2="144.82001"
       x2="389.66"
       y1="134.00999"
       x1="367.64001"
       class="cls-14" />
    <line
       style="fill:none;stroke:#231815;stroke-width:0.2px"
       id="line244"
       y2="149.88"
       x2="386.82001"
       y1="139"
       x1="364.64001"
       class="cls-14" />
    <line
       style="fill:none;stroke:#231815;stroke-width:0.2px"
       id="line246"
       y2="146.8"
       x2="387.60999"
       y1="135.96001"
       x1="365.5"
       class="cls-14" />
    <line
       style="fill:none;stroke:#231815;stroke-width:0.2px"
       id="line248"
       y2="152.73"
       x2="385.5"
       y1="141.89"
       x1="363.39001"
       class="cls-14" />
    <path
       style="fill:#cce1f2"
       inkscape:connector-curvature="0"
       id="path250"
       d="m 378.5,110.23 0.92,-2 c 3.51,1.58 7.09,3.25 10.71,5 3.62,1.75 7.32,3.58 10.83,5.38 -0.28,0.62 -0.57,1.24 -0.86,1.86 z"
       class="cls-2" />
    <text
       style="font-size:14.36999989px;font-family:AxisStd-Regular-90ms-RKSJ-H, 'AXIS Std';fill:#231815"
       id="text252"
       class="cls-25"
       x="293.48999"
       y="64.68">上空通路</text>
    <path
       style="fill:#cce1f2"
       inkscape:connector-curvature="0"
       id="path254"
       d="m 407,56.47 19,3.8 -19.36,42.86 L 389.58,93 Q 398.28,74.73 407,56.47 Z"
       class="cls-2" />
    <line
       style="fill:none;stroke:#231815"
       id="line256"
       y2="40.169998"
       x2="424.67001"
       y1="118.44"
       x1="388.64001"
       class="cls-26" />
    <polygon
       style="fill:#231815"
       id="polygon258"
       points="419.53,39.41 428.59,43.58 427.67,33.65 "
       class="cls-27" />
    <line
       style="fill:none;stroke:#231815;stroke-width:1.60000002px"
       id="line260"
       y2="38.490002"
       x2="414.92001"
       y1="109.41"
       x1="381.97"
       class="cls-28" />
    <line
       style="fill:none;stroke:#231815;stroke-width:1.60000002px"
       id="line262"
       y2="46.330002"
       x2="432.09"
       y1="117.53"
       x1="400.01999"
       class="cls-28" />
    <path
       style="fill:#ffffff"
       inkscape:connector-curvature="0"
       id="path264"
       d="m 362.72,43.43 c -0.8,0.84 -1.59,1.69 -2.38,2.53 l 0.15,5.69 0.08,21.43 a 6.09,6.09 0 0 0 0.76,1.69 6.28,6.28 0 0 0 1.67,1.69 l 26.34,-0.16 a 3.76,3.76 0 0 0 4.23,-4.14 l -0.39,-26.58 -2.76,-2.23 z"
       class="cls-5" />
    <line
       style="fill:none;stroke:#ffffff;stroke-miterlimit:10"
       id="line266"
       y2="74.510002"
       x2="376.89999"
       y1="73.550003"
       x1="376.89999"
       class="cls-29" />
    <polygon
       style="fill:#231815"
       id="polygon268"
       points="371.78,60.8 382.12,60.8 388.77,75.27 365.14,75.27 "
       class="cls-27" />
    <polygon
       style="fill:none;stroke:#231815;stroke-miterlimit:10"
       id="polygon270"
       points="371.78,60.8 382.12,60.8 388.77,75.27 365.14,75.27 "
       class="cls-30" />
    <line
       style="fill:none;stroke:#231815;stroke-width:3px;stroke-miterlimit:10"
       id="line272"
       y2="47.77"
       x2="393.34"
       y1="47.77"
       x1="360.57001"
       class="cls-31" />
    <line
       style="fill:#ffffff"
       id="line274"
       y2="56.98"
       x2="393.34"
       y1="56.98"
       x1="360.57001"
       class="cls-5" />
    <line
       style="fill:none;stroke:#231815;stroke-width:4px;stroke-miterlimit:10"
       id="line276"
       y2="56.98"
       x2="393.34"
       y1="56.98"
       x1="360.57001"
       class="cls-32" />
    <line
       style="fill:#ffffff"
       id="line278"
       y2="58.549999"
       x2="392.70001"
       y1="58.549999"
       x1="361.10999"
       class="cls-5" />
    <line
       style="fill:none;stroke:#ffffff;stroke-width:0.5px;stroke-miterlimit:10"
       id="line280"
       y2="58.549999"
       x2="392.70001"
       y1="58.549999"
       x1="361.10999"
       class="cls-33" />
    <line
       style="fill:#ffffff"
       id="line282"
       y2="57.860001"
       x2="376.92999"
       y1="49.200001"
       x1="376.92999"
       class="cls-5" />
    <line
       style="fill:none;stroke:#231815;stroke-width:2px;stroke-miterlimit:10"
       id="line284"
       y2="57.860001"
       x2="376.92999"
       y1="49.200001"
       x1="376.92999"
       class="cls-9" />
    <line
       style="fill:#ffffff"
       id="line286"
       y2="57.860001"
       x2="381.07001"
       y1="49.200001"
       x1="381.07001"
       class="cls-5" />
    <line
       style="fill:none;stroke:#231815;stroke-miterlimit:10"
       id="line288"
       y2="57.860001"
       x2="381.07001"
       y1="49.200001"
       x1="381.07001"
       class="cls-30" />
    <line
       style="fill:#ffffff"
       id="line290"
       y2="57.860001"
       x2="385.45999"
       y1="49.200001"
       x1="385.45999"
       class="cls-5" />
    <line
       style="fill:none;stroke:#231815;stroke-width:2px;stroke-miterlimit:10"
       id="line292"
       y2="57.860001"
       x2="385.45999"
       y1="49.200001"
       x1="385.45999"
       class="cls-9" />
    <line
       style="fill:none;stroke:#231815;stroke-miterlimit:10"
       id="line294"
       y2="57.200001"
       x2="389.73999"
       y1="48.540001"
       x1="389.73999"
       class="cls-30" />
    <line
       style="fill:#ffffff"
       id="line296"
       y2="57.200001"
       x2="373.25"
       y1="48.540001"
       x1="373.25"
       class="cls-5" />
    <line
       style="fill:none;stroke:#231815;stroke-miterlimit:10"
       id="line298"
       y2="57.200001"
       x2="373.25"
       y1="48.540001"
       x1="373.25"
       class="cls-30" />
    <line
       style="fill:#ffffff"
       id="line300"
       y2="57.200001"
       x2="369.35001"
       y1="48.540001"
       x1="369.35001"
       class="cls-5" />
    <line
       style="fill:none;stroke:#231815;stroke-width:2px;stroke-miterlimit:10"
       id="line302"
       y2="57.200001"
       x2="369.35001"
       y1="48.540001"
       x1="369.35001"
       class="cls-9" />
    <line
       style="fill:#ffffff"
       id="line304"
       y2="57.200001"
       x2="365.42001"
       y1="48.540001"
       x1="365.42001"
       class="cls-5" />
    <line
       style="fill:none;stroke:#231815;stroke-miterlimit:10"
       id="line306"
       y2="57.200001"
       x2="365.42001"
       y1="48.540001"
       x1="365.42001"
       class="cls-30" />
    <line
       style="fill:#ffffff;stroke:#ffffff;stroke-miterlimit:10;stroke-dasharray:1.5, 1"
       id="line308"
       y2="74.510002"
       x2="376.89999"
       y1="60.360001"
       x1="376.95001"
       class="cls-34" />
    <line
       style="fill:none;stroke:#ffffff;stroke-miterlimit:10"
       id="line310"
       y2="61.200001"
       x2="376.95001"
       y1="60.360001"
       x1="376.95001"
       class="cls-29" />
    <path
       style="fill:#f6b162"
       inkscape:connector-curvature="0"
       id="path312"
       d="m 389.66,44 a 3,3 0 0 1 3,3 v 25.57 a 3,3 0 0 1 -3,3 h -25.52 a 3,3 0 0 1 -3,-3 V 47.05 a 3,3 0 0 1 3,-3 h 25.52 m 0,-1.52 h -25.52 a 4.55,4.55 0 0 0 -4.54,4.55 v 25.49 a 4.55,4.55 0 0 0 4.54,4.55 h 25.52 a 4.55,4.55 0 0 0 4.55,-4.55 V 47.05 a 4.55,4.55 0 0 0 -4.55,-4.55"
       class="cls-35" />
    <rect
       style="fill:#ffe727"
       id="rect314"
       rx="6.9400001"
       height="27.690001"
       width="74.620003"
       y="1.4"
       x="440.31"
       class="cls-36" />
    <text
       style="font-weight:normal;font-size:23.71999931px;font-family:'Noto Sans Mono CJK JP';fill:#231815;-inkscape-font-specification:'Noto Sans Mono CJK JP';font-style:normal;font-stretch:normal;font-variant:normal;"
       id="text316"
       class="cls-37"
       x="447.07999"
       y="24.309999">C</text>
    <text
       style="font-size:9.48999977px;font-family:'Noto Sans Mono CJK JP';fill:#231815;-inkscape-font-specification:'Noto Sans Mono CJK JP';font-weight:normal;font-style:normal;font-stretch:normal;font-variant:normal;"
       id="text318"
       class="cls-38"
       x="464.81"
       y="23.6">会場</text>
    <text
       style="font-weight:normal;font-size:23.52000046px;font-family:'Noto Sans Mono CJK JP';fill:#231815;-inkscape-font-specification:'Noto Sans Mono CJK JP';font-style:normal;font-stretch:normal;font-variant:normal;"
       id="text320"
       class="cls-39"
       x="485.32999"
       y="24.27">1</text>
    <text
       style="font-size:9.40999985px;font-family:'Noto Sans Mono CJK JP';fill:#231815;-inkscape-font-specification:'Noto Sans Mono CJK JP';font-weight:normal;font-style:normal;font-stretch:normal;font-variant:normal;"
       id="text322"
       class="cls-40"
       x="499.44"
       y="23.559999">階</text>
    <rect
       style="fill:#75b989"
       id="rect324"
       rx="6.9400001"
       height="27.690001"
       width="74.620003"
       y="1.4"
       x="360"
       class="cls-41" />
    <text
       style="font-size:13.26259232px;font-family:'Noto Sans Mono CJK JP';fill:#231815;stroke-width:0.94868332;-inkscape-font-specification:'Noto Sans Mono CJK JP';font-weight:normal;font-style:normal;font-stretch:normal;font-variant:normal;"
       id="text326"
       transform="scale(0.9486833,1.0540926)"
       class="cls-42"
       x="385.63977"
       y="19.713638">グラウンド</text>
    <rect
       style="fill:#cc6688"
       id="rect328"
       rx="5.8200002"
       height="27.690001"
       width="52.5"
       y="1.4400001"
       x="520.10999"
       class="cls-43" />
    <text
       style="font-weight:normal;font-size:23.71999931px;font-family:'Noto Sans Mono CJK JP';fill:#ffffff;-inkscape-font-specification:'Noto Sans Mono CJK JP';font-style:normal;font-stretch:normal;font-variant:normal;"
       id="text330"
       class="cls-44"
       x="527.64001"
       y="24.35">A</text>
    <text
       style="font-size:9.48999977px;font-family:'Noto Sans Mono CJK JP';fill:#ffffff;-inkscape-font-specification:'Noto Sans Mono CJK JP';font-weight:normal;font-style:normal;font-stretch:normal;font-variant:normal;"
       id="text332"
       class="cls-45"
       x="545.37"
       y="23.629999">会場</text>
    <text
       style="font-size:14.31999969px;font-family:MyriadPro-Regular, 'Myriad Pro';fill:#f7f7f7"
       id="text334"
       class="cls-46"
       x="288.09"
       y="120.32">B304</text>
    <text
       style="font-size:14.31999969px;font-family:MyriadPro-Regular, 'Myriad Pro';fill:#f7f7f7"
       id="text336"
       class="cls-46"
       x="222.44"
       y="102.23">B305</text>
    <text
       style="font-size:14.31999969px;font-family:MyriadPro-Regular, 'Myriad Pro';fill:#f7f7f7"
       id="text338"
       class="cls-46"
       x="158.92"
       y="91.800003">B306</text>
    <text
       style="font-size:14.31999969px;font-family:MyriadPro-Regular, 'Myriad Pro';fill:#f7f7f7"
       id="text340"
       class="cls-46"
       x="95.199997"
       y="86.779999">B307</text>
    <line
       style="fill:none;stroke:#3e3a39;stroke-width:3px;stroke-linecap:round;stroke-miterlimit:10"
       id="line342"
       y2="1.5"
       x2="572.62"
       y1="30.17"
       x1="517.84003"
       class="cls-47" />
    <line
       style="fill:none;stroke:#3e3a39;stroke-width:3px;stroke-linecap:round;stroke-miterlimit:10"
       id="line344"
       y2="30.17"
       x2="572.62"
       y1="1.5"
       x1="517.84003"
       class="cls-47" />
    <text
       style="font-size:11px;font-family:AxisStd-Regular-90ms-RKSJ-H, 'AXIS Std';fill:#3e3a39"
       id="text356"
       class="cls-48"
       x="453.60001"
       y="44.400002">※上空通路を通って直接<tspan
   style="letter-spacing:0.25em"
   id="tspan346"
   y="56.400002"
   x="452.16"
   class="cls-49">A</tspan>
<tspan
   id="tspan348"
   y="56.400002"
   x="462.76001">会</tspan>
<tspan
   style="letter-spacing:0.25em"
   id="tspan350"
   y="56.400002"
   x="473.76001"
   class="cls-49">場2</tspan>
<tspan
   id="tspan352"
   y="56.400002"
   x="497.60001">階にいくことは</tspan>
<tspan
   id="tspan354"
   y="68.400002"
   x="519.59998">できません</tspan>
</text>
  </g>
</svg>
