<?xml version="1.0" encoding="UTF-8" standalone="no"?>
<svg
   xmlns:dc="http://purl.org/dc/elements/1.1/"
   xmlns:cc="http://creativecommons.org/ns#"
   xmlns:rdf="http://www.w3.org/1999/02/22-rdf-syntax-ns#"
   xmlns:svg="http://www.w3.org/2000/svg"
   xmlns="http://www.w3.org/2000/svg"
   xmlns:sodipodi="http://sodipodi.sourceforge.net/DTD/sodipodi-0.dtd"
   xmlns:inkscape="http://www.inkscape.org/namespaces/inkscape"
   width="547.93"
   height="403.67"
   viewBox="0 0 547.93 403.67"
   version="1.1"
   id="svg222"
   sodipodi:docname="B5.svg"
   inkscape:version="0.92.4 (5da689c313, 2019-01-14)">
  <metadata
     id="metadata226">
    <rdf:RDF>
      <cc:Work
         rdf:about="">
        <dc:format>image/svg+xml</dc:format>
        <dc:type
           rdf:resource="http://purl.org/dc/dcmitype/StillImage" />
      </cc:Work>
    </rdf:RDF>
  </metadata>
  <sodipodi:namedview
     pagecolor="#ffffff"
     bordercolor="#666666"
     borderopacity="1"
     objecttolerance="10"
     gridtolerance="10"
     guidetolerance="10"
     inkscape:pageopacity="0"
     inkscape:pageshadow="2"
     inkscape:window-width="2049"
     inkscape:window-height="1118"
     id="namedview224"
     showgrid="false"
     inkscape:zoom="1.6536002"
     inkscape:cx="167.75048"
     inkscape:cy="373.95375"
     inkscape:window-x="-11"
     inkscape:window-y="343"
     inkscape:window-maximized="1"
     inkscape:current-layer="svg222" />
  <defs
     id="defs4">
    <style
       id="style2">.cls-1{fill:#cce1f2;}.cls-2{fill:#036eb7;}.cls-3,.cls-5{fill:#7d7d7d;}.cls-4{fill:#a0a0ff;}.cls-10,.cls-13,.cls-14,.cls-18,.cls-5,.cls-6,.cls-7,.cls-8,.cls-9{stroke:#231815;}.cls-13,.cls-18,.cls-5,.cls-6{stroke-width:2px;}.cls-10,.cls-13,.cls-14,.cls-18,.cls-6,.cls-7,.cls-8,.cls-9{fill:none;}.cls-7{stroke-width:0.8px;}.cls-8{stroke-linejoin:bevel;}.cls-9{stroke-width:0.2px;}.cls-10,.cls-13,.cls-14{stroke-linecap:square;}.cls-11,.cls-12,.cls-15,.cls-16,.cls-17{fill:#fff;}.cls-12,.cls-15{font-size:18.11px;}.cls-12,.cls-15,.cls-16,.cls-17,.cls-19{font-family:AxisStd-Medium-90ms-RKSJ-H, AXIS Std;}.cls-12{letter-spacing:-0.02em;}.cls-14{stroke-width:0.25px;}.cls-15{letter-spacing:-0.03em;}.cls-16,.cls-17{font-size:16.07px;}.cls-16{letter-spacing:-0.05em;}.cls-17{letter-spacing:-0.02em;}.cls-18{stroke-miterlimit:10;}.cls-19{font-size:13.13px;fill:#f7f7f7;}</style>
  </defs>
  <title
     id="title6">B5</title>
  <g
     id="レイヤー_2"
     data-name="レイヤー 2">
    <g
       id="レイヤー_1-2"
       data-name="レイヤー 1">
      <path
         class="cls-1"
         d="M410.16,333.9q-40.29.24-81.1.15-27.74-.06-55.21-.29h0l1.53-109.55h0l27.42-.73V193.14h70.75c1.28-4.9,2.48-10.21,3.5-15.9,1.21-6.76,2-13.11,2.48-19-5.65-2.92-14.19-7.17-24.8-11.81-41.47-18.13-75.12-24.84-115.67-32.67A830.3,830.3,0,0,0,145.41,101C120.29,99,98.31,98.53,80.5,98.62c-.14-2-.27-4.06-.41-6.08l-43.66.62q.14-32.28.25-64.55L80.25,29q0,21.18.1,42.36A802.26,802.26,0,0,1,169.19,75a772.78,772.78,0,0,1,220.69,55c13.76,5.7,24.92,10.8,32.31,14.27,2.6-7.43,27-55.86,36.57-72.65,7.23,3.2,14.68,6.7,22.29,10.53,12.53,6.31,24.1,12.8,34.72,19.26l-34.43,69.72c-5-3-10.55-6.1-16.63-9-3.81-1.85-7.51-3.49-11.08-5v35l-44.07.67C409.59,199.2,410.16,333.9,410.16,333.9Z"
         id="path8" />
      <rect
         class="cls-2"
         x="274.11"
         y="223.77"
         width="28.17"
         height="83.61"
         id="rect10" />
      <path
         class="cls-3"
         d="M454.83,69.65l-32.64,73.61A781.54,781.54,0,0,0,80.79,70.64q.15-35,.29-70a868.84,868.84,0,0,1,373.75,69Z"
         id="path12" />
      <path
         class="cls-4"
         d="M454.83,69.65l-32.64,73.61c-17.68-8.33-37.2-16.65-58.52-24.46-18.75-6.87-36.68-12.54-53.52-17.24q10.49-36.94,21-73.91a663.9,663.9,0,0,1,65.87,19C418.13,53.92,437.44,61.77,454.83,69.65Z"
         id="path14" />
      <polygon
         class="cls-4"
         points="525.73 333.82 409.74 333.82 409.74 288.12 409.74 192.43 525.73 192.43 525.73 333.82"
         id="polygon16" />
      <path
         class="cls-3"
         d="M525.31,401.79l-200.92.67V334.2H525.3Z"
         id="path18" />
      <rect
         class="cls-3"
         x="58.59"
         y="28.67"
         width="21.69"
         height="46.55"
         id="rect20" />
      <path
         class="cls-3"
         d="M459.84,134.32l-6.44-4-20.64-10.24Q444,95,455.22,69.77L483.45,84Z"
         id="path22" />
      <path
         class="cls-3"
         d="M409.74,333.82l-135.89-.06q.13-13.18.26-26.38h28.06l.08-8.68,107.49-.13Z"
         id="path24" />
      <rect
         class="cls-5"
         x="326.87"
         y="221.96"
         width="61.91"
         height="56.55"
         id="rect26" />
      <path
         class="cls-6"
         d="M422.44,143.86A780.51,780.51,0,0,0,79.31,71.3"
         id="path28" />
      <path
         class="cls-6"
         d="M310.15,101.56q10.38-36.66,20.77-73.33"
         id="path30" />
      <line
         class="cls-6"
         x1="454.83"
         y1="70.65"
         x2="426.93"
         y2="131.23"
         id="line32" />
      <path
         class="cls-6"
         d="M432.56,120.78q6.62,3.06,13.41,6.36,7.27,3.54,14.23,7.1Q472.11,109.1,484,84"
         id="path34" />
      <path
         class="cls-7"
         d="M479,93.69l16,8.16L475.9,141.63"
         id="path36" />
      <path
         class="cls-6"
         d="M409.87,334.23q-.15-70.73-.31-141.44l43.54-.37"
         id="path38" />
      <path
         class="cls-6"
         d="M324.39,334.2l200.31-.08"
         id="path40" />
      <line
         class="cls-6"
         x1="525.54"
         y1="401.96"
         x2="325.28"
         y2="334.2"
         id="line42" />
      <path
         class="cls-6"
         d="M409.74,298.57h0l-83.95.11"
         id="path44" />
      <line
         class="cls-8"
         x1="370.77"
         y1="298.63"
         x2="370.7"
         y2="277.59"
         id="line46" />
      <line
         class="cls-8"
         x1="367.02"
         y1="298.86"
         x2="366.94"
         y2="277.82"
         id="line48" />
      <line
         class="cls-8"
         x1="363.27"
         y1="298.77"
         x2="363.2"
         y2="277.72"
         id="line50" />
      <line
         class="cls-8"
         x1="359.53"
         y1="298.62"
         x2="359.45"
         y2="277.57"
         id="line52" />
      <line
         class="cls-8"
         x1="355.78"
         y1="298.85"
         x2="355.7"
         y2="277.8"
         id="line54" />
      <line
         class="cls-8"
         x1="352.03"
         y1="299.19"
         x2="351.95"
         y2="278.15"
         id="line56" />
      <line
         class="cls-8"
         x1="348.28"
         y1="299.43"
         x2="348.21"
         y2="278.39"
         id="line58" />
      <line
         class="cls-8"
         x1="344.54"
         y1="298.77"
         x2="344.46"
         y2="277.73"
         id="line60" />
      <line
         class="cls-8"
         x1="340.78"
         y1="299.01"
         x2="340.71"
         y2="277.97"
         id="line62" />
      <line
         class="cls-9"
         x1="477.27"
         y1="97.05"
         x2="493.17"
         y2="105.15"
         id="line64" />
      <line
         class="cls-9"
         x1="475.86"
         y1="100.54"
         x2="491.77"
         y2="108.64"
         id="line66" />
      <line
         class="cls-9"
         x1="473.96"
         y1="103.78"
         x2="489.86"
         y2="111.88"
         id="line68" />
      <line
         class="cls-9"
         x1="472.75"
         y1="107.36"
         x2="488.66"
         y2="115.47"
         id="line70" />
      <line
         class="cls-9"
         x1="471.44"
         y1="110.9"
         x2="487.34"
         y2="119.01"
         id="line72" />
      <line
         class="cls-9"
         x1="469.35"
         y1="114.04"
         x2="485.25"
         y2="122.15"
         id="line74" />
      <line
         class="cls-9"
         x1="467.94"
         y1="117.53"
         x2="483.85"
         y2="125.64"
         id="line76" />
      <line
         class="cls-9"
         x1="466.04"
         y1="120.77"
         x2="481.94"
         y2="128.87"
         id="line78" />
      <line
         class="cls-9"
         x1="464.83"
         y1="124.36"
         x2="480.74"
         y2="132.46"
         id="line80" />
      <path
         class="cls-9"
         d="M463.52,127.9l15.36,7.9"
         id="path82" />
      <path
         class="cls-9"
         d="M494.56,103.76l15,7.63"
         id="path84" />
      <line
         class="cls-9"
         x1="492.23"
         y1="106.77"
         x2="508.13"
         y2="114.88"
         id="line86" />
      <path
         class="cls-9"
         d="M490.55,110.26l15.68,7.85"
         id="path88" />
      <line
         class="cls-9"
         x1="489.12"
         y1="113.6"
         x2="505.01"
         y2="121.7"
         id="line90" />
      <line
         class="cls-9"
         x1="487.8"
         y1="117.14"
         x2="503.71"
         y2="125.25"
         id="line92" />
      <line
         class="cls-9"
         x1="485.71"
         y1="120.27"
         x2="501.62"
         y2="128.39"
         id="line94" />
      <line
         class="cls-9"
         x1="484.3"
         y1="123.77"
         x2="500.21"
         y2="131.87"
         id="line96" />
      <line
         class="cls-9"
         x1="482.41"
         y1="127.01"
         x2="498.31"
         y2="135.11"
         id="line98" />
      <line
         class="cls-9"
         x1="481.2"
         y1="130.59"
         x2="497.09"
         y2="138.7"
         id="line100" />
      <line
         class="cls-9"
         x1="479.89"
         y1="134.13"
         x2="495.79"
         y2="142.24"
         id="line102" />
      <path
         class="cls-6"
         d="M388.82,243.58V222.43"
         id="path104" />
      <text
         id="text106" />
      <text
         id="text108" />
      <text
         id="text110" />
      <line
         class="cls-10"
         x1="58.59"
         y1="75.22"
         x2="58.59"
         y2="28.95"
         id="line112" />
      <path
         class="cls-4"
         d="M508.49,116.68h34.09a5.34,5.34,0,0,1,5.34,5.34v32.32a5.35,5.35,0,0,1-5.35,5.35H508.5a5.35,5.35,0,0,1-5.35-5.35V122A5.34,5.34,0,0,1,508.49,116.68Z"
         id="path114" />
      <path
         class="cls-11"
         d="M535.47,123.41a1.62,1.62,0,1,0-1.61-1.61A1.61,1.61,0,0,0,535.47,123.41Z"
         id="path116" />
      <path
         class="cls-11"
         d="M538.66,131.61l-3.09-1.78.29-1.48a9.71,9.71,0,0,0,.16-1.71,9.07,9.07,0,0,0-.37-2.57.24.24,0,0,0-.24-.17h0a6.46,6.46,0,0,0-6.23,6.45,4.35,4.35,0,0,0,0,.51l1.35.23V131a4.74,4.74,0,0,1,1.65-3.6l-.78,14.89h1.73L535,132.8l1.7.8L535.53,138l1.23,1.23,2.56-5.5a1.74,1.74,0,0,0,.15-.69A1.62,1.62,0,0,0,538.66,131.61Z"
         id="path118" />
      <polygon
         class="cls-11"
         points="542.33 141.1 535.98 141.1 535.98 143.68 530.37 143.68 530.37 146.25 524.76 146.25 524.76 148.82 519.15 148.82 519.15 151.4 513.53 151.4 513.53 153.97 508.75 153.97 508.75 157.06 516.62 157.06 516.62 154.49 522.23 154.49 522.23 151.91 527.84 151.91 527.84 149.34 533.46 149.34 533.46 146.77 539.07 146.77 539.07 144.19 542.33 144.19 542.33 141.1"
         id="polygon120" />
      <text
         class="cls-12"
         transform="translate(506.44 137.44) scale(1 1.05)"
         id="text122">南</text>
      <line
         class="cls-13"
         x1="79.23"
         y1="93.36"
         x2="36.52"
         y2="93.3"
         id="line124" />
      <line
         class="cls-14"
         x1="78.93"
         y1="69.79"
         x2="57.52"
         y2="69.76"
         id="line126" />
      <line
         class="cls-14"
         x1="78.87"
         y1="59.13"
         x2="57.46"
         y2="59.1"
         id="line128" />
      <line
         class="cls-14"
         x1="78.87"
         y1="64.59"
         x2="57.46"
         y2="64.56"
         id="line130" />
      <line
         class="cls-14"
         x1="79.71"
         y1="48.04"
         x2="58.29"
         y2="48.01"
         id="line132" />
      <line
         class="cls-14"
         x1="79.71"
         y1="53.49"
         x2="58.29"
         y2="53.46"
         id="line134" />
      <line
         class="cls-13"
         x1="36.55"
         y1="93.34"
         x2="36.55"
         y2="28.74"
         id="line136" />
      <line
         class="cls-14"
         x1="57.81"
         y1="69.79"
         x2="36.4"
         y2="69.76"
         id="line138" />
      <line
         class="cls-14"
         x1="57.81"
         y1="75.25"
         x2="36.4"
         y2="75.22"
         id="line140" />
      <line
         class="cls-14"
         x1="57.75"
         y1="59.13"
         x2="36.34"
         y2="59.1"
         id="line142" />
      <line
         class="cls-14"
         x1="57.75"
         y1="64.59"
         x2="36.34"
         y2="64.56"
         id="line144" />
      <line
         class="cls-14"
         x1="58.59"
         y1="48.04"
         x2="37.18"
         y2="48.01"
         id="line146" />
      <line
         class="cls-14"
         x1="58.59"
         y1="53.49"
         x2="37.18"
         y2="53.46"
         id="line148" />
      <line
         class="cls-13"
         x1="79.29"
         y1="28.73"
         x2="37.06"
         y2="28.67"
         id="line150" />
      <line
         class="cls-14"
         x1="57.96"
         y1="42.54"
         x2="36.55"
         y2="42.51"
         id="line152" />
      <line
         class="cls-14"
         x1="78.87"
         y1="42.55"
         x2="57.46"
         y2="42.53"
         id="line154" />
      <path
         class="cls-4"
         d="M44.78,77.2a5.35,5.35,0,0,1-5.35,5.35H5.35A5.35,5.35,0,0,1,0,77.2V44.88a5.36,5.36,0,0,1,5.35-5.35H39.43a5.36,5.36,0,0,1,5.35,5.35Z"
         id="path156" />
      <path
         class="cls-11"
         d="M32.32,46.27a1.62,1.62,0,1,0-1.61-1.61A1.61,1.61,0,0,0,32.32,46.27Z"
         id="path158" />
      <path
         class="cls-11"
         d="M35.51,54.47l-3.09-1.79.29-1.48a9.54,9.54,0,0,0,.16-1.71,9,9,0,0,0-.37-2.56.24.24,0,0,0-.24-.17h0A6.45,6.45,0,0,0,26,53.21a4.26,4.26,0,0,0,0,.5L27.4,54v-.1a4.74,4.74,0,0,1,1.65-3.6l-.78,14.89H30l1.84-9.48,1.7.79-1.16,4.36L33.61,62l2.56-5.5a1.66,1.66,0,0,0,.15-.68A1.61,1.61,0,0,0,35.51,54.47Z"
         id="path160" />
      <polygon
         class="cls-11"
         points="39.18 63.96 32.83 63.96 32.83 66.53 27.22 66.53 27.22 69.11 21.61 69.11 21.61 71.68 16 71.68 16 74.25 10.38 74.25 10.38 76.83 5.6 76.83 5.6 79.92 13.47 79.92 13.47 77.34 19.08 77.34 19.08 74.77 24.69 74.77 24.69 72.19 30.31 72.19 30.31 69.62 35.92 69.62 35.92 67.05 39.18 67.05 39.18 63.96"
         id="polygon162" />
      <text
         class="cls-15"
         transform="translate(3.33 60.3) scale(1 1.05)"
         id="text164">北</text>
      <line
         class="cls-8"
         x1="409.48"
         y1="237.89"
         x2="388.44"
         y2="237.96"
         id="line166" />
      <line
         class="cls-8"
         x1="409.71"
         y1="241.64"
         x2="388.67"
         y2="241.72"
         id="line168" />
      <line
         class="cls-8"
         x1="409.62"
         y1="245.39"
         x2="388.57"
         y2="245.46"
         id="line170" />
      <line
         class="cls-8"
         x1="409.47"
         y1="249.13"
         x2="388.42"
         y2="249.21"
         id="line172" />
      <line
         class="cls-8"
         x1="409.7"
         y1="252.88"
         x2="388.65"
         y2="252.96"
         id="line174" />
      <line
         class="cls-8"
         x1="410.04"
         y1="256.63"
         x2="389"
         y2="256.71"
         id="line176" />
      <line
         class="cls-8"
         x1="410.28"
         y1="260.38"
         x2="389.24"
         y2="260.45"
         id="line178" />
      <line
         class="cls-8"
         x1="409.63"
         y1="264.12"
         x2="388.58"
         y2="264.21"
         id="line180" />
      <line
         class="cls-8"
         x1="388.82"
         y1="267.95"
         x2="409.86"
         y2="267.88"
         id="line182" />
      <path
         class="cls-4"
         d="M349,235.43h36.3a5.69,5.69,0,0,1,5.69,5.69v34.42a5.7,5.7,0,0,1-5.7,5.7H349a5.7,5.7,0,0,1-5.7-5.7V241.12A5.7,5.7,0,0,1,349,235.43Z"
         id="path184" />
      <path
         class="cls-11"
         d="M377.75,242.6a1.72,1.72,0,1,0-1.72-1.72A1.72,1.72,0,0,0,377.75,242.6Z"
         id="path186" />
      <path
         class="cls-11"
         d="M381.15,251.33l-3.29-1.9.3-1.58a9.06,9.06,0,0,0,.18-1.82,9.49,9.49,0,0,0-.4-2.73.26.26,0,0,0-.25-.18h0a6.87,6.87,0,0,0-6.63,6.87c0,.18,0,.36,0,.54l1.44.25v-.11a5,5,0,0,1,1.76-3.83l-.83,15.86h1.84l2-10.1,1.81.85-1.24,4.64,1.31,1.31,2.73-5.86a1.73,1.73,0,0,0,.16-.72A1.69,1.69,0,0,0,381.15,251.33Z"
         id="path188" />
      <polygon
         class="cls-11"
         points="385.06 261.44 378.3 261.44 378.3 264.18 372.32 264.18 372.32 266.92 366.34 266.92 366.34 269.66 360.37 269.66 360.37 272.4 354.39 272.4 354.39 275.14 349.3 275.14 349.3 278.43 357.68 278.43 357.68 275.69 363.65 275.69 363.65 272.95 369.63 272.95 369.63 270.21 375.61 270.21 375.61 267.47 381.58 267.47 381.58 264.73 385.06 264.73 385.06 261.44"
         id="polygon190" />
      <text
         class="cls-16"
         transform="translate(348.65 250.84) scale(1 0.85)"
         id="text192">中</text>
      <text
         class="cls-17"
         transform="translate(348.62 265.04) scale(1 0.85)"
         id="text194">央</text>
      <line
         class="cls-18"
         x1="274.24"
         y1="307.62"
         x2="302.15"
         y2="307.62"
         id="line196" />
      <text
         class="cls-19"
         transform="translate(449.95 268.65)"
         id="text198">B501</text>
      <polyline
         class="cls-14"
         points="58.59 28.67 78.93 75.25 57.52 75.22"
         id="polyline200" />
      <rect
         class="cls-11"
         x="277.77"
         y="253.61"
         width="21.83"
         height="21.88"
         transform="translate(-0.52 0.57) rotate(-0.11)"
         id="rect202" />
      <path
         class="cls-2"
         d="M299.09,254.09l0,20.88-20.84,0,0-20.88,20.84,0m1-1-22.84,0L277.3,276l22.83,0,0-22.88Z"
         id="path204" />
      <path
         class="cls-2"
         d="M288.69,258.31a1.32,1.32,0,1,0-1.32-1.32,1.32,1.32,0,0,0,1.32,1.32"
         id="path206" />
      <path
         class="cls-2"
         d="M290.66,258.88a10.93,10.93,0,0,0-4,0,2.18,2.18,0,0,0-1.77,2.25l.25,4.54h1.07v-4.34h.32v12.1H288l.52-7.5h.26l.53,7.5h1.45V261.33h.33v4.33h1.07l.24-4.54a2.16,2.16,0,0,0-1.77-2.24"
         id="path208" />
      <path
         class="cls-18"
         d="M274.11,223.77l28.67-.08q0-15.37-.1-30.74l70.95.2s3.48-11,6.05-34.4c-46.59-27.39-171.22-60.44-299.48-60l.32-97.19c90.2-.32,173.18,7.41,250,25.93,66.17,16,127.75,39.93,185.4,73.69L481.1,172.05s-9.29-7-27.83-14.89v.89l.12,34.37,71.4-.24L525.54,402l-201,.71q-.09-34.25-.17-68.47l-50.54-.44Q274,278.77,274.11,223.77Z"
         id="path210" />
      <path
         class="cls-6"
         d="M302,333.81l.3-35.11,107.49-.13q.08,17.83.13,35.66Z"
         id="path212" />
      <line
         class="cls-6"
         x1="302.78"
         y1="223.69"
         x2="302.25"
         y2="298.7"
         id="line214" />
      <line
         class="cls-18"
         x1="330.49"
         y1="27.5"
         x2="80.79"
         y2="71.63"
         id="line216" />
      <text
         class="cls-19"
         transform="translate(364.71 90.57)"
         id="text218">B502</text>
    </g>
  </g>
</svg>
