<?xml version="1.0" encoding="UTF-8" standalone="no"?>
<svg
   xmlns:dc="http://purl.org/dc/elements/1.1/"
   xmlns:cc="http://creativecommons.org/ns#"
   xmlns:rdf="http://www.w3.org/1999/02/22-rdf-syntax-ns#"
   xmlns:svg="http://www.w3.org/2000/svg"
   xmlns="http://www.w3.org/2000/svg"
   xmlns:sodipodi="http://sodipodi.sourceforge.net/DTD/sodipodi-0.dtd"
   xmlns:inkscape="http://www.inkscape.org/namespaces/inkscape"
   width="577.90112"
   height="234.70108"
   viewBox="0 0 577.90113 234.70107"
   version="1.1"
   id="svg118"
   sodipodi:docname="C3.svg"
   inkscape:version="0.92.4 (5da689c313, 2019-01-14)">
  <metadata
     id="metadata122">
    <rdf:RDF>
      <cc:Work
         rdf:about="">
        <dc:format>image/svg+xml</dc:format>
        <dc:type
           rdf:resource="http://purl.org/dc/dcmitype/StillImage" />
        <dc:title>C3</dc:title>
      </cc:Work>
    </rdf:RDF>
  </metadata>
  <sodipodi:namedview
     pagecolor="#ffffff"
     bordercolor="#666666"
     borderopacity="1"
     objecttolerance="10"
     gridtolerance="10"
     guidetolerance="10"
     inkscape:pageopacity="0"
     inkscape:pageshadow="2"
     inkscape:window-width="1920"
     inkscape:window-height="1046"
     id="namedview120"
     showgrid="false"
     fit-margin-top="0"
     fit-margin-left="0"
     fit-margin-right="0"
     fit-margin-bottom="0"
     inkscape:zoom="1.7619171"
     inkscape:cx="294.58357"
     inkscape:cy="51.479966"
     inkscape:window-x="2038"
     inkscape:window-y="-11"
     inkscape:window-maximized="1"
     inkscape:current-layer="svg118" />
  <defs
     id="defs4">
    <style
       id="style2">.cls-1,.cls-11{fill:#ffe727;}.cls-1{opacity:0.8;}.cls-2{fill:#595959;}.cls-3{fill:#ebca1a;}.cls-3,.cls-5{opacity:0.5;}.cls-4{fill:#036eb7;}.cls-15,.cls-5{fill:#231815;}.cls-10,.cls-16,.cls-6,.cls-7,.cls-8,.cls-9{fill:none;}.cls-10,.cls-16,.cls-6,.cls-7,.cls-9{stroke:#000;}.cls-6{stroke-width:2px;}.cls-10,.cls-9{stroke-width:0.5px;}.cls-10,.cls-16{stroke-linejoin:bevel;}.cls-12,.cls-13,.cls-14{fill:#3a0216;}.cls-13{font-size:19.44px;letter-spacing:-0.02em;}.cls-13,.cls-14{font-family:AxisStd-Medium-90ms-RKSJ-H, AXIS Std;}.cls-14{font-size:19.81px;letter-spacing:-0.02em;}.cls-15{font-size:18.84px;font-family:MyriadPro-Semibold, Myriad Pro;font-weight:600;}.cls-17{fill:#fff;}</style>
  </defs>
  <title
     id="title6">C3</title>
  <g
     id="レイヤー_2"
     data-name="レイヤー 2"
     transform="translate(-40.59)">
    <g
       id="レイヤー_1-2"
       data-name="レイヤー 1">
      <rect
         class="cls-1"
         x="488.85999"
         y="74.18"
         width="128.63"
         height="118.83"
         id="rect8"
         style="opacity:0.8;fill:#ffe727" />
      <rect
         class="cls-1"
         x="95.379997"
         y="73"
         width="98.540001"
         height="160.59"
         id="rect10"
         style="opacity:0.8;fill:#ffe727" />
      <path
         class="cls-2"
         d="m 391.47,233.51 -197.39,0.13 Q 194,165.42 194,97.18 h 197.36 z"
         id="path12"
         inkscape:connector-curvature="0"
         style="fill:#595959" />
      <path
         class="cls-3"
         d="m 72.58,26 q -0.08,23.61 -0.14,47.23 11.3,-0.11 22.61,-0.18 49.35,-0.3 98.71,0 0.08,12.08 0.14,24.15 h 96.58 q 28.9,-0.09 57.81,-0.09 21.51,0 43,0.07 l 0.09,88.62 h 65.85 q 0,-40.52 0.07,-81 0,-6 0,-12 l 31.4,-0.07 V 74.05 l -31.44,0.25 -236,0.2 q 0,-12.37 -0.1,-24.76 l -94.09,0.13 -0.09,-8.44 -30.93,0.18 q 0,-7.83 0,-15.65 z"
         id="path14"
         inkscape:connector-curvature="0"
         style="opacity:0.5;fill:#ebca1a" />
      <rect
         class="cls-4"
         x="145.71001"
         y="25.639999"
         width="75.129997"
         height="24.24"
         id="rect16"
         style="fill:#036eb7" />
      <path
         class="cls-2"
         d="m 488.73,193 h -31.5 v -6 c 0,-39.17 0.09,-50.23 0,-70 0,-5.41 -0.07,-13.76 -0.17,-24.07 h 31.57 q 0.06,49.97 0.1,100.07 z"
         id="path18"
         inkscape:connector-curvature="0"
         style="fill:#595959" />
      <path
         class="cls-5"
         d="m 145.8,49.74 -18.7,-0.05 c 0,-2.74 0,-5.48 0,-8.22 l -31,-0.08 v -15 h 49.6 z"
         id="path20"
         inkscape:connector-curvature="0"
         style="opacity:0.5;fill:#231815" />
      <path
         class="cls-6"
         d="M 457.08,193 H 617.49 L 617.36,74 221.24,74.43 221.19,25.91 72.36,26.1 v 47.24 h 23 V 233.7 l 296.27,-0.32 v -47.59 h 65.41 z"
         id="path22"
         inkscape:connector-curvature="0"
         style="fill:none;stroke:#000000;stroke-width:2px" />
      <path
         class="cls-7"
         d="m 488.73,74.18 0.13,119 z"
         id="path24"
         inkscape:connector-curvature="0"
         style="fill:none;stroke:#000000" />
      <path
         class="cls-7"
         d="m 457.35,186.1 q 0,-46.75 0,-93.52"
         id="path26"
         inkscape:connector-curvature="0"
         style="fill:none;stroke:#000000" />
      <path
         class="cls-7"
         d="m 423.53,102.71 v 1.59 l 0.09,81.09"
         id="path28"
         inkscape:connector-curvature="0"
         style="fill:none;stroke:#000000" />
      <polyline
         class="cls-8"
         points="391.05 185.03 390.95 97.2 290.47 97.25"
         id="polyline30"
         style="fill:none" />
      <path
         class="cls-7"
         d="M 220.9,49.74 92.12,49.88 v -8.4 h 35 v 8.22"
         id="path32"
         inkscape:connector-curvature="0"
         style="fill:none;stroke:#000000" />
      <line
         class="cls-7"
         x1="145.75"
         y1="26.49"
         x2="145.78"
         y2="49.880001"
         id="line34"
         style="fill:none;stroke:#000000" />
      <path
         class="cls-7"
         d="M 194,233 193.73,73.05 H 95.38"
         id="path36"
         inkscape:connector-curvature="0"
         style="fill:none;stroke:#000000" />
      <path
         class="cls-7"
         d="m 488.52,92.84 h -31.33 l 31.67,100.29"
         id="path38"
         inkscape:connector-curvature="0"
         style="fill:none;stroke:#000000" />
      <line
         class="cls-9"
         x1="457.23999"
         y1="111.13"
         x2="391.23001"
         y2="111.08"
         id="line40"
         style="fill:none;stroke:#000000;stroke-width:0.5px" />
      <line
         class="cls-9"
         x1="457.23999"
         y1="119.06"
         x2="391.60001"
         y2="119.07"
         id="line42"
         style="fill:none;stroke:#000000;stroke-width:0.5px" />
      <line
         class="cls-9"
         x1="457.35999"
         y1="127.86"
         x2="391.16"
         y2="127.94"
         id="line44"
         style="fill:none;stroke:#000000;stroke-width:0.5px" />
      <line
         class="cls-9"
         x1="457.23999"
         y1="136.25"
         x2="391.07999"
         y2="136.32001"
         id="line46"
         style="fill:none;stroke:#000000;stroke-width:0.5px" />
      <line
         class="cls-9"
         x1="457.35999"
         y1="144.7"
         x2="391.26999"
         y2="144.7"
         id="line48"
         style="fill:none;stroke:#000000;stroke-width:0.5px" />
      <line
         class="cls-9"
         x1="457.23999"
         y1="153.34"
         x2="391.28"
         y2="153.41"
         id="line50"
         style="fill:none;stroke:#000000;stroke-width:0.5px" />
      <line
         class="cls-9"
         x1="457.35999"
         y1="161.5"
         x2="391.37"
         y2="161.57001"
         id="line52"
         style="fill:none;stroke:#000000;stroke-width:0.5px" />
      <line
         class="cls-9"
         x1="457.23999"
         y1="169.89999"
         x2="391.47"
         y2="169.97"
         id="line54"
         style="fill:none;stroke:#000000;stroke-width:0.5px" />
      <line
         class="cls-10"
         x1="145.78"
         y1="46.439999"
         x2="127.23"
         y2="46.459999"
         id="line56"
         style="fill:none;stroke:#000000;stroke-width:0.5px;stroke-linejoin:bevel" />
      <line
         class="cls-10"
         x1="127.3"
         y1="26.690001"
         x2="127.31"
         y2="42.259998"
         id="line58"
         style="fill:none;stroke:#000000;stroke-width:0.5px;stroke-linejoin:bevel" />
      <line
         class="cls-10"
         x1="123.1"
         y1="26.52"
         x2="123.11"
         y2="41.560001"
         id="line60"
         style="fill:none;stroke:#000000;stroke-width:0.5px;stroke-linejoin:bevel" />
      <line
         class="cls-10"
         x1="114.7"
         y1="26.35"
         x2="114.71"
         y2="41.400002"
         id="line62"
         style="fill:none;stroke:#000000;stroke-width:0.5px;stroke-linejoin:bevel" />
      <line
         class="cls-10"
         x1="118.9"
         y1="26.35"
         x2="118.91"
         y2="41.389999"
         id="line64"
         style="fill:none;stroke:#000000;stroke-width:0.5px;stroke-linejoin:bevel" />
      <line
         class="cls-9"
         x1="91.970001"
         y1="41.860001"
         x2="91.949997"
         y2="26.809999"
         id="line66"
         style="fill:none;stroke:#000000;stroke-width:0.5px" />
      <line
         class="cls-10"
         x1="96.150002"
         y1="26.370001"
         x2="96.169998"
         y2="41.419998"
         id="line68"
         style="fill:none;stroke:#000000;stroke-width:0.5px;stroke-linejoin:bevel" />
      <line
         class="cls-10"
         x1="91.980003"
         y1="50.259998"
         x2="92"
         y2="73.349998"
         id="line70"
         style="fill:none;stroke:#000000;stroke-width:0.5px;stroke-linejoin:bevel" />
      <line
         class="cls-10"
         x1="95.699997"
         y1="50.25"
         x2="95.730003"
         y2="73.349998"
         id="line72"
         style="fill:none;stroke:#000000;stroke-width:0.5px;stroke-linejoin:bevel" />
      <line
         class="cls-10"
         x1="92.419998"
         y1="50.080002"
         x2="72.290001"
         y2="50.099998"
         id="line74"
         style="fill:none;stroke:#000000;stroke-width:0.5px;stroke-linejoin:bevel" />
      <line
         class="cls-10"
         x1="92.32"
         y1="47.279999"
         x2="72.199997"
         y2="47.299999"
         id="line76"
         style="fill:none;stroke:#000000;stroke-width:0.5px;stroke-linejoin:bevel" />
      <rect
         class="cls-11"
         x="40.59"
         width="48.07"
         height="46.18"
         rx="5.7399998"
         id="rect78"
         y="0"
         style="fill:#ffe727" />
      <path
         class="cls-12"
         d="M 75.28,7.23 A 1.73,1.73 0 1 0 73.55,5.5 1.74,1.74 0 0 0 75.28,7.23 Z"
         id="path80"
         inkscape:connector-curvature="0"
         style="fill:#3a0216" />
      <path
         class="cls-12"
         d="M 78.71,16 75.39,14.08 75.7,12.5 a 9.33,9.33 0 0 0 0.18,-1.84 9.57,9.57 0 0 0 -0.4,-2.75 0.28,0.28 0 0 0 -0.25,-0.19 v 0 a 6.93,6.93 0 0 0 -6.69,6.93 c 0,0.18 0,0.36 0,0.54 L 70,15.45 c 0,0 0,-0.07 0,-0.11 a 5.09,5.09 0 0 1 1.78,-3.87 l -0.84,16 h 1.85 l 2,-10.18 1.83,0.85 -1.26,4.68 1.33,1.33 2.75,-5.91 A 1.77,1.77 0 0 0 79.6,17.51 1.73,1.73 0 0 0 78.71,16 Z"
         id="path82"
         inkscape:connector-curvature="0"
         style="fill:#3a0216" />
      <polygon
         class="cls-12"
         points="69.81,31.75 63.78,31.75 63.78,34.51 57.76,34.51 57.76,37.27 51.73,37.27 51.73,40.03 46.61,40.03 46.61,43.35 55.05,43.35 55.05,40.59 61.08,40.59 61.08,37.83 67.1,37.83 67.1,35.06 73.12,35.06 73.12,32.3 79.15,32.3 79.15,29.54 82.65,29.54 82.65,26.23 75.84,26.23 75.84,28.99 69.81,28.99 "
         id="polygon84"
         style="fill:#3a0216" />
      <text
         class="cls-13"
         transform="matrix(1,0,0,1.05,44.11,22.29)"
         id="text86"
         style="font-size:19.44000053px;font-family:AxisStd-Medium-90ms-RKSJ-H, 'AXIS Std';letter-spacing:-0.02em;fill:#3a0216">西</text>
      <rect
         class="cls-11"
         x="398.92001"
         y="122.91"
         width="48.990002"
         height="47.060001"
         rx="5.8499999"
         id="rect88"
         style="fill:#ffe727" />
      <circle
         class="cls-12"
         cx="434.26999"
         cy="128.50999"
         r="1.76"
         id="circle90"
         style="fill:#3a0216" />
      <path
         class="cls-12"
         d="m 437.76,139.25 -3.38,-2 0.31,-1.61 a 9.64,9.64 0 0 0 0.19,-1.87 10,10 0 0 0 -0.41,-2.81 0.28,0.28 0 0 0 -0.26,-0.19 v 0 a 7.06,7.06 0 0 0 -6.81,7.06 c 0,0.18 0,0.37 0,0.55 l 1.48,0.27 v -0.12 a 5.2,5.2 0 0 1 1.81,-3.94 l -0.86,16.29 h 1.89 l 2,-10.37 1.86,0.87 -1.28,4.77 1.35,1.35 2.8,-6 a 1.72,1.72 0 0 0 0.17,-0.75 1.75,1.75 0 0 0 -0.86,-1.5 z"
         id="path92"
         inkscape:connector-curvature="0"
         style="fill:#3a0216" />
      <polygon
         class="cls-12"
         points="428.69,155.26 422.55,155.26 422.55,158.08 416.41,158.08 416.41,160.89 410.28,160.89 410.28,163.71 405.04,163.71 405.04,167.09 413.65,167.09 413.65,164.27 419.79,164.27 419.79,161.46 425.93,161.46 425.93,158.64 432.07,158.64 432.07,155.83 438.21,155.83 438.21,153.02 441.78,153.02 441.78,149.63 434.83,149.63 434.83,152.45 428.69,152.45 "
         id="polygon94"
         style="fill:#3a0216" />
      <text
         class="cls-14"
         transform="matrix(1,0,0,1.05,402.51,145.63)"
         id="text96"
         style="font-size:19.80999947px;font-family:AxisStd-Medium-90ms-RKSJ-H, 'AXIS Std';letter-spacing:-0.02em;fill:#3a0216">東</text>
      <text
         class="cls-15"
         transform="translate(122.37,158.44)"
         id="text98"
         style="font-weight:600;font-size:18.84000015px;font-family:MyriadPro-Semibold, 'Myriad Pro';fill:#231815">C301</text>
      <polyline
         class="cls-16"
         points="391.37 97.21 194.03 97.21 290.62 233.02 290.47 97.25 391.71 233.38"
         id="polyline100"
         style="fill:none;stroke:#000000;stroke-linejoin:bevel" />
      <line
         class="cls-7"
         x1="391.37"
         y1="96.93"
         x2="391.37"
         y2="185.92999"
         id="line102"
         style="fill:none;stroke:#000000" />
      <text
         id="text104" />
      <rect
         class="cls-17"
         x="172.23"
         y="27.219999"
         width="22.09"
         height="21.65"
         id="rect106"
         style="fill:#ffffff" />
      <path
         class="cls-4"
         d="M 193.82,27.72 V 48.37 H 172.73 V 27.72 h 21.09 m 1,-1 h -23.09 v 22.65 h 23.09 z"
         id="path108"
         inkscape:connector-curvature="0"
         style="fill:#036eb7" />
      <path
         class="cls-4"
         d="m 183.27,31.79 a 1.32,1.32 0 1 0 -1.34,-1.32 1.34,1.34 0 0 0 1.34,1.32"
         id="path110"
         inkscape:connector-curvature="0"
         style="fill:#036eb7" />
      <path
         class="cls-4"
         d="m 185.29,32.37 a 10.78,10.78 0 0 0 -4,0 2.17,2.17 0 0 0 -1.8,2.24 l 0.25,4.56 h 1.08 v -4.35 h 0.34 v 12.12 h 1.47 l 0.54,-7.51 h 0.27 l 0.53,7.51 h 1.48 V 34.82 h 0.33 v 4.35 h 1.09 l 0.25,-4.56 a 2.17,2.17 0 0 0 -1.8,-2.24"
         id="path112"
         inkscape:connector-curvature="0"
         style="fill:#036eb7" />
      <text
         class="cls-15"
         transform="translate(531.83,141.33)"
         id="text114"
         style="font-weight:600;font-size:18.84000015px;font-family:MyriadPro-Semibold, 'Myriad Pro';fill:#231815">C303</text>
    </g>
  </g>
</svg>
