<?xml version="1.0" encoding="UTF-8" standalone="no"?>
<svg
   xmlns:dc="http://purl.org/dc/elements/1.1/"
   xmlns:cc="http://creativecommons.org/ns#"
   xmlns:rdf="http://www.w3.org/1999/02/22-rdf-syntax-ns#"
   xmlns:svg="http://www.w3.org/2000/svg"
   xmlns="http://www.w3.org/2000/svg"
   xmlns:sodipodi="http://sodipodi.sourceforge.net/DTD/sodipodi-0.dtd"
   xmlns:inkscape="http://www.inkscape.org/namespaces/inkscape"
   width="550"
   height="550"
   viewBox="0 0 550.00001 549.99999"
   version="1.1"
   id="svg152"
   sodipodi:docname="plan.svg"
   inkscape:version="0.92.4 (5da689c313, 2019-01-14)">
  <metadata
     id="metadata156">
    <rdf:RDF>
      <cc:Work
         rdf:about="">
        <dc:format>image/svg+xml</dc:format>
        <dc:type
           rdf:resource="http://purl.org/dc/dcmitype/StillImage" />
        <dc:title>plan</dc:title>
      </cc:Work>
    </rdf:RDF>
  </metadata>
  <sodipodi:namedview
     pagecolor="#ffffff"
     bordercolor="#666666"
     borderopacity="1"
     objecttolerance="10"
     gridtolerance="10"
     guidetolerance="10"
     inkscape:pageopacity="0"
     inkscape:pageshadow="2"
     inkscape:window-width="1920"
     inkscape:window-height="1046"
     id="namedview154"
     showgrid="false"
     inkscape:zoom="0.65999149"
     inkscape:cx="158.01438"
     inkscape:cy="280.62907"
     inkscape:window-x="2038"
     inkscape:window-y="-11"
     inkscape:window-maximized="1"
     inkscape:current-layer="svg152" />
  <defs
     id="defs4">
    <style
       id="style2">.cls-1,.cls-42{fill:#dcdddd;}.cls-10,.cls-2,.cls-20,.cls-21,.cls-22,.cls-23,.cls-3,.cls-32,.cls-33,.cls-43,.cls-5,.cls-6,.cls-7,.cls-8,.cls-9{fill:none;}.cls-2{stroke:#bababa;stroke-width:13px;}.cls-2,.cls-20,.cls-3,.cls-32,.cls-33,.cls-42,.cls-43,.cls-5,.cls-6,.cls-7{stroke-linecap:round;}.cls-10,.cls-2,.cls-20,.cls-22,.cls-23,.cls-3,.cls-32,.cls-33,.cls-42,.cls-5,.cls-6,.cls-7,.cls-9{stroke-linejoin:round;}.cls-10,.cls-23,.cls-3,.cls-5,.cls-6{stroke:#fff;}.cls-3,.cls-33{stroke-width:11.4px;}.cls-4{fill:#5f5f5f;}.cls-20,.cls-25,.cls-4{stroke:#595757;}.cls-25,.cls-4{stroke-width:0.75px;}.cls-5,.cls-6{stroke-opacity:0.4;}.cls-5{stroke-width:5px;}.cls-6{stroke-width:3.3px;}.cls-7,.cls-8{stroke:#fa7f70;}.cls-7{stroke-width:1.3px;stroke-dasharray:1 4 2 3;}.cls-43,.cls-8{stroke-width:3px;}.cls-8{stroke-dasharray:2 1;}.cls-43,.cls-9{stroke:#000;}.cls-9{stroke-width:8px;}.cls-10{stroke-width:7px;}.cls-11{fill:#515151;}.cls-12{fill:#545454;}.cls-13{fill:#c68;}.cls-13,.cls-17,.cls-18{stroke:#9fa0a0;}.cls-14,.cls-25{fill:#898989;}.cls-15,.cls-26{font-size:14px;}.cls-15{fill:#fff;}.cls-15,.cls-16,.cls-19,.cls-26,.cls-34,.cls-36{font-family:HiraginoSans-W6, HiraginoSans W6-83pv-RKSJ-H;}.cls-16,.cls-19,.cls-36{font-size:13px;}.cls-16,.cls-26,.cls-34,.cls-36{fill:#f7f8f8;}.cls-17{fill:#a0a0ff;}.cls-18{fill:#ffe727;}.cls-19{fill:#3e3a39;}.cls-20{stroke-width:21px;}.cls-21,.cls-33{stroke:#f7f8f8;}.cls-21,.cls-43{stroke-miterlimit:10;}.cls-21,.cls-23{stroke-width:2px;}.cls-21{stroke-dasharray:12 10 0 0;}.cls-22,.cls-42{stroke:#898989;}.cls-22{stroke-width:4px;}.cls-23{stroke-dasharray:17 16;}.cls-24{fill:#094;}.cls-27{letter-spacing:-0.07em;}.cls-28{letter-spacing:-0.05em;}.cls-29{letter-spacing:-0.1em;}.cls-30{letter-spacing:-0.14em;}.cls-31,.cls-36{letter-spacing:-0.02em;}.cls-32{stroke:#727171;stroke-width:12.4px;}.cls-34{font-size:12px;}.cls-35{letter-spacing:-0.01em;}.cls-37{letter-spacing:-0.05em;}.cls-38{letter-spacing:-0.06em;}.cls-39{letter-spacing:-0.03em;}.cls-40{letter-spacing:-0.15em;}.cls-41{letter-spacing:-0.07em;}.cls-44{fill:#231815;opacity:0.9;}</style>
  </defs>
  <title
     id="title6">plan</title>
  <path
     id="path1048"
     class="cls-1"
     d="m 219.92506,251.60084 -12.54,22 -82.41,31.75 q 32.32,83.45 64.67,166.85 l 6.69,27.11 52.23,-2.71 3.68,-14 6.36,-12.06 84.7,-5.35 q 0.68,-21.6 1.34,-43.19 -5.13,-57.89 -10.25,-115.77 l 80.75,-65.63 3.44,-16.91 -17.14,-155.960003 q -1.59,-6.27 -3.17,-12.549997 l -164.44,23.999997 q -2.15,10 -4.27,20 -1.8,34.800003 -3.59,69.620003 -3.03,41.4 -6.05,82.8 z"
     inkscape:connector-curvature="0"
     style="fill:#dcdddd" />
  <path
     id="path2214"
     class="cls-2"
     d="m 359.74506,-214.89916 19.21,62.81 60.19,236.529997 2.91,28.660003 14.34,129.27 1.06,224.81 0.19,35.87"
     inkscape:connector-curvature="0"
     style="fill:none;stroke:#bababa;stroke-width:13px;stroke-linecap:round;stroke-linejoin:round" />
  <path
     id="path2234"
     class="cls-2"
     d="m 229.06506,73.750837 -3.44,17.65 -12.57,158.530003 -10.57,18.79 -84.86,33.74"
     inkscape:connector-curvature="0"
     style="fill:none;stroke:#bababa;stroke-width:13px;stroke-linecap:round;stroke-linejoin:round" />
  <path
     id="path2222"
     class="cls-2"
     d="m -51.354937,-132.31916 17.29,44.250001 18.79,48 L 3.7750626,8.9308403 17.935063,45.37084 l 4.39,11.76 18.36,49.26 17.46,46.84 37.250001,94.93 22.249996,54.3 28.81,73.42 15,41.13 23.13,56.26 2.72,12.59 4,22.89"
     inkscape:connector-curvature="0"
     style="fill:none;stroke:#bababa;stroke-width:13px;stroke-linecap:round;stroke-linejoin:round" />
  <path
     id="path2488"
     class="cls-3"
     d="m -51.354937,-132.31916 17.29,44.250001 18.79,48 L 3.7750626,8.9308403 17.935063,45.37084 l 4.39,11.76 18.36,49.26 17.46,46.84 37.250001,94.93 22.249996,54.3 28.81,73.42 15,41.13 23.13,56.26 2.72,12.59 4,22.89"
     inkscape:connector-curvature="0"
     style="fill:none;stroke:#ffffff;stroke-width:11.39999962px;stroke-linecap:round;stroke-linejoin:round" />
  <path
     id="path2232"
     class="cls-2"
     d="m 417.69506,241.76084 3.29,-19.11 -19.49,-173.9"
     inkscape:connector-curvature="0"
     style="fill:none;stroke:#bababa;stroke-width:13px;stroke-linecap:round;stroke-linejoin:round" />
  <path
     id="path2256"
     class="cls-2"
     d="m 252.61506,507.74084 4.88,-23.14 4.48,-8.55 84.94,-6.59 2.4,-48.29 -10.89,-113.57 6.32,-6 72.95,-59.87"
     inkscape:connector-curvature="0"
     style="fill:none;stroke:#bababa;stroke-width:13px;stroke-linecap:round;stroke-linejoin:round" />
  <path
     id="path2522"
     class="cls-3"
     d="m 252.61506,507.74084 4.88,-23.14 4.48,-8.55 84.94,-6.59 2.4,-48.29 -10.89,-113.57 6.32,-6 72.95,-59.87"
     inkscape:connector-curvature="0"
     style="fill:none;stroke:#ffffff;stroke-width:11.39999962px;stroke-linecap:round;stroke-linejoin:round" />
  <path
     id="path2202"
     class="cls-2"
     d="m 361.46506,-186.23916 5.57,54 0.59,2.65 8.52,49.630001 5.7,33.26 19.68,95.449999 -90,13.049997 -82.4,11.95"
     inkscape:connector-curvature="0"
     style="fill:none;stroke:#bababa;stroke-width:13px;stroke-linecap:round;stroke-linejoin:round" />
  <path
     id="path1050"
     class="cls-1"
     d="m 51.395063,18.00084 q 3,15.76 6,31.51 3.69,12.209997 7.37,24.409997 l -8.51,13.68 -14.17,5.31 77.649997,203.000003 79.85,-30.94 6.69,-17.75 q 6.06,-69.36 12.11,-138.73 l -45.71,4 -1.26,-25.520003 -37.57,-48.079997 -42.599996,-12.08 -12,-6 q -2.33,-3.93 -4.64,-7.88 z"
     inkscape:connector-curvature="0"
     style="fill:#dcdddd" />
  <path
     id="path1232"
     class="cls-4"
     d="m 132.92506,70.070837 26.22,67.310003 5.28,-2.06 -2.19,-5.59 9,-3.49 -22.89,-58.790003 -7.66,3 -1.15,-2.95 z"
     inkscape:connector-curvature="0"
     style="fill:#5f5f5f;stroke:#595757;stroke-width:0.75px" />
  <path
     id="path2212"
     class="cls-2"
     d="m 144.92506,-66.659159 6.46,15.07 10.84,36.19 57.18,-8.14 20.54,-2.93 58.65,-8.36 83.22,-11.86"
     inkscape:connector-curvature="0"
     style="fill:none;stroke:#bababa;stroke-width:13px;stroke-linecap:round;stroke-linejoin:round" />
  <path
     id="path2236"
     class="cls-2"
     d="m 219.40506,-23.549159 9.66,97.299996"
     inkscape:connector-curvature="0"
     style="fill:none;stroke:#bababa;stroke-width:13px;stroke-linecap:round;stroke-linejoin:round" />
  <path
     id="path2246"
     class="cls-2"
     d="m 311.46506,61.800837 -12.87,-96.639996 -11.36,-85.180001 79.8,-12.2"
     inkscape:connector-curvature="0"
     style="fill:none;stroke:#bababa;stroke-width:13px;stroke-linecap:round;stroke-linejoin:round" />
  <path
     id="path2286"
     class="cls-5"
     d="m 450.05506,483.08084 1.21,-12.08"
     inkscape:connector-curvature="0"
     style="fill:none;stroke:#ffffff;stroke-width:5px;stroke-linecap:round;stroke-linejoin:round;stroke-opacity:0.4" />
  <path
     id="path2310"
     class="cls-6"
     d="m 119.58506,495.34084 4.17,22.4 4,22"
     inkscape:connector-curvature="0"
     style="fill:none;stroke:#ffffff;stroke-width:3.29999995px;stroke-linecap:round;stroke-linejoin:round;stroke-opacity:0.4" />
  <path
     id="path2314"
     class="cls-6"
     d="m 322.67506,485.07084 -1.25,-2.75"
     inkscape:connector-curvature="0"
     style="fill:none;stroke:#ffffff;stroke-width:3.29999995px;stroke-linecap:round;stroke-linejoin:round;stroke-opacity:0.4" />
  <path
     id="path2316"
     class="cls-7"
     d="m 322.67506,485.07084 -1.25,-2.75"
     inkscape:connector-curvature="0"
     style="fill:none;stroke:#fa7f70;stroke-width:1.29999995px;stroke-linecap:round;stroke-linejoin:round;stroke-dasharray:1, 4, 2, 3" />
  <path
     id="path2478"
     class="cls-3"
     d="m 144.92506,-66.659159 6.46,15.07 10.84,36.19 57.18,-8.14 20.54,-2.93 58.65,-8.36 83.22,-11.86"
     inkscape:connector-curvature="0"
     style="fill:none;stroke:#ffffff;stroke-width:11.39999962px;stroke-linecap:round;stroke-linejoin:round" />
  <path
     id="path2498"
     class="cls-3"
     d="m 417.69506,241.76084 3.29,-19.11 -19.49,-173.9"
     inkscape:connector-curvature="0"
     style="fill:none;stroke:#ffffff;stroke-width:11.39999962px;stroke-linecap:round;stroke-linejoin:round" />
  <path
     id="path2500"
     class="cls-3"
     d="m 229.06506,73.750837 -3.44,17.65 -12.57,158.530003 -10.57,18.79 -84.86,33.74"
     inkscape:connector-curvature="0"
     style="fill:none;stroke:#ffffff;stroke-width:11.39999962px;stroke-linecap:round;stroke-linejoin:round" />
  <path
     id="path2502"
     class="cls-3"
     d="m 219.40506,-23.549159 9.66,97.299996"
     inkscape:connector-curvature="0"
     style="fill:none;stroke:#ffffff;stroke-width:11.39999962px;stroke-linecap:round;stroke-linejoin:round" />
  <path
     id="path2512"
     class="cls-3"
     d="m 311.46506,61.800837 -12.87,-96.639996 -11.36,-85.180001 79.8,-12.2"
     inkscape:connector-curvature="0"
     style="fill:none;stroke:#ffffff;stroke-width:11.39999962px;stroke-linecap:round;stroke-linejoin:round" />
  <path
     id="path2640"
     class="cls-5"
     d="m 357.62506,529.14084 9.17,-0.38 2.52,-2.74 18.33,-0.06"
     inkscape:connector-curvature="0"
     style="fill:none;stroke:#ffffff;stroke-width:5px;stroke-linecap:round;stroke-linejoin:round;stroke-opacity:0.4" />
  <path
     id="path2644"
     class="cls-5"
     d="m 322.67506,485.07084 23.27,-0.66"
     inkscape:connector-curvature="0"
     style="fill:none;stroke:#ffffff;stroke-width:5px;stroke-linecap:round;stroke-linejoin:round;stroke-opacity:0.4" />
  <path
     id="path2646"
     class="cls-8"
     d="m 322.67506,485.07084 23.27,-0.66"
     inkscape:connector-curvature="0"
     style="fill:none;stroke:#fa7f70;stroke-width:3px;stroke-dasharray:2, 1" />
  <path
     id="path2652"
     class="cls-9"
     d="m 193.37506,239.42084 43.68,6.57"
     inkscape:connector-curvature="0"
     style="fill:none;stroke:#000000;stroke-width:8px;stroke-linejoin:round" />
  <path
     id="path2656"
     class="cls-10"
     d="m 193.37506,239.42084 43.68,6.57"
     inkscape:connector-curvature="0"
     style="fill:none;stroke:#ffffff;stroke-width:7px;stroke-linejoin:round" />
  <path
     id="path2660"
     class="cls-7"
     d="m 193.37506,239.42084 43.68,6.57"
     inkscape:connector-curvature="0"
     style="fill:none;stroke:#fa7f70;stroke-width:1.29999995px;stroke-linecap:round;stroke-linejoin:round;stroke-dasharray:1, 4, 2, 3" />
  <path
     id="path2858"
     class="cls-11"
     d="m 460.72506,496.87084 a 2.38,2.38 0 0 0 -3.33,1.06 l -3.62,7.27 c -1.46,2.91 3,5.14 4.47,2.23 l 3.63,-7.27 a 2.37,2.37 0 0 0 -1.15,-3.29 z m -0.44,0.89 a 1.5,1.5 0 1 1 -2,0.67 1.5,1.5 0 0 1 2,-0.67 z m -1.79,3.58 a 1.5,1.5 0 1 1 -2,0.67 1.5,1.5 0 0 1 2,-0.67 z m -1.71,3.62 a 1.49,1.49 0 0 1 0.68,2 1.5026393,1.5026393 0 1 1 -2.69,-1.34 1.5,1.5 0 0 1 2,-0.67 z"
     inkscape:connector-curvature="0"
     style="fill:#515151" />
  <path
     id="path3222"
     class="cls-12"
     d="m -20.304937,-54.269159 2.55,6.52 1.86,-0.73 -0.5,5.57 -4.15,-3.75 1.86,-0.73 -2.55,-6.51 z"
     inkscape:connector-curvature="0"
     style="fill:#545454" />
  <path
     id="path3224"
     class="cls-12"
     d="m 44.005063,113.86084 2.44,6.56 1.87,-0.7 -0.59,5.56 -4.09,-3.82 1.87,-0.7 -2.44,-6.55 z"
     inkscape:connector-curvature="0"
     style="fill:#545454" />
  <path
     id="path3226"
     class="cls-12"
     d="m 109.56506,281.46084 2.65,6.48 1.85,-0.76 -0.42,5.58 -4.2,-3.68 1.85,-0.76 -2.66,-6.48 z"
     inkscape:connector-curvature="0"
     style="fill:#545454" />
  <path
     id="path3234"
     class="cls-12"
     d="m 413.28506,158.49084 -0.78,-6.95 -2,0.22 1.92,-5.25 3.05,4.69 -2,0.23 0.78,6.95 z"
     inkscape:connector-curvature="0"
     style="fill:#545454" />
  <path
     id="path3244"
     class="cls-12"
     d="m 408.88506,-36.489159 1.73,6.78 1.94,-0.49 -1.19,5.46 -3.66,-4.23 1.94,-0.49 -1.72,-6.79 z"
     inkscape:connector-curvature="0"
     style="fill:#545454" />
  <path
     id="path3246"
     class="cls-12"
     d="m 445.48506,139.41084 0.77,7 2,-0.22 -1.94,5.25 -3,-4.7 2,-0.22 -0.77,-7 z"
     inkscape:connector-curvature="0"
     style="fill:#545454" />
  <path
     id="path3250"
     class="cls-12"
     d="m 461.14506,586.97084 0.26,7 2,-0.08 -2.31,5.09 -2.68,-4.9 2,-0.07 -0.26,-7 z"
     inkscape:connector-curvature="0"
     style="fill:#545454" />
  <path
     id="path3256"
     class="cls-12"
     d="m 312.46506,471.60084 7,-0.55 -0.16,-2 5.18,2.11 -4.79,2.88 -0.16,-2 -7,0.55 z"
     inkscape:connector-curvature="0"
     style="fill:#545454" />
  <path
     id="path3258"
     class="cls-12"
     d="m 339.55506,324.51084 -0.67,-7 -2,0.19 2,-5.22 3,4.74 -2,0.2 0.66,7 z"
     inkscape:connector-curvature="0"
     style="fill:#545454" />
  <path
     id="path3260"
     class="cls-12"
     d="m 220.90506,157.25084 -0.55,7 2,0.16 -2.88,4.78 -2.1,-5.18 2,0.16 0.56,-7 z"
     inkscape:connector-curvature="0"
     style="fill:#545454" />
  <path
     id="path3262"
     class="cls-12"
     d="m 141.87506,293.36084 -6.51,2.58 0.74,1.86 -5.57,-0.48 3.73,-4.17 0.73,1.86 6.51,-2.58 z"
     inkscape:connector-curvature="0"
     style="fill:#545454" />
  <path
     id="path2468"
     class="cls-3"
     d="m 364.49506,-156.84916 2.54,24.63 0.59,2.65 8.52,49.610001 5.7,33.26 19.68,95.449999 -90,13.049997 -82.4,11.95"
     inkscape:connector-curvature="0"
     style="fill:none;stroke:#ffffff;stroke-width:11.39999962px;stroke-linecap:round;stroke-linejoin:round" />
  <path
     id="path2480"
     class="cls-3"
     d="m 364.14506,-200.39916 14.77,48.3 60.23,236.539997 2.91,28.660003 14.34,129.27 1.06,224.81 0.19,35.87"
     inkscape:connector-curvature="0"
     style="fill:none;stroke:#ffffff;stroke-width:11.39999962px;stroke-linecap:round;stroke-linejoin:round" />
  <path
     id="path3248"
     class="cls-12"
     d="m 457.25506,318.83084 v 7 h 2 l -2.48,5 -2.52,-5 h 2 v -7 z"
     inkscape:connector-curvature="0"
     style="fill:#545454" />
  <rect
     class="cls-13"
     x="228.22505"
     y="336.53079"
     width="13.68"
     height="26.370001"
     id="rect52"
     style="fill:#cc6688;stroke:#9fa0a0" />
  <rect
     class="cls-13"
     x="209.61507"
     y="401.14078"
     width="20.290001"
     height="20.290001"
     id="rect54"
     style="fill:#cc6688;stroke:#9fa0a0" />
  <path
     class="cls-13"
     d="m 229.95506,479.41084 -31.05,0.14 q -0.21,-16.1 -0.41,-32.21 l -13.75,-0.43 q -4.14,-14.05 -8.3,-28.12 l 54,-0.63 z"
     id="path56"
     inkscape:connector-curvature="0"
     style="fill:#cc6688;stroke:#9fa0a0" />
  <path
     class="cls-13"
     d="m 178.45506,406.09084 q -7.09,-22.43 -14.21,-44.83 l 80.06,-0.42 -0.23,45.08 z"
     id="path58"
     inkscape:connector-curvature="0"
     style="fill:#cc6688;stroke:#9fa0a0" />
  <path
     class="cls-13"
     d="m 326.43506,337.03084 -98.21,1.57 h -2.8 v -4.75 l -65.83,1.43 -0.18,-10.13 h -4.65 q 0,-6.15 0,-12.31 l 13,-0.14 -0.06,-4.31 55.23,-1.45 0.27,-13 21.33,3.61 0.4,14.27 80.93,-1.69 z"
     id="path60"
     inkscape:connector-curvature="0"
     style="fill:#cc6688;stroke:#9fa0a0" />
  <path
     class="cls-14"
     d="m 247.46506,342.16084 q 0.36,30.91 0.7,61.83 l -6.3,4.55 -9.17,-0.13 v 58.47 l 104.2,-7.12 q -2.25,-59.42 -4.49,-118.83 z"
     id="path62"
     inkscape:connector-curvature="0"
     style="fill:#898989" />
  <text
     class="cls-15"
     id="text64"
     style="font-size:14px;font-family:HiraginoSans-W6, 'HiraginoSans W6-83pv-RKSJ-H';fill:#ffffff"
     x="268.34509"
     y="405.7908">工事中</text>
  <text
     class="cls-16"
     id="text66"
     style="font-size:13px;font-family:HiraginoSans-W6, 'HiraginoSans W6-83pv-RKSJ-H';fill:#f7f8f8"
     x="218.38506"
     y="327.62082">A会場</text>
  <path
     id="path1128"
     class="cls-17"
     d="m 75.365064,157.39084 q 13.18,33.13 26.389996,66.28 l 6.12,-2.38 q 2.67,6.38 5.32,12.76 l -6.29,2.55 q 8.34,21 16.69,41.9 l 49,-19.51 -1.93,-6 23.78,3.36 a 263.48,263.48 0 0 0 4.29,-31.8 c 0.88,-12.05 1.35,-19.08 -0.16,-28.66 a 107.87,107.87 0 0 0 -6.59,-22.94 147.61,147.61 0 0 0 -11.13,-22.94 l -31,12.87 a 98.86,98.86 0 0 1 8.68,17.28 103.49,103.49 0 0 1 6.36,45.91 l -6,-1.51 -34.51,-86.7 z"
     inkscape:connector-curvature="0"
     style="fill:#a0a0ff;stroke:#9fa0a0" />
  <path
     id="path1168"
     class="cls-18"
     d="m 235.49506,241.66084 -5.48,34.71 57,9 1.06,-6.81 37.27,5.86 3.38,-21.45 -68.64,-10.83 1,-6.42 z"
     inkscape:connector-curvature="0"
     style="fill:#ffe727;stroke:#9fa0a0" />
  <text
     class="cls-16"
     id="text70"
     style="font-size:13px;font-family:HiraginoSans-W6, 'HiraginoSans W6-83pv-RKSJ-H';fill:#f7f8f8"
     x="127.53506"
     y="240.99083">B会場</text>
  <text
     class="cls-19"
     id="text72"
     style="font-size:13px;font-family:HiraginoSans-W6, 'HiraginoSans W6-83pv-RKSJ-H';fill:#3e3a39"
     x="252.61507"
     y="272.87079">C会場</text>
  <path
     id="path2268"
     class="cls-20"
     d="m 572.19506,492.36084 -34.29,3.24 -80.27,7.49 -10.35,0.24 -157.64,3.8 -37,0.61 -61.31,1 -67.55,9 -18.28,2.74 -111.0999974,17.35"
     inkscape:connector-curvature="0"
     style="fill:none;stroke:#595757;stroke-width:21px;stroke-linecap:round;stroke-linejoin:round" />
  <path
     id="path2534"
     class="cls-21"
     d="m 572.19506,492.36084 -34.29,3.24 -80.27,7.49 -10.35,0.24 -157.64,3.8 -37,0.61 -61.31,1 -67.55,9 -18.28,2.74 -111.0999974,17.35"
     inkscape:connector-curvature="0"
     style="fill:none;stroke:#f7f8f8;stroke-width:2px;stroke-miterlimit:10;stroke-dasharray:12, 10, 0, 0" />
  <path
     id="path2616"
     class="cls-22"
     d="m 462.14506,-52.289159 0.63,3.12 13.75,75.399999 12.49,74.11 13.28,96.59 6.14,59.41 20.57,252.26 2.86,35.13 6.1,119.11 0.78,124.46"
     inkscape:connector-curvature="0"
     style="fill:none;stroke:#898989;stroke-width:4px;stroke-linejoin:round" />
  <path
     id="path2618"
     class="cls-23"
     d="m 462.77506,-49.169159 13.75,75.399999 12.49,74.11 13.28,96.59 6.14,59.41 20.57,252.26 2.86,35.13 6.1,119.11 0.78,124.46"
     inkscape:connector-curvature="0"
     style="fill:none;stroke:#ffffff;stroke-width:2px;stroke-linejoin:round;stroke-dasharray:17, 16" />
  <path
     id="path1050-2"
     data-name="path1050"
     class="cls-24"
     d="m 68.235063,77.660837 q -4.09,6.56 -8.21,13.11 l -7,2.61 q 11.4,29.500003 22.820001,59.000003 l 50.669996,-20.32 23.42,-8.78 -21.37,-55.560003 17.1,-6.71 -14.62,-19.529997 -19.9,-5.41 -50.049997,16.22 q 3.55,12.689997 7.14,25.369997 z"
     inkscape:connector-curvature="0"
     style="fill:#009944" />
  <path
     class="cls-24"
     d="m 237.55506,82.170837 -13,136.000003 10.92,21.09 29.2,4.44 c -0.13,2.16 -0.27,4.32 -0.4,6.49 l 106,15.31 38.14,-29.52 2.1,-14.46 -18.37,-160.710003 z"
     id="path79"
     inkscape:connector-curvature="0"
     style="fill:#009944" />
  <path
     id="path1296"
     class="cls-25"
     d="m 359.40506,247.73084 10.74,14.8 36.42,-26.93 -10.74,-14.79 z"
     inkscape:connector-curvature="0"
     style="fill:#898989;stroke:#595757;stroke-width:0.75px" />
  <text
     class="cls-26"
     id="text92"
     style="font-size:14px;font-family:HiraginoSans-W6, 'HiraginoSans W6-83pv-RKSJ-H';fill:#f7f8f8"
     x="272.77509"
     y="167.17084">第<tspan
   class="cls-27"
   x="286.77509"
   y="167.17084"
   id="tspan82"
   style="letter-spacing:-0.07em">２</tspan>
<tspan
   class="cls-28"
   x="299.79507"
   y="167.17084"
   id="tspan84"
   style="letter-spacing:-0.05em">グ</tspan>
<tspan
   class="cls-29"
   x="313.09509"
   y="167.17084"
   id="tspan86"
   style="letter-spacing:-0.1em">ラウ</tspan>
<tspan
   class="cls-30"
   x="338.29507"
   y="167.17084"
   id="tspan88"
   style="letter-spacing:-0.14em">ン</tspan>
<tspan
   class="cls-31"
   x="350.33508"
   y="167.17084"
   id="tspan90"
   style="letter-spacing:-0.02em">ド</tspan>
</text>
  <path
     id="path2522-2"
     data-name="path2522"
     class="cls-32"
     d="m -17.074937,521.31084 108.540001,-17.55 95.239996,-13.38 80.92,-0.58 176.86,-4"
     inkscape:connector-curvature="0"
     style="fill:none;stroke:#727171;stroke-width:12.39999962px;stroke-linecap:round;stroke-linejoin:round" />
  <path
     id="path2522-3"
     data-name="path2522"
     class="cls-33"
     d="m -17.074937,521.31084 108.540001,-17.55 95.239996,-13.38 80.92,-0.58 176.86,-4"
     inkscape:connector-curvature="0"
     style="fill:none;stroke:#f7f8f8;stroke-width:11.39999962px;stroke-linecap:round;stroke-linejoin:round" />
  <path
     id="path2668"
     class="cls-9"
     d="m 346.91506,469.44084 -1,15 0.68,45.06 11,-0.32"
     inkscape:connector-curvature="0"
     style="fill:none;stroke:#000000;stroke-width:8px;stroke-linejoin:round" />
  <path
     id="path2684"
     class="cls-10"
     d="m 346.91506,469.44084 -1,15 0.68,45.06 11,-0.32"
     inkscape:connector-curvature="0"
     style="fill:none;stroke:#ffffff;stroke-width:7px;stroke-linejoin:round" />
  <text
     class="cls-34"
     id="text102"
     style="font-size:12px;font-family:HiraginoSans-W6, 'HiraginoSans W6-83pv-RKSJ-H';fill:#f7f8f8"
     x="198.61507"
     y="432.3508">本館<tspan
   class="cls-35"
   x="192.73506"
   y="445.3508"
   id="tspan98"
   style="letter-spacing:-0.01em">ホー</tspan>
<tspan
   x="216.49507"
   y="445.3508"
   id="tspan100">ル</tspan>
</text>
  <text
     class="cls-36"
     id="text114"
     style="font-size:13px;font-family:HiraginoSans-W6, 'HiraginoSans W6-83pv-RKSJ-H';letter-spacing:-0.02em;fill:#f7f8f8"
     x="63.745064"
     y="104.85084">テ<tspan
   class="cls-37"
   x="76.485062"
   y="104.85084"
   id="tspan104"
   style="letter-spacing:-0.05em">ニ</tspan>
<tspan
   class="cls-38"
   x="88.835068"
   y="104.85084"
   id="tspan106"
   style="letter-spacing:-0.06em">ス</tspan>
<tspan
   class="cls-39"
   x="101.05507"
   y="104.85084"
   id="tspan108"
   style="letter-spacing:-0.03em">コ</tspan>
<tspan
   class="cls-40"
   x="113.66507"
   y="104.85084"
   id="tspan110"
   style="letter-spacing:-0.15000001em">ー</tspan>
<tspan
   class="cls-41"
   x="124.71508"
   y="104.85084"
   id="tspan112"
   style="letter-spacing:-0.07em">ト</tspan>
</text>
  <rect
     class="cls-13"
     x="-49.198631"
     y="452.31631"
     width="43.740002"
     height="30.92"
     transform="rotate(-20.69)"
     id="rect116"
     style="fill:#cc6688;stroke:#9fa0a0" />
  <text
     class="cls-34"
     id="text118"
     style="font-size:12px;font-family:HiraginoSans-W6, 'HiraginoSans W6-83pv-RKSJ-H';fill:#f7f8f8"
     x="122.22507"
     y="451.67081">柔道場</text>
  <path
     id="path2522-4"
     data-name="path2522"
     class="cls-32"
     d="m -11.394937,557.60084 108.540001,-17.58 95.239996,-13.37 q 40.47,-0.19 80.92,-0.59 98.22,-1 196.42,-3.1"
     inkscape:connector-curvature="0"
     style="fill:none;stroke:#727171;stroke-width:12.39999962px;stroke-linecap:round;stroke-linejoin:round" />
  <path
     id="path2522-5"
     data-name="path2522"
     class="cls-33"
     d="m -11.394937,557.60084 108.540001,-17.58 95.239996,-13.37 q 40.47,-0.19 80.92,-0.59 98.22,-1 196.42,-3.1"
     inkscape:connector-curvature="0"
     style="fill:none;stroke:#f7f8f8;stroke-width:11.39999962px;stroke-linecap:round;stroke-linejoin:round" />
  <path
     id="path2102"
     class="cls-42"
     d="m 467.41506,335.38084 0.5,214.26 5.6,83 6,36.33 12.11,85.08 16.7,-1.48 -12.35,-120.79 -14.83,-297.58 z"
     inkscape:connector-curvature="0"
     style="fill:#dcdddd;stroke:#898989;stroke-linecap:round;stroke-linejoin:round" />
  <path
     id="path2104"
     class="cls-42"
     d="m 497.08506,330.60084 14.43,299.4 10.54,120.72 14.93,-1.46 -6.84,-191.66 -19.12,-227 z"
     inkscape:connector-curvature="0"
     style="fill:#dcdddd;stroke:#898989;stroke-linecap:round;stroke-linejoin:round" />
  <path
     id="path2596"
     class="cls-22"
     d="m 511.52506,772.52084 -18.64,-225.58 -1.42,-37.34 -9.62,-251.83 -4.34,-58.08 -11.36,-95.88 -11,-73.51 -14.74,-75.499999 -0.86,-4"
     inkscape:connector-curvature="0"
     style="fill:none;stroke:#898989;stroke-width:4px;stroke-linejoin:round" />
  <path
     id="path2598"
     class="cls-23"
     d="m 511.52506,772.52084 -18.64,-225.58 -1.42,-37.34 -9.62,-251.83 -4.34,-58.08 -11.36,-95.88 -11,-73.51 -14.74,-75.499999"
     inkscape:connector-curvature="0"
     style="fill:none;stroke:#ffffff;stroke-width:2px;stroke-linejoin:round;stroke-dasharray:17, 16" />
  <path
     class="cls-22"
     d="m 452.86506,-50.169159 0.6,3.42 13.14,75.349999 9.28,73 10.26,98.52 3.38,58.08 13.48,251.19 6.58,122.56 10.71,138.1"
     id="path126"
     inkscape:connector-curvature="0"
     style="fill:none;stroke:#898989;stroke-width:4px;stroke-linejoin:round" />
  <path
     class="cls-23"
     d="m 453.46506,-46.749159 13.14,75.349999 9.28,73 10.26,98.52 3.38,58.08 13.48,251.19 6.58,122.56 12.25,158"
     id="path128"
     inkscape:connector-curvature="0"
     style="fill:none;stroke:#ffffff;stroke-width:2px;stroke-linejoin:round;stroke-dasharray:17, 16" />
  <path
     id="path2628"
     class="cls-22"
     d="m 491.37506,775.95084 -8.77,-63.77 -11.27,-78.78 -5.73,-84.46 -0.33,-37 -2.13,-228.21 0.55,-82.47 -7.75,-96.55 -10.2,-71.74 -14.11,-75.999999 -0.49,-2.17"
     inkscape:connector-curvature="0"
     style="fill:none;stroke:#898989;stroke-width:4px;stroke-linejoin:round" />
  <path
     id="path2630"
     class="cls-23"
     d="m 491.37506,775.95084 -8.77,-63.77 -11.27,-78.78 -5.73,-84.46 -0.33,-37 -2.13,-228.21 0.55,-82.47 -7.75,-96.55 -10.2,-71.74 -14.11,-75.999999"
     inkscape:connector-curvature="0"
     style="fill:none;stroke:#ffffff;stroke-width:2px;stroke-linejoin:round;stroke-dasharray:17, 16" />
  <line
     class="cls-43"
     x1="162.08507"
     y1="401.14078"
     x2="168.68506"
     y2="418.1608"
     id="line132"
     style="fill:none;stroke:#000000;stroke-width:3px;stroke-linecap:round;stroke-miterlimit:10" />
  <rect
     class="cls-44"
     x="166.50507"
     y="272.34079"
     width="30.82"
     height="16"
     rx="2.55"
     id="rect134"
     style="opacity:0.9;fill:#231815" />
  <text
     class="cls-34"
     id="text136"
     style="font-size:12px;font-family:HiraginoSans-W6, 'HiraginoSans W6-83pv-RKSJ-H';fill:#f7f8f8"
     x="169.58507"
     y="284.71078">西門</text>
  <rect
     class="cls-44"
     x="129.53506"
     y="405.51077"
     width="30.82"
     height="16"
     rx="2.55"
     id="rect138"
     style="opacity:0.9;fill:#231815" />
  <text
     class="cls-34"
     id="text140"
     style="font-size:12px;font-family:HiraginoSans-W6, 'HiraginoSans W6-83pv-RKSJ-H';fill:#f7f8f8"
     x="132.62506"
     y="417.87082">西門</text>
  <line
     class="cls-43"
     x1="164.24507"
     y1="290.3508"
     x2="148.56506"
     y2="296.81082"
     id="line142"
     style="fill:none;stroke:#000000;stroke-width:3px;stroke-linecap:round;stroke-miterlimit:10" />
  <line
     class="cls-43"
     x1="159.81506"
     y1="279.5708"
     x2="144.12506"
     y2="286.03079"
     id="line144"
     style="fill:none;stroke:#000000;stroke-width:3px;stroke-linecap:round;stroke-miterlimit:10" />
  <line
     class="cls-43"
     x1="229.06508"
     y1="125.01083"
     x2="227.04506"
     y2="148.04085"
     id="line146"
     style="fill:none;stroke:#000000;stroke-width:3px;stroke-linecap:round;stroke-miterlimit:10" />
  <line
     class="cls-43"
     x1="217.06508"
     y1="123.96082"
     x2="215.04506"
     y2="146.98085"
     id="line148"
     style="fill:none;stroke:#000000;stroke-width:3px;stroke-linecap:round;stroke-miterlimit:10" />
</svg>
