<svg xmlns="http://www.w3.org/2000/svg" viewBox="0 0 1050.33 501.5"><defs><style>.cls-1{fill:#0096ae;}.cls-2{fill:#fff;}.cls-3{fill:#efede1;}</style></defs><title>アクセスnew_1</title><g id="レイヤー_2" data-name="レイヤー 2"><g id="レイヤー_2-2" data-name="レイヤー 2"><rect class="cls-1" x="0.35" y="1.5" width="1049.99" height="500"/><path class="cls-2" d="M601.72,123.79c-1.64,9.65-10.29,26.13-28.13,33.6-3.28,1.36-4.74-1.91-1.73-3.83,14.84-9.37,22.4-23.49,22.4-30,0-3.1-4.1-3.73-4.1-5.37,0-1.37,2.18-2.64,4.28-2.64a12.2,12.2,0,0,1,7.19,2.82,57.59,57.59,0,0,0,12.38-11c1.55-1.82,1.46-2.37-.63-2.37-2.37,0-16.94,2.73-23.13,4-8.74,1.82-13.48,3.46-16.57,3.46-3.46,0-8.1-4.74-8.38-9.83a1.68,1.68,0,0,1,2.73-1.37c2.92,1.91,4.1,3.55,7.47,3.55,4.1,0,29.14-3.46,34-4.19,4.1-.63,6.1-2,8.38-2,3.37,0,9.19,5.19,9.19,8.1,0,2.28-4.09,3.1-6.83,5.1a126.42,126.42,0,0,1-18.3,11.38Z"/><path class="cls-2" d="M711.7,108c0,2-2.55,2.91-3.64,6-6,16.93-16.66,35.05-37.6,43.43-3.46,1.36-4.92-1.73-1.55-3.55,16.85-9.38,28.5-26.32,32.32-44,.28-1.46-.18-1.82-1.36-1.64-5,.73-11.47,3.19-14.48,3.19-1.27,0-2.64-.82-4.19-2.1-2.73,10.84-10.1,24.86-17.57,32.14-2.28,2.19-4.83.28-3.28-2.18,7-11.11,12.84-22.13,13.57-31.69.36-4.82,0-5.46-3-8.46-1.73-1.73-2.36-2.37-2.36-3.19s1.09-1.55,2.82-1.55c3.46,0,10.93,3.64,10.93,7.1a21.9,21.9,0,0,1-.28,3.28c4.46.64,8.38.09,14.93-.91,2.37-.36,4.28-2.27,6.38-2.27C706.51,101.58,711.7,106.13,711.7,108Z"/><path class="cls-2" d="M806.21,147.65c0,3.73-9.38,5.37-21,5.37-13.3,0-17.12-3.55-17.49-12.93-.18-4.19,0-10.2.28-16.21-2.37.91-5.47,2.1-8.29,3.28-3.91,1.64-6.92,3-8.92,3-3.46,0-7.38-3.91-8.56-8.1-.45-1.64.64-2.55,2.09-1.91,2.83,1.27,5.19,2.09,7.47,2.09,2.82,0,10.65-2.18,16.39-3.91.18-5.56.36-10.47.18-12.84-.18-2.09-.64-2.73-3.28-4.28-2.27-1.37-3.18-1.73-3.18-2.82s2.55-1.91,5-1.91c3.74,0,9.84,2.73,9.84,4.82,0,1.64-.91,2.64-1.46,7.2-.27,2.09-.55,4.82-.82,7.92,6.47-1.92,12.84-3.74,16.39-4.74,2.19-.64,3.19-2.37,5.46-2.37,4.28,0,9.75,4.56,9.75,7.65,0,2.1-2.83,2.37-4.92,4.46-3.1,3.1-8.65,9.2-13.48,12.2-2.18,1.37-3.55-.54-1.91-2.45a81.6,81.6,0,0,0,8.56-12.39c1.28-2.36.55-3.27-2-2.64-3.46.91-11.75,3.19-18.3,5.47-.46,5.91-.82,12.2-.73,16.93.09,5.37,1.64,7.92,8.74,7.92,7.83,0,15.39-2.46,19.21-2.37C803.84,144.19,806.21,145.73,806.21,147.65Z"/><path class="cls-2" d="M854.91,107.77c5.19,0,16.85-3,20.49-4.19,2.55-.82,3.28-1.73,5.19-1.73,3.28,0,9.1,4,9.1,7.28,0,2.19-2.82,2.92-4.64,5.74-8,12.47-21.67,27.86-44.16,36.42-3.09,1.18-4.55-2.73-1.64-4.1,18.58-8.74,33.6-24.31,39.43-35.87,1.91-3.83,1.09-3.83-1.64-3.19-3.19.73-18.76,7-23,7-3,0-7.55-3.73-8.46-8.38-.46-2.36,1-3.09,2.73-2C851.27,106.67,852.73,107.77,854.91,107.77Zm44.62,38.51a3.58,3.58,0,0,1-3.83,3.64c-3.09,0-4.18-3.28-6.82-6.46a58.92,58.92,0,0,0-8.65-8.47c-2-1.64-.46-3.64,1.91-3.19C891,133.53,899.8,139,899.53,146.28Z"/><path class="cls-2" d="M816.56,229.59c-4.56-7.81-12.85-14.91-25.6-20s-30-8.2-53.23-8.2c-30.91,0-51.37,5.55-64.52,13.89a42.74,42.74,0,0,0-14.32,14.28,31,31,0,0,0-4.37,15.71V354.73a31.83,31.83,0,0,0,31.84,31.84h9.37l-22,30.93h17.6l5.29-8.56h82.25l5.29,8.56h17.61l-22-30.93h9.37a31.85,31.85,0,0,0,31.85-31.84V245.3A31.08,31.08,0,0,0,816.56,229.59ZM701.69,400.68l5.4-8.74h61.27l5.4,8.74Zm109-45.95a21.66,21.66,0,0,1-21.65,21.65H686.36a21.68,21.68,0,0,1-21.65-21.65V245.3a20.71,20.71,0,0,1,3-10.56c3.2-5.47,9.39-11.19,20.56-15.64s27.2-7.49,49.47-7.48c29.7,0,48.31,5.44,59,12.3a32.47,32.47,0,0,1,11,10.82,20.72,20.72,0,0,1,3,10.57V354.73Z"/><path class="cls-2" d="M709.42,244.26H766a6.82,6.82,0,1,0,0-13.63H709.42a6.82,6.82,0,1,0,0,13.63Z"/><circle class="cls-2" cx="697.22" cy="349.69" r="8.5"/><circle class="cls-2" cx="778.24" cy="349.69" r="8.5"/><rect class="cls-2" x="685.4" y="266.27" width="45.36" height="41.49"/><rect class="cls-2" x="742.66" y="266.27" width="47.39" height="41.49"/><rect class="cls-3" width="83.58" height="83.58"/><rect class="cls-3" x="83.58" y="83.58" width="83.58" height="83.58"/><rect class="cls-3" x="167.17" width="83.58" height="83.58"/><rect class="cls-3" x="167.17" y="167.17" width="83.58" height="83.58"/><rect class="cls-3" x="83.58" y="250.75" width="83.58" height="83.58"/><rect class="cls-3" y="334.33" width="83.58" height="83.58"/><rect class="cls-3" x="167.17" y="334.33" width="83.58" height="83.58"/><rect class="cls-3" x="250.75" y="83.58" width="83.58" height="83.58"/><rect class="cls-3" x="83.58" y="417.92" width="83.58" height="83.58"/><rect class="cls-3" x="250.75" y="250.75" width="83.58" height="83.58"/></g></g></svg>