<svg xmlns="http://www.w3.org/2000/svg" viewBox="0 0 1050.33 501.5"><defs><style>.cls-1{fill:#0096ae;}.cls-2{fill:#fff;}.cls-3{fill:#efede1;}</style></defs><title>featuring</title><g id="レイヤー_2" data-name="レイヤー 2"><g id="レイヤー_2-2" data-name="レイヤー 2"><rect class="cls-1" x="0.35" y="0.5" width="1049.99" height="500"/><path class="cls-2" d="M569.64,141.52c8.09,6.39,18.69,10.11,31.4,10.92,2.75.16,2.43,1.78.32,2.67a7.6,7.6,0,0,0-3.72,2.67c-.65,1.22-1.21,2-4,1.62-11.32-1.86-20.87-6.64-28.16-13.92-8.9,7.61-21.92,12.87-35.19,14.81-2.35.4-2.92-2.27-.65-2.91,13.19-3.4,24.76-8.82,32.37-15.86-5.75-7.12-9.63-16.19-11.41-26.87l-.81,1c-1.62,2.19-3.64,6.07-4.37,7s-1.62,1.06-2.27.17c-.81-1-2.59-2.92-3.4-3.89s-.56-1.45.65-2.18a48.88,48.88,0,0,0,7.2-5.34,27.78,27.78,0,0,0,3.48-4.7c.65-1,1.22-1.13,2.67,0s1.54,1.54.65,2.92c-.32.48-.81,1.13-1.38,1.86,1.86,10.92,6.15,19.66,12.46,26.21,6.24-7.52,10.61-16.67,11.82-30.1.08-.89.57-1,1.29-1,3.48.41,8.82,2.59,8.82,4.37,0,.89-.89,1.7-4.29,1.62-2.26,11.81-6.63,20.8-13.27,28.48Zm-38.92-35.93c-1.05,0-1.78-.32-1.78-1.62s.73-1.62,1.78-1.62h31.4a115.83,115.83,0,0,0-.41-13.75,1,1,0,0,1,1.13-1.22c1.38,0,9.63.25,9.63,2.43,0,1.7-1.78,2.35-4.28,2.91v9.63h20.14c1.78-2.67,4.21-5.82,5.51-5.82,1.69,0,7.84,5,7.84,7.12,0,1.13-1.45,1.94-4.69,1.94Z"/><path class="cls-2" d="M636.48,92.16c0,1.37-1.54,1.86-3.89,1.45a114.77,114.77,0,0,1-6.79,13.92c1.78.81,3.48,1.86,3.48,2.75-.08,1.14-1.46,1.7-3.24,2-.24,4.12-.32,17.8-.32,20.39,0,2.26.16,22.25.16,24.92,0,1.78-1.22,2.75-3.72,2.75a2.07,2.07,0,0,1-2.27-2.35c0-5.18.49-28.8.16-41.67a76.51,76.51,0,0,1-10.68,11.82c-1.7,1.69-3.64.16-2.1-1.87,9.06-11.41,16.75-24.76,19.34-37.78.16-.89.48-1.3,1.37-1.22C631.06,87.79,636.48,90.38,636.48,92.16Zm13.75,55c0,4.61.89,5.34,13.6,5.34,10.92,0,12.78-1.21,13.67-3.48.73-2.1,1.54-5.74,2-7.28.4-1.94,2-1.7,2.18.08.08,1.38.08,4.45.16,6.64.16,2.67,1.78,2.58,1.78,4.53s-3,5.09-19.58,5.09c-17.07,0-19.58-2.18-19.58-9.54,0-3.48.73-49.2-.57-58.1-.16-1.22.08-1.54,1.54-1.54,5.82,0,9.22.73,9.3,2.59,0,1.62-2.26,2.51-4.2,2.75-.17,2.27-.17,17-.25,30.43,8.34-5.75,15.38-12.3,21-20.8.57-.65,1-1.13,1.94-.65,3.08,1.54,7,5.26,6.56,7-.33,1.3-1.94,1.3-4.13.24-5.34,6-14.4,12.55-25.33,18.13Z"/><path class="cls-2" d="M721.36,95.15c1.21-1.46,2.75-2.83,3.56-2.83,1.37,0,6,4.29,6,6.15,0,1-1.38,1.7-3.64,2.1-4.78,13.43-14.41,26.22-35.53,34.31-2.26.89-3.31-1.62-1.13-2.83,17.72-8.58,26.86-19.74,30.91-33.66H709.63c-3.89,6.23-9.88,14-17.72,19.26-2,1.37-3.57-.41-1.79-2.19,9.15-9.06,15.62-19.26,17.81-27.59.24-1,.73-1.13,1.62-1,2.75.48,7.12,2.18,7.12,3.64,0,1.13-1.06,1.62-3.48,1.62-.49.89-1,1.86-1.62,3Zm-8.5,51.95c-3.64,3.56-8.9,7.93-15.21,10-2,.89-3.16-.73-1.62-2.26,5.26-3.81,10.12-8.34,13-13.76.4-.73,1-1.13,1.7-.73,2.51,1.3,6.55,4.7,6.23,6.15C716.75,147.67,715.21,147.83,712.86,147.1ZM702.1,110.77c3.56.65,7.2,2,7.61,5a3,3,0,0,1-2.75,3.64c-1.78.24-2.59-1.38-3.73-3-.72-1.05-1.7-2.1-2.59-3.15C699.51,112,700,110.44,702.1,110.77Zm30.34,24.76a4.55,4.55,0,0,1-2.42,1.29l-.08,17.89c0,4.2-2.59,5.66-5.51,5.66-2.75,0-1.86-2.67-6.79-3.88-1.86-.57-1.54-2.84.08-2.75,1.29.08,4,.4,4.85.32,1.54,0,1.86-.65,1.94-2.27.09-3.4,0-11.65-.24-16.26h-21.6c-1,0-1.78-.32-1.78-1.62s.73-1.62,1.78-1.62h40.46c1.61-2.26,3.64-4.85,4.77-4.85,1.46,0,7,4.53,7,6.39,0,1-1.22,1.7-4.21,1.7Zm-25.32-29.7c-1.3-1.13-1-2.75,1.13-2.59,3.56.25,7.12,1.05,7.93,4a3.07,3.07,0,0,1-2.35,3.8c-1.7.49-2.67-1.05-3.88-2.43C709.06,107.69,708.09,106.72,707.12,105.83ZM717.39,124c-1,0-1.78-.33-1.78-1.62s.73-1.62,1.78-1.62h13.76c1.54-2.26,3.56-4.77,4.61-4.77,1.46,0,6.88,4.45,7,6.31,0,1.13-1.46,1.7-4.21,1.7Zm36.25-28.4c1.22-1.3,2.43-2.43,3.16-2.43,1.54,0,6.15,5,6.15,6.88,0,.89-1.86,1.61-3.32,1.7-2.75,3.88-6.39,8.9-11.57,12.94A41.11,41.11,0,0,0,765,124.77c2,.81,1.86,1.86-.16,2.51a6.69,6.69,0,0,0-3.07,2.34c-.89,1.13-1.78,1.7-4,.49-14.4-7.61-23.06-21.77-26-41a1.51,1.51,0,1,1,3-.48c2.59,9.3,5.75,17.07,10.76,23.22a50.23,50.23,0,0,0,7.93-13.11H739.89c-1,0-1.78-.32-1.78-1.62s.73-1.61,1.78-1.61Zm1.62,54.61c.65,2.27-.16,4.29-2.42,4.94s-3.89-1.54-6.48-4.45a57.84,57.84,0,0,0-6.07-5.83c-1.45-1.29-1-3.15,1.3-2.91C747.25,142.65,754,145.89,755.26,150.17Z"/><path class="cls-2" d="M791.67,125.17c3.65-1,7-2,10.12-3.07,3.32-.89,4.21,1.21,1.05,2.75a107.51,107.51,0,0,1-11.08,5c.08,9.71.24,25,.24,27.6,0,1.86-1.13,2.83-3.8,2.83a2.24,2.24,0,0,1-2.51-2.43c0-2.75.48-16.75.64-26.05-3.07,1.13-6.31,2.1-9.54,3.07-.41,2-1.14,4-2.51,4-1.7-.08-3.08-3.81-3.72-8.1a1.1,1.1,0,0,1,1-1.21c5.5-1,10.43-2,15-3.07v-1.62c0-1.62.08-7.37,0-14h-7.12a46.63,46.63,0,0,1-5.75,12.46c-1.29,1.94-3.32,1.13-2.67-1.21,3.56-9.79,4.94-19.5,3.8-26.87-.16-.81.33-1.29,1.14-1.37,3.07-.08,9.06,1.45,9.3,3.23.24,1.22-1,1.86-3.4,2.11a81.41,81.41,0,0,1-1.53,8.41h6.23c-.17-7.12-.41-14.48-1.14-18.37-.16-.72.33-1.13,1.06-1.13,5.42,0,9.62.49,9.62,2.51,0,1.38-1.69,2.26-4.2,2.83-.08,2.59-.08,8.34-.17,14.16h1.22c1.46-2.43,3.32-5,4.37-5,1.62,0,6,4.77,6,6.47,0,1.21-1.7,1.78-3.24,1.78h-8.34v14.32Zm11.09-21c-1,0-1.78-.32-1.78-1.61s.73-1.62,1.78-1.62H816.6c-.08-4.86-.25-9.31-.49-11.74-.08-.72.41-1.13,1.13-1.13,1.38,0,9.23.24,9.23,2.35,0,1.7-1.78,2.34-4.29,2.91V101h8.09c1.7-2.51,3.89-5.51,5.18-5.51,1.62,0,7.2,4.94,7.2,6.88,0,1.14-1.62,1.86-4.2,1.86H822.18v10.6h11.17c1.7-2.5,3.8-5.42,5.1-5.42,1.61,0,7.2,4.86,7.2,6.8,0,1.21-1.46,1.86-4.29,1.86H798c-1.06,0-1.78-.32-1.78-1.62s.72-1.62,1.78-1.62H816.6c.08-3.07.08-6.87.08-10.6Zm32,25c1.54-2.35,3.4-4.86,4.45-4.86,1.54,0,6.4,4.61,6.4,6.39,0,1.14-1.38,1.7-3.65,1.7h-9.54v21.37a5.64,5.64,0,0,1-6,6c-2.51,0-2.11-2.34-7.2-4.2-2-.65-1.54-2.76.08-2.67s4.12.4,5.1.4c1.61,0,2.5-.65,2.58-2.43.17-3.23.17-7.2.17-11.57,0-1.37-.08-4-.17-6.88H798.39c-1,0-1.78-.32-1.78-1.62s.73-1.61,1.78-1.61h28.48c-.16-3.32-.32-6.48-.48-7.93-.16-1,.08-1.46,1.05-1.46,4.13,0,8.42.57,8.42,2.1,0,1.3-2,1.87-3.4,2.11,0,1.54-.08,3.24-.08,5.18Zm-17.64,15.05a3.67,3.67,0,0,1-3.72,4.12c-2.26.09-3.16-2.1-4.53-4.61a55.8,55.8,0,0,0-3.32-5.1c-1.21-1.61-.4-3.31,1.94-2.67C812.23,137.31,817,140.22,817.08,144.27Z"/><path class="cls-2" d="M872.75,132.05c0,1.78-1.21,2.59-3.64,2.59a2,2,0,0,1-2.26-2.27c.08-2.42.24-17.15.16-25.65a72.38,72.38,0,0,1-12.3,10.76c-1.86,1.22-3.4-.4-1.86-2,8.66-8.33,15.13-16.83,19.5-27.27.4-.81.81-1.21,1.78-1,2.91.65,7.2,2.43,7.2,4,0,1.29-1.62,1.7-4,1.53-1,1.62-2,3.4-3.4,5.26.32.17.64.41.89.57h12.7a50.14,50.14,0,0,0,3.4-9.79c0-.65.57-1.13,1.46-1,3.64.32,7.76,1.45,7.76,3.15,0,1.38-2.18,1.94-3.88,2.11-1.21,1.94-2.51,3.8-3.8,5.58h14.4c1.7-2.43,3.72-5.18,4.94-5.18,1.61,0,7.28,4.69,7.28,6.64,0,1.13-1.38,1.78-4.37,1.78H894c0,.81-.56,1.29-1.61,1.7v4.37H903.5c1.46-2.11,3.24-4.29,4.21-4.29,1.46,0,6.47,4.2,6.55,5.9,0,1.14-1.21,1.62-3.88,1.62h-18v6.31h11.32c1.38-2.1,3.16-4.28,4.13-4.28,1.46,0,6.56,4.2,6.56,5.9,0,1.14-1.14,1.62-3.89,1.62H892.42V127h15.13c1.62-2.34,3.72-5,4.85-5,1.54,0,7.12,4.61,7.12,6.47,0,1.13-1.29,1.78-4.29,1.78H872.75Zm23.14,8.09c6.64,7.28,17.56,10.36,29,11.82,2.51.32,2.19,1.86.49,2.5a6.5,6.5,0,0,0-3.4,2.43c-1.13,1.54-1.7,2.11-3.88,1.54-9.55-2.19-19.83-7.53-26.06-18.05v5.75c0,1.54.08,10.6.08,12.3s-1.37,2.18-3.64,2.18a1.89,1.89,0,0,1-2.1-2c0-1.46.32-11.33.32-13.35v-2.51c-6.8,7-17.32,13-31.64,16.75-2.34.65-3.4-1.46-1.21-2.51,11.57-4.77,21.2-10.36,26.54-16.83h-26c-1,0-1.78-.32-1.78-1.62s.73-1.62,1.78-1.62h32.21c-.08-1.94-.16-3.88-.32-5.17a.94.94,0,0,1,1.05-1.14c1.7,0,7.69.41,7.69,2.27,0,1-1.06,1.7-3,2v2h21.61c1.61-2.34,3.72-5.09,4.85-5.09,1.62,0,7.2,4.69,7.2,6.55,0,1.13-1.13,1.78-4.29,1.78Zm-8.9-32.2v-6.07H873.24l-.41.08c-.08,1.21-.08,3.56-.16,6Zm0,3.23H872.67v6.31H887Zm0,9.55H872.67l.08,6.31H887Z"/><path class="cls-2" d="M830.09,337.85l-16.16-34.31c0-1,.07-2.06.07-3.09a78,78,0,1,0-127.6,60.27v27.62a6.71,6.71,0,0,0,4.08,6.18L755.21,422a6.72,6.72,0,0,0,9.34-6.18V392.4a6.71,6.71,0,0,1,6.71-6.72h32.87a6.72,6.72,0,0,0,6.73-6.72V358.79a6.73,6.73,0,0,1,3.76-6l12.34-6A6.73,6.73,0,0,0,830.09,337.85Zm-94,15.77a53.13,53.13,0,1,1,53.14-53.12A53.13,53.13,0,0,1,736.13,353.62Z"/><path class="cls-2" d="M752.18,325.87a8.29,8.29,0,1,1-10.58-5.05A8.27,8.27,0,0,1,752.18,325.87Z"/><path class="cls-2" d="M733.44,270.48a9.12,9.12,0,0,0-17.2,6.1l12.86,31.34a7.47,7.47,0,0,0,14.08-5Z"/><rect class="cls-2" x="730.3" y="175.35" width="11.58" height="26.05"/><polygon class="cls-2" points="691.61 211.93 681.71 217.65 668.71 195.15 678.61 189.44 691.61 211.93"/><polygon class="cls-2" points="653.29 246.06 647.58 255.97 625.07 242.97 630.8 233.07 653.29 246.06"/><polygon class="cls-2" points="637.19 294.5 637.19 306.08 611.14 306.08 611.16 294.5 637.19 294.5"/><polygon class="cls-2" points="841.49 233.07 847.2 242.97 824.71 255.95 818.99 246.06 841.49 233.07"/><polygon class="cls-2" points="793.65 189.44 803.56 195.15 790.56 217.65 780.67 211.93 793.65 189.44"/><rect class="cls-3" width="83.58" height="83.58"/><rect class="cls-3" x="83.58" y="83.58" width="83.58" height="83.58"/><rect class="cls-3" x="167.17" width="83.58" height="83.58"/><rect class="cls-3" x="167.17" y="167.17" width="83.58" height="83.58"/><rect class="cls-3" x="83.58" y="250.75" width="83.58" height="83.58"/><rect class="cls-3" y="334.33" width="83.58" height="83.58"/><rect class="cls-3" x="167.17" y="334.33" width="83.58" height="83.58"/><rect class="cls-3" x="250.75" y="83.58" width="83.58" height="83.58"/><rect class="cls-3" x="83.58" y="417.92" width="83.58" height="83.58"/><rect class="cls-3" x="250.75" y="250.75" width="83.58" height="83.58"/></g></g></svg>