<svg xmlns="http://www.w3.org/2000/svg" viewBox="0 0 1049.5 501.5"><defs><style>.cls-1{fill:#ce371a;}.cls-2{fill:#efede1;}.cls-3{fill:#fff;}</style></defs><title>食品メニュー</title><g id="レイヤー_2" data-name="レイヤー 2"><g id="レイヤー_2-2" data-name="レイヤー 2"><rect class="cls-1" y="0.5" width="1049.5" height="500"/><rect class="cls-2" x="964.42" width="83.58" height="83.58" transform="translate(2012.42 83.58) rotate(-180)"/><rect class="cls-2" x="880.83" y="83.58" width="83.58" height="83.58" transform="translate(1845.25 250.75) rotate(-180)"/><rect class="cls-2" x="797.25" width="83.58" height="83.58" transform="translate(1678.08 83.58) rotate(-180)"/><rect class="cls-2" x="797.25" y="167.17" width="83.58" height="83.58" transform="translate(1678.08 417.92) rotate(-180)"/><rect class="cls-2" x="880.83" y="250.75" width="83.58" height="83.58" transform="translate(1845.25 585.08) rotate(-180)"/><rect class="cls-2" x="964.42" y="334.33" width="83.58" height="83.58" transform="translate(2012.42 752.25) rotate(-180)"/><rect class="cls-2" x="797.25" y="334.33" width="83.58" height="83.58" transform="translate(1678.08 752.25) rotate(-180)"/><rect class="cls-2" x="713.67" y="83.58" width="83.58" height="83.58" transform="translate(1510.92 250.75) rotate(-180)"/><rect class="cls-2" x="880.83" y="417.92" width="83.58" height="83.58" transform="translate(1845.25 919.42) rotate(-180)"/><rect class="cls-2" x="713.67" y="250.75" width="83.58" height="83.58" transform="translate(1510.92 585.08) rotate(-180)"/><circle class="cls-3" cx="349.83" cy="329.74" r="4.35" transform="matrix(0.16, -0.99, 0.99, 0.16, -31.84, 622.04)"/><circle class="cls-3" cx="344.07" cy="390.34" r="4.35"/><circle class="cls-3" cx="410.4" cy="377.36" r="4.35" transform="translate(-113.67 187.16) rotate(-22.65)"/><circle class="cls-3" cx="354.19" cy="364.73" r="6.66"/><circle class="cls-3" cx="404.75" cy="336.4" r="6.66" transform="translate(-98.55 182.53) rotate(-22.73)"/><circle class="cls-3" cx="382.73" cy="390.34" r="6.66"/><circle class="cls-3" cx="374.02" cy="310.22" r="6.66"/><circle class="cls-3" cx="410.4" cy="296.9" r="4.35" transform="translate(-82.69 180.95) rotate(-22.65)"/><circle class="cls-3" cx="378.38" cy="350.26" r="4.35" transform="translate(-136.85 370.14) rotate(-45)"/><path class="cls-3" d="M433.12,264.68c-10.84-4.92-24.56-8-39.34-8.9l-3.91,5.8a31.07,31.07,0,0,1-3.91,4.56c13.21.92,25.36,3.7,34.94,8.05,11,5,17.37,11.67,17.37,18.27,0,6.36-5.6,11.36-10.3,14.43l-1.3.85V412a4.91,4.91,0,0,1-4.91,4.9H330.37a4.91,4.91,0,0,1-4.9-4.9V346.17a50.59,50.59,0,0,1-7.2,7.27V412a12.12,12.12,0,0,0,12.1,12.11h91.39a11.59,11.59,0,0,0,2.14-.2h6.51A13.55,13.55,0,0,0,444,410.32V310.67c9.52-7.15,11.61-14.64,11.61-19.85C455.57,280.54,447.6,271.25,433.12,264.68Z"/><path class="cls-3" d="M238.64,320.38s4.41-11.21.55-21.58-14.52-16-14.52-16-4.41,11.21-.55,21.58S238.64,320.38,238.64,320.38Z"/><path class="cls-3" d="M243.11,291.3s5.38-9.42,3.28-19.15-10.87-16.1-10.87-16.1-5.37,9.41-3.28,19.15S243.11,291.3,243.11,291.3Z"/><path class="cls-3" d="M243,315.44s12-.38,20-8S272,287.76,272,287.76s-12.05.39-20,8S243,315.44,243,315.44Z"/><path class="cls-3" d="M255.92,269.86c-7,7.08-7.52,17.91-7.52,17.91s10.82-.65,17.82-7.74,7.52-17.91,7.52-17.91S262.92,262.78,255.92,269.86Z"/><path class="cls-3" d="M250,263.34s5.5-7.39,4.72-15.82-7.54-14.69-7.54-14.69-5.49,7.39-4.71,15.82S250,263.34,250,263.34Z"/><path class="cls-3" d="M263.27,244.07c-6.42,5.52-7.6,14.66-7.6,14.66s9.21.19,15.62-5.33,7.61-14.66,7.61-14.66S269.68,238.55,263.27,244.07Z"/><path class="cls-3" d="M258.18,238.5s5.09-5.33,5.31-12.09S259,214,259,214s-5.1,5.33-5.31,12.09S258.18,238.5,258.18,238.5Z"/><path class="cls-3" d="M271.75,223.28c-5.45,4-6.95,11.23-6.95,11.23s7.34.71,12.79-3.3,7-11.23,7-11.23S277.21,219.27,271.75,223.28Z"/><path class="cls-3" d="M278.43,211.3c4-5.46,3.26-12.8,3.26-12.8s-7.21,1.53-11.21,7-3.25,12.81-3.25,12.81S274.44,216.77,278.43,211.3Z"/><path class="cls-3" d="M308.41,306.25c1.82-10.91-4.64-21.08-4.64-21.08s-9.41,7.52-11.23,18.43,4.63,21.08,4.63,21.08S306.58,317.16,308.41,306.25Z"/><path class="cls-3" d="M326.54,286.2c2-9.76-3.51-19.1-3.51-19.1s-8.7,6.47-10.68,16.23,3.52,19.1,3.52,19.1S324.57,296,326.54,286.2Z"/><path class="cls-3" d="M296.69,334.54a30,30,0,0,0-11.5,6.7,30.06,30.06,0,0,0,4.75-12.43c1.41-11.56-5.84-22-5.84-22s-9.55,8.34-11,19.9c-1,8.19,2.35,15.79,4.39,19.53-14,33.27-13.3,59.41-12.4,68.82-8.1-6.42-23.85-23.76-29-63.83,4.3-.66,12.11-2.58,17.91-8.11,8.42-8.05,9.39-20.69,9.39-20.69s-12.67.4-21.09,8.45a30,30,0,0,0-7.13,11.24,30,30,0,0,0-1.5-13.23c-4.06-10.91-15.28-16.81-15.28-16.81s-4.65,11.8-.59,22.71c2.81,7.55,9,12.69,12.62,15.15,3.57,30.43,13.17,48.56,20.69,58.46,8.52,11.22,16.32,14.77,16.65,14.92a2.69,2.69,0,0,0,1.11.23,2.74,2.74,0,0,0,2.5-1.63c.45-1-.37-3.69-.44-4.08s-5-29.15,11-68.07c4.17,1.39,11.87,3.2,19.47,1,11.17-3.28,17.85-14.05,17.85-14.05S307.86,331.27,296.69,334.54Z"/><path class="cls-3" d="M321,310c-10.74,2.65-17.53,12.6-17.53,12.6s10.63,5.66,21.37,3S342.33,313,342.33,313,331.7,307.35,321,310Z"/><path class="cls-3" d="M336.19,287.92c-9.25,3.69-14.06,13.4-14.06,13.4s10.17,3.74,19.42.05S355.62,288,355.62,288,345.44,284.23,336.19,287.92Z"/><path class="cls-3" d="M343.51,268.37c2.57-8.07-1.21-16.47-1.21-16.47s-7.95,4.67-10.51,12.73S333,281.1,333,281.1,341,276.43,343.51,268.37Z"/><path class="cls-3" d="M352.76,268.53c-8.06,2.59-12.71,10.54-12.71,10.54s8.41,3.76,16.47,1.18,12.71-10.54,12.71-10.54S360.82,266,352.76,268.53Z"/><path class="cls-3" d="M359.19,253.66c2.76-6.19.5-13.2.5-13.2s-6.73,3-9.49,9.18-.5,13.2-.5,13.2S356.43,259.84,359.19,253.66Z"/><path class="cls-3" d="M368,253.89c-6.56,1.65-10.68,7.77-10.68,7.77s6.52,3.43,13.09,1.78,10.68-7.77,10.68-7.77S374.59,252.24,368,253.89Z"/><path class="cls-3" d="M373.76,238.62c-5.76,3.57-7.83,10.64-7.83,10.64s7.26,1.29,13-2.27,7.83-10.64,7.83-10.64S379.51,235.05,373.76,238.62Z"/><path class="cls-3" d="M134.29,149c4.84-.82,8.94-1.72,12.39-2.54s4.1,1.64.9,3.11c-6,2.46-14.19,4.84-26.82,7.22-.32,2-1.15,3.69-2.54,3.69-1.72-.08-3-3.85-3.61-8.36-.08-.74.25-1,.9-1q6.9-.5,12.8-1.23c.08-7.87.65-30.34-.25-39.44a108.71,108.71,0,0,1-16.81,8.77c-2.46.91-3.36-1.64-1.23-2.78,12.88-7.3,24.77-15.75,33.38-29.69a1.55,1.55,0,0,1,1.88-.82c3.12.66,7,2.38,7,3.77,0,.66-.57,1-1.56,1.15,8,8.78,20.5,13.12,32.07,15.25,2.54.41,2.05,2,.41,2.55a6.72,6.72,0,0,0-3.37,2.46c-1.23,1.64-1.8,2.13-3.93,1.55a52.62,52.62,0,0,1-27.72-20,80.78,80.78,0,0,1-17.79,16.23,19.93,19.93,0,0,1,6.39,3h7.14c.08-3.28-.08-7.14-.25-9.6a1,1,0,0,1,1.15-1.23c1.39,0,8.36.33,8.36,2.3,0,1.47-1.72,2.13-4.26,2.62v5.91h10.25c1.15-1.56,2.62-3.28,3.53-3.28,1.55,0,6.15,3.44,6.15,5.24,0,1.07-1.32,1.81-2.71,2.3-.08,5.33.08,17.3.08,20,0,2.54-1.23,3.11-3.44,3.11-1.89,0-2.38-1.47-2.38-2.78v-.25H148.15a29.47,29.47,0,0,0,9.18,9.35,52.91,52.91,0,0,0,13.78-10.74,1.41,1.41,0,0,1,2-.09c2.54,1.81,5.33,4.6,4.68,5.91-.41.82-1.32,1.06-3.78.16a63,63,0,0,1-13,6.81c5.74,2.87,12.62,4.51,20.25,5.16,2.62.25,2.38,1.89.49,2.55a6.69,6.69,0,0,0-3.52,2.46c-1.07,1.47-1.64,2.05-3.94,1.55-13.2-2.46-24.35-9.92-30.1-23.12h-10Zm.17-33.78c-.08,1.55-.17,4.42-.25,7.38h26.32v-7.38ZM160.37,133l.08-7.13H134.21V133Z"/><path class="cls-3" d="M216.13,127.14c1.23-1.56,2.7-3.28,3.61-3.28,1.64,0,6.47,3.61,6.47,5.41,0,1.07-1.31,1.8-2.78,2.38-.25,6.31.08,20.42.08,23.53,0,2.54-1.39,3.12-3.61,3.12-2,0-2.54-1.48-2.54-2.79v-3.94H201.7v5c0,1.72-1.23,2.54-3.78,2.54a2,2,0,0,1-2.29-2.22c.08-5.9.57-23.69-.25-31.57a1,1,0,0,1,1.15-1.06,19.78,19.78,0,0,1,7.05,2.87Zm1.31,21.15c0-6.06.08-14.18.08-17.87H203l-1.23.24c-.08,2.46-.17,10-.17,11.73v5.9ZM217,118.94c0,1.72-1.31,2.54-3.85,2.54a2,2,0,0,1-2.3-2.21c0-5.66.49-21.82-.33-29.44a1,1,0,0,1,1.15-1.07,20.41,20.41,0,0,1,7.46,3.12h20.67c1.23-1.56,2.62-3.12,3.52-3.12,1.73,0,6.81,3.69,6.81,5.5,0,1.14-1.39,1.88-2.95,2.46-.25,6.15.08,17.54.08,20.66,0,2.54-1.39,3.12-3.77,3.12a2.53,2.53,0,0,1-2.63-2.79v-2.46H217ZM241,112c0-5.5.08-13.37.08-16.81H217.52l-.41.08c-.16,2.21-.16,9.1-.16,10.66V112Zm13.53,15.17c1.23-1.56,2.7-3.28,3.6-3.28,1.73,0,6.73,3.61,6.73,5.41,0,1.07-1.48,1.89-2.95,2.46-.25,6.48.08,20.25.08,23.53,0,2.55-1.31,3.12-3.69,3.12a2.5,2.5,0,0,1-2.54-2.79v-4H239.91v4.68c0,1.8-1.31,2.62-3.77,2.62a2.08,2.08,0,0,1-2.38-2.21c.08-5.91.57-23.45-.25-31.33a1,1,0,0,1,1.15-1.06,20.37,20.37,0,0,1,7.05,2.87Zm1.31,21.15c0-6.06.08-14.18.08-17.87H241.39a8,8,0,0,1-1.4.33c-.08,2.37-.08,9.84-.08,11.48v6.06Z"/><path class="cls-3" d="M335.11,138.62a3.36,3.36,0,0,1-3.21,3.47c-2.13,0-2.93-1-5.43-4.27a76.45,76.45,0,0,0-6.32-6.94c-8.36,9.34-22,19.31-34.53,22.87-3.29.89-4.27-2.14-1.42-3.47a97.84,97.84,0,0,0,31.24-23.59,100.61,100.61,0,0,0-13.71-9.25c-2.49-1.43-1.25-4.19,1.42-3.39a69.48,69.48,0,0,1,16.47,7.39,59,59,0,0,0,7.74-14.68c.89-2.76,1.07-3.65-1.6-6-1.42-1.24-2.85-2.22-2.22-3.47s3.47-1.07,5.25-.62c4.45,1.16,7.83,4.18,7.83,6,0,1.6-1.25,3.74-2.76,6.94a100.89,100.89,0,0,1-9,15.49C329.77,128.92,335.29,134.44,335.11,138.62Z"/><path class="cls-3" d="M379.78,136.22c6.32,0,28.75-2.76,36.05-3.65a96.48,96.48,0,0,1,12.37-1c5,0,9.52,1.78,9.52,5.16,0,1.78-1.06,2.94-3.91,2.94-3.65,0-9.7-1.34-18.69-.89-6.77.35-19.41,1.51-26.61,3.11-3.56.8-7.39,2-10,2-3.47,0-7.12-2.94-8.28-6.59-.71-2.31.71-3,2.76-2.31A18.16,18.16,0,0,0,379.78,136.22Zm15-25.28a47.94,47.94,0,0,0,12.37-1.69c4.36-1.25,6.58-3,9.7-3,2.67,0,6.41.8,6.41,3.21,0,1.86-1.52,3-4.1,3.91-4.36,1.43-17.26,3.92-24.12,3.92-6.14,0-10.05-2-11.39-5.7-.89-2.4.53-3.29,2.49-2.4A19.87,19.87,0,0,0,394.74,110.94Z"/><path class="cls-3" d="M518.63,144.4c0,1.7-1.16,2.68-2.94,2.68-3.29,0-6.77-1.16-15.67-1.07a110.54,110.54,0,0,0-23.32,3,23.54,23.54,0,0,1-6.32,1.25,8.36,8.36,0,0,1-7.2-5.25c-.63-2.05.44-2.94,2.31-2.4a16.5,16.5,0,0,0,5.52,1.06c2,0,14.06-1.51,22.69-2.49a84.11,84.11,0,0,0,2.67-14.69c.18-1.15,0-1.24-1.24-1.06-2.41.35-11.57,4.54-15,4.54-2.94,0-6.23-3.21-6.86-7-.35-1.87.89-2.84,2.67-1.69a9.46,9.46,0,0,0,4.9,1.87c3.11,0,10.06-1.6,12.82-2.49a15,15,0,0,1,4.27-1.07c2.67,0,6.94,2.94,6.94,4.81,0,1.51-1.34,2.58-2,4.71s-1.78,6.86-3.2,11.31c6.23-.54,9.61-.8,11.48-.8C515.24,139.87,518.63,141.91,518.63,144.4Z"/><path class="cls-3" d="M559.38,123.93c4.72,0,24.57-2,30.71-2.84,7.57-1,9.61-1.87,13.17-1.87s9.26,2,9.26,5.87c0,1.34-.89,2.49-3.65,2.49-3.29,0-5-.44-11.66-.44-6.94,0-25.72,2.22-29.9,2.94-4,.62-6.95,1.51-9.88,1.51-3.83,0-8.19-5.52-8.19-9.7,0-1.52,1.07-2.14,2.49-1.25C553.87,122,556.27,123.93,559.38,123.93Z"/></g></g></svg>