<svg xmlns="http://www.w3.org/2000/svg" viewBox="0 0 272.8 144.4"><defs><style>.cls-1,.cls-4,.cls-5{fill:none;}.cls-1,.cls-2,.cls-3,.cls-4,.cls-5,.cls-7,.cls-8{stroke:#e9e6db;stroke-miterlimit:10;}.cls-1,.cls-3{stroke-width:4px;}.cls-2,.cls-3,.cls-6,.cls-7{fill:#e9e6db;}.cls-2,.cls-5{stroke-width:5px;}.cls-8{fill:#d8a01e;stroke-width:2px;}</style></defs><title>アセット 3</title><g id="レイヤー_2" data-name="レイヤー 2"><g id="レイヤー_1-2" data-name="レイヤー 1"><line class="cls-1" x1="152.1" y1="40.7" x2="152.1" y2="79.9"/><line class="cls-2" x1="41.8" y1="0.9" x2="41.8" y2="82.6"/><line class="cls-2" x1="85.8" y1="3" x2="41.8" y2="48.4"/><line class="cls-2" x1="89.1" y1="80.3" x2="41.8" y2="39.7"/><polygon class="cls-3" points="49.2 45.3 43.6 49.1 43.6 38.3 49.2 41.6 49.2 45.3"/><path class="cls-1" d="M167.5,69.7c0,5.1,5.4,9.2,12.1,9.2s12-4.1,12-9.2-5.4-9.1-12-9.1-12.1-4.1-12.1-9.2,5.4-9.1,12.1-9.1,12,4.1,12,9.1"/><line class="cls-1" x1="247.1" y1="40.9" x2="247.1" y2="80.2"/><line class="cls-2" x1="6.6" y1="142.1" x2="6.6" y2="56.4"/><line class="cls-2" x1="13.5" y1="66.4" x2="59.7" y2="66.4"/><line class="cls-2" x1="13.5" y1="92.7" x2="49.2" y2="92.7"/><path class="cls-1" d="M202.4,60.7h31.9a16,16,0,1,0-31.9,0v1a17.4,17.4,0,0,0,31.9,9.5"/><circle class="cls-1" cx="233" cy="119.9" r="18.5"/><line class="cls-4" x1="233" y1="101.4" x2="233" y2="138.4"/><line class="cls-4" x1="213.7" y1="119.9" x2="250.8" y2="119.9"/><line class="cls-4" x1="219.9" y1="106.8" x2="246.1" y2="133"/><line class="cls-4" x1="219.9" y1="133" x2="246.1" y2="106.8"/><line class="cls-4" x1="225.8" y1="103" x2="240" y2="137.3"/><line class="cls-4" x1="215.8" y1="127.3" x2="250" y2="113.1"/><line class="cls-4" x1="215.8" y1="113.1" x2="250" y2="127.2"/><line class="cls-4" x1="225.8" y1="137.3" x2="240" y2="103"/><line class="cls-1" x1="251.6" y1="100.3" x2="251.6" y2="139.5"/><line class="cls-5" x1="266.9" y1="44.4" x2="266.9" y2="144.4"/><polygon class="cls-6" points="267.1 47.2 267.1 47.2 261 40.7 272.8 40.7 267.1 47.2"/><path class="cls-6" d="M158.3,24.5h5.5V5.9h-4.4v-2a15.8,15.8,0,0,0,5.2-1.8H167V24.5h5v2.6H158.3Z"/><path class="cls-6" d="M191.9,20.2h-3.2v6.9h-3V20.2H174.8v-2L185.2,2.1h3.5V17.7h3.2Zm-6.2-2.5V10.1c0-1.3.1-3.3.2-4.6h-.1l-2,3.7-5.7,8.5Z"/><path class="cls-6" d="M194.6,20.9a7.9,7.9,0,0,1,4.6-6.9v-.2a6.7,6.7,0,0,1-3.4-5.7c0-3.8,2.9-6.3,6.8-6.3s6.9,2.7,6.9,6.5-1.9,4.9-3.4,6v.2c2.2,1.3,4.2,3.1,4.2,6.5s-3.1,6.5-7.8,6.5S194.6,24.7,194.6,20.9Zm12.8.1c0-3.4-3.1-4.6-6.6-6a6.7,6.7,0,0,0-3.4,5.6c0,2.7,2.2,4.6,5.2,4.6S207.4,23.5,207.4,21Zm-.6-12.5A4.2,4.2,0,0,0,202.6,4a3.9,3.9,0,0,0-4,4.1c0,3,2.7,4.3,5.6,5.4A6.7,6.7,0,0,0,206.8,8.5Z"/><path class="cls-6" d="M215.6,21.4V11.1h-2.8V8.8l2.9-.2.4-5.2h2.6V8.6h5v2.5h-5V21.4c0,2.3.7,3.6,2.8,3.6a5,5,0,0,0,2.1-.5l.6,2.3a9.4,9.4,0,0,1-3.4.7C216.9,27.5,215.6,25.1,215.6,21.4Z"/><path class="cls-6" d="M227.9,0h3V11.2c1.7-1.7,3.6-3.1,6.2-3.1s5.6,2.5,5.6,7.3V27.1h-3.1V15.8c0-3.5-1-5-3.5-5s-3.2,1-5.1,2.9V27.1h-3Z"/><circle class="cls-1" cx="117.2" cy="60.3" r="18.5"/><line class="cls-4" x1="117.2" y1="41.8" x2="117.2" y2="78.8"/><line class="cls-4" x1="98.6" y1="60.3" x2="135.7" y2="60.3"/><line class="cls-4" x1="104" y1="47.2" x2="130.2" y2="73.4"/><line class="cls-4" x1="104.1" y1="73.4" x2="130.3" y2="47.2"/><line class="cls-4" x1="110" y1="43.4" x2="124.1" y2="77.7"/><line class="cls-4" x1="99.9" y1="67.7" x2="134.2" y2="53.5"/><line class="cls-4" x1="99.9" y1="53.5" x2="134.2" y2="67.7"/><line class="cls-4" x1="110" y1="77.7" x2="124.1" y2="43.4"/><line class="cls-1" x1="135.8" y1="40.7" x2="135.8" y2="80"/><line class="cls-1" x1="142.1" y1="89.3" x2="142.1" y2="139.1"/><line class="cls-1" x1="134.6" y1="100.4" x2="149.5" y2="100.4"/><line class="cls-3" x1="175.7" y1="100.4" x2="191" y2="138.9"/><line class="cls-3" x1="206.2" y1="100.4" x2="191" y2="138.9"/><rect class="cls-7" x="189.1" y="137.3" width="3.7" height="1.76"/><path class="cls-1" d="M54.9,119.7H86.8a16,16,0,0,0-31.9,0v1.1a17.4,17.4,0,0,0,31.9,9.4"/><path class="cls-1" d="M100.6,129c0,5.1,5.3,9.1,12,9.1s12-4,12-9.1-5.4-9.1-12-9.1-12-4.1-12-9.2,5.3-9.1,12-9.1,12,4.1,12,9.1"/><line class="cls-1" x1="162.6" y1="99.9" x2="162.6" y2="139.2"/><circle class="cls-8" cx="41.8" cy="66.4" r="4.6"/><circle class="cls-6" cx="162.7" cy="93.2" r="3.2"/><circle class="cls-6" cx="266.9" cy="31.8" r="3.7"/><polygon class="cls-6" points="6.7 59 6.7 59 0 51.8 13 51.8 6.7 59"/><circle class="cls-6" cx="152.1" cy="33.7" r="3.2"/><circle class="cls-6" cx="247.1" cy="34.3" r="3.2"/></g></g></svg>