<svg xmlns="http://www.w3.org/2000/svg" viewBox="0 0 275.07 146.39"><defs><style>.cls-1,.cls-4,.cls-5{fill:none;}.cls-1,.cls-2,.cls-3,.cls-4,.cls-5,.cls-6,.cls-7,.cls-8,.cls-9{stroke:#ccbd14;stroke-miterlimit:10;}.cls-1,.cls-3,.cls-7{stroke-width:4px;}.cls-2,.cls-7{fill:#e9e6db;}.cls-2,.cls-5{stroke-width:5px;}.cls-3,.cls-6,.cls-9{fill:#ccbd14;}.cls-4,.cls-8{stroke-width:2px;}.cls-8{fill:#c0272d;}.cls-9{stroke-width:0.75px;}</style></defs><title>アセット 5</title><g id="レイヤー_2" data-name="レイヤー 2"><g id="レイヤー_1-2" data-name="レイヤー 1"><line class="cls-1" x1="153.25" y1="42.64" x2="153.25" y2="81.92"/><line class="cls-2" x1="42.99" y1="2.92" x2="42.99" y2="84.6"/><line class="cls-2" x1="86.97" y1="5.01" x2="42.99" y2="50.39"/><line class="cls-2" x1="90.23" y1="82.28" x2="42.99" y2="41.72"/><polygon class="cls-3" points="50.29 47.82 42.8 52.96 42.8 38.38 50.29 42.81 50.29 47.82"/><path class="cls-1" d="M168.7,71.7c0,5,5.38,9.14,12,9.14s12-4.09,12-9.14-5.38-9.13-12-9.13-12-4.09-12-9.14,5.38-9.14,12-9.14,12,4.09,12,9.14"/><line class="cls-1" x1="248.26" y1="42.91" x2="248.26" y2="82.18"/><line class="cls-2" x1="7.74" y1="144.07" x2="7.74" y2="58.41"/><line class="cls-2" x1="14.65" y1="68.43" x2="60.84" y2="68.43"/><line class="cls-2" x1="14.65" y1="94.68" x2="50.37" y2="94.68"/><path class="cls-1" d="M203.56,62.66h31.91a16,16,0,1,0-31.93,0v1a17.46,17.46,0,0,0,31.93,9.46"/><circle class="cls-1" cx="234.11" cy="121.49" r="18.55"/><line class="cls-4" x1="234.11" y1="102.95" x2="234.11" y2="140"/><line class="cls-4" x1="214.82" y1="121.47" x2="251.88" y2="121.47"/><line class="cls-4" x1="221.01" y1="108.37" x2="247.21" y2="134.57"/><line class="cls-4" x1="221.02" y1="134.58" x2="247.22" y2="108.38"/><line class="cls-4" x1="226.91" y1="104.62" x2="241.09" y2="138.85"/><line class="cls-4" x1="216.89" y1="128.84" x2="251.13" y2="114.66"/><line class="cls-4" x1="216.88" y1="114.64" x2="251.11" y2="128.82"/><line class="cls-4" x1="226.92" y1="138.86" x2="241.1" y2="104.62"/><line class="cls-1" x1="252.75" y1="101.85" x2="252.75" y2="141.13"/><line class="cls-5" x1="268.04" y1="46.34" x2="268.04" y2="146.39"/><polygon class="cls-6" points="268.24 49.19 268.24 49.19 262.12 42.67 273.96 42.67 268.24 49.19"/><circle class="cls-1" cx="118.31" cy="62.3" r="18.55"/><line class="cls-4" x1="118.31" y1="43.76" x2="118.31" y2="80.81"/><line class="cls-4" x1="99.78" y1="62.3" x2="136.84" y2="62.3"/><line class="cls-4" x1="105.2" y1="49.18" x2="131.4" y2="75.38"/><line class="cls-4" x1="105.22" y1="75.39" x2="131.42" y2="49.19"/><line class="cls-4" x1="111.11" y1="45.43" x2="125.29" y2="79.67"/><line class="cls-4" x1="101.09" y1="69.66" x2="135.32" y2="55.48"/><line class="cls-4" x1="101.07" y1="55.46" x2="135.31" y2="69.64"/><line class="cls-4" x1="111.12" y1="79.67" x2="125.3" y2="45.44"/><line class="cls-1" x1="136.95" y1="42.67" x2="136.95" y2="81.94"/><line class="cls-1" x1="143.23" y1="91.59" x2="143.23" y2="141.39"/><line class="cls-1" x1="135.77" y1="102.64" x2="150.69" y2="102.64"/><line class="cls-7" x1="176.86" y1="101.82" x2="192.1" y2="140.34"/><line class="cls-7" x1="207.34" y1="101.82" x2="192.1" y2="140.34"/><rect class="cls-6" x="189.73" y="139.13" width="4.74" height="2.42"/><path class="cls-1" d="M56.1,120.66H88a16,16,0,0,0-31.93,0,2.44,2.44,0,0,0,0,.27v.76A17.45,17.45,0,0,0,88,131.15"/><path class="cls-1" d="M101.78,129.93c0,5,5.38,9.14,12,9.14s12-4.09,12-9.14-5.38-9.14-12-9.14-12-4.09-12-9.14,5.38-9.13,12-9.13,12,4.09,12,9.13"/><line class="cls-1" x1="163.72" y1="102.18" x2="163.72" y2="141.46"/><circle class="cls-8" cx="42.99" cy="68.43" r="4.6"/><circle class="cls-6" cx="163.84" cy="95.2" r="3.2"/><circle class="cls-6" cx="268.04" cy="33.81" r="3.72"/><polygon class="cls-6" points="7.89 60.97 7.89 60.97 1.16 53.8 14.18 53.8 7.89 60.97"/><circle class="cls-6" cx="153.25" cy="35.71" r="3.2"/><circle class="cls-6" cx="248.26" cy="36.24" r="3.2"/><path class="cls-9" d="M165.3,27.6V4.76h-.07l-4.18,2.42-.68-2.11,5.27-3h2.42V27.6Z"/><path class="cls-9" d="M189.7,27.6H187V20.45H175.88v-1.8L186.77,2.11h2.93V18.27h3.47v2.18H189.7Zm-11-9.33H187v-9c0-1.39.07-2.75.13-4.08H187c-.78,1.56-1.4,2.65-2,3.81l-6.23,9.26Z"/><path class="cls-9" d="M200.35,14.09a6.39,6.39,0,0,1-4-5.75c0-3.95,3.09-6.64,7.21-6.64,4.63,0,6.84,3.13,6.84,6.2,0,2.17-1.16,4.55-4.19,6v.13c3.13,1.33,5.07,3.61,5.07,6.67,0,4.32-3.53,7.28-8,7.28-4.86,0-7.86-3.09-7.86-6.77,0-3.3,2-5.68,4.94-7ZM208.41,21c0-3.2-2.14-4.83-5.51-5.92-3,1-4.59,3.16-4.59,5.68a4.83,4.83,0,0,0,5,5.11A4.75,4.75,0,0,0,208.41,21Zm-9.36-13c0,2.73,1.91,4.22,4.73,5.08,2.22-.86,3.88-2.59,3.88-5,0-2.14-1.19-4.35-4.18-4.35A4.14,4.14,0,0,0,199.05,8.06Z"/><path class="cls-9" d="M216.24,5.68,219,4.73V9.05h4.79v2.21H219V22c0,2.35.71,3.64,2.51,3.64a5.58,5.58,0,0,0,1.91-.27l.17,2.18a7.16,7.16,0,0,1-2.76.44c-4.49,0-4.62-4.08-4.62-6.06V11.26h-2.86V9.05h2.86Z"/><path class="cls-9" d="M242.37,27.6h-2.83v-11c0-3-1.08-5.65-4.28-5.65a5,5,0,0,0-4.9,5.21V27.6h-2.83V.38h2.83V11.91h.07a6.81,6.81,0,0,1,5.75-3.3c2.28,0,6.19,1.39,6.19,7.69Z"/></g></g></svg>