<svg xmlns="http://www.w3.org/2000/svg" viewBox="0 0 1049.5 501.5"><defs><style>.cls-1{fill:#ce371a;}.cls-2{fill:#fff;}.cls-3{fill:#efede1;}</style></defs><title>map</title><g id="レイヤー_2" data-name="レイヤー 2"><g id="レイヤー_2-2" data-name="レイヤー 2"><rect class="cls-1" y="0.5" width="1049.5" height="500"/><path class="cls-2" d="M251.43,105.59c0,2.79-4.46,3.53-7.52,6.31a160.71,160.71,0,0,1-16.52,12.9c3.34,3.07,4.92,6.5,4.92,10,0,2.41-1.21,4-3.71,4-3.06,0-3.71-4.09-8.82-10.12a109.69,109.69,0,0,0-9.74-9.84c-1.76-1.67-.56-3.71,2.13-2.69a52.15,52.15,0,0,1,11,5.48c7.06-5.39,12.44-11.05,15.69-16,1.3-1.94.83-2.5-1.39-2.41-7.8.37-28.68,4.73-33.78,6.22-4.46,1.21-8.08,2.69-10.12,2.69-3.62,0-9.19-4.45-10.3-9.47-.37-1.76,1.2-2.31,2.69-1.48,2.88,1.67,6,3,8.72,3,5.2,0,27.66-3.53,39.07-5.38,2.88-.47,5-1.58,6.59-1.58C245,97.24,251.43,103,251.43,105.59Z"/><path class="cls-2" d="M300.61,119.05c0,2.32-1.3,3.8-3.34,3.8-1.86,0-3.16-1.11-4.27-3.62s-2.88-6.21-4-8.44c-1.3-2.32.37-4,2.78-2.69C295.41,110.05,300.61,114.41,300.61,119.05Zm26.26-18.19c3.34,0,8,3.9,8,6.68,0,1.67-1.2,2.79-2.78,6-7.15,14.48-20.14,27.84-38.61,33.13-2.5.65-3.62-2.5-1.11-3.71,15.5-7.24,28.3-18.47,34.06-33.78.65-1.76.46-2.41-.74-3.53s-2.6-1.67-2.6-2.78S325,100.86,326.87,100.86Zm-12,12.34c0,2.32-1.3,3.9-3.34,3.9-1.86,0-3.16-1.11-4.18-3.62s-2.78-5.94-4-8.17.47-4,2.79-2.78C309.8,104.48,314.9,108.65,314.9,113.2Z"/><path class="cls-2" d="M384.87,97.8c4.45,0,21.81-2.23,29.7-3.34,4.27-.56,4.82-1.77,6.86-1.77,4.09,0,9.93,5,9.93,7.61,0,2.79-2.87,2.79-4.82,7.06-6.41,14-18.47,30.9-44.92,39.34-3.06.93-4.45-2.41-1.39-3.8,21.34-9.84,35.82-26,40.37-41.3.74-2.5.37-2.6-2.14-2.41a238,238,0,0,0-24.68,4.45c-4.46,1.12-6.87,2.32-9.65,2.32-3.16,0-8.08-4.17-9.19-8.81-.56-2.32.83-3.16,2.88-2C380.51,96.59,382.18,97.8,384.87,97.8Zm42.22-13.09a10.91,10.91,0,1,1,11,11A11,11,0,0,1,427.09,84.71Zm17.82,0a6.91,6.91,0,1,0-6.86,7A6.85,6.85,0,0,0,444.91,84.71Z"/><path class="cls-2" d="M344.84,368l-5.57-4.7A34.15,34.15,0,0,0,332.18,379l7.16,1.36A27,27,0,0,1,344.84,368Z"/><path class="cls-2" d="M364.18,356.94l-4.3-5.89a24.93,24.93,0,0,1-7.33,3.59,30,30,0,0,0-6.44,2.83l3.73,6.27a22.4,22.4,0,0,1,4.86-2.14A32.14,32.14,0,0,0,364.18,356.94Z"/><path class="cls-2" d="M368.61,333.68a23.77,23.77,0,0,1-4.11,12.69l6,4.2A31,31,0,0,0,375.89,334Z"/><path class="cls-2" d="M287.29,383.67a37.61,37.61,0,0,0-6.21-14.61l-6,4.18h0a30.32,30.32,0,0,1,5,11.78Z"/><path class="cls-2" d="M263.69,353.9l-3.55,6.36a50.51,50.51,0,0,1,10.8,8l5.13-5.18A57.68,57.68,0,0,0,263.69,353.9Z"/><path class="cls-2" d="M446.62,408l-4-8.85-41.88-92.25H342.36c-.8,1.4-1.52,2.74-2.37,4.17q-3.4,5.83-6.33,10.61h32.26l-.05.06a11.8,11.8,0,0,1,2.09,4.91l7.12-1.63a31.12,31.12,0,0,0-1-3.34h17.17l33.35,73.46H332.81l6.1-1v-.06a44.54,44.54,0,0,1-.33-5.72c0-.39,0-.8,0-1.22l-7.28-.17c0,.48,0,.94,0,1.39a54.24,54.24,0,0,0,.39,6.78H287.84c.12-1.26.2-2.49.21-3.7l-7.29-.1c0,1.21-.11,2.5-.25,3.8H232.06L250,355.68c1.07.36,2.44.87,4,1.54l2.86-6.72c-1.46-.62-2.75-1.11-3.85-1.5l12.39-27.28h18q-2.91-4.79-6.33-10.61c-.84-1.44-1.57-2.77-2.37-4.17H255.89L210,408a1.1,1.1,0,0,0,.07,1,1.05,1.05,0,0,0,.88.46H445.67a1.05,1.05,0,0,0,.88-.46A1.1,1.1,0,0,0,446.62,408Z"/><path class="cls-2" d="M308.52,344.87c2.31,0,48.58-67.64,48.58-94.48a48.59,48.59,0,0,0-97.17,0C259.93,277.23,306.21,344.87,308.52,344.87Zm-18.59-94.48A18.59,18.59,0,1,1,308.52,269,18.59,18.59,0,0,1,289.93,250.39Z"/><rect class="cls-3" x="964.42" width="83.58" height="83.58" transform="translate(2012.42 83.58) rotate(-180)"/><rect class="cls-3" x="880.83" y="83.58" width="83.58" height="83.58" transform="translate(1845.25 250.75) rotate(-180)"/><rect class="cls-3" x="797.25" width="83.58" height="83.58" transform="translate(1678.08 83.58) rotate(-180)"/><rect class="cls-3" x="797.25" y="167.17" width="83.58" height="83.58" transform="translate(1678.08 417.92) rotate(-180)"/><rect class="cls-3" x="880.83" y="250.75" width="83.58" height="83.58" transform="translate(1845.25 585.08) rotate(-180)"/><rect class="cls-3" x="964.42" y="334.33" width="83.58" height="83.58" transform="translate(2012.42 752.25) rotate(-180)"/><rect class="cls-3" x="797.25" y="334.33" width="83.58" height="83.58" transform="translate(1678.08 752.25) rotate(-180)"/><rect class="cls-3" x="713.67" y="83.58" width="83.58" height="83.58" transform="translate(1510.92 250.75) rotate(-180)"/><rect class="cls-3" x="880.83" y="417.92" width="83.58" height="83.58" transform="translate(1845.25 919.42) rotate(-180)"/><rect class="cls-3" x="713.67" y="250.75" width="83.58" height="83.58" transform="translate(1510.92 585.08) rotate(-180)"/></g></g></svg>