<svg xmlns="http://www.w3.org/2000/svg" viewBox="0 0 1049.99 501.5"><defs><style>.cls-1{fill:#0096ae;}.cls-2{fill:#fff;}.cls-3{fill:#efede1;}</style></defs><title>kikakuitiran</title><g id="レイヤー_2" data-name="レイヤー 2"><g id="レイヤー_2-2" data-name="レイヤー 2"><rect class="cls-1" y="0.5" width="1049.99" height="500"/><path class="cls-2" d="M657.73,147.63a5.63,5.63,0,0,0-3.16,2.32c-1.08,1.54-1.69,2-3.62,1.38-8.93-3.23-20-11.63-27-24-7.24,11.7-19.57,23.34-34.74,30.65-1.93.85-3.16-1.38-1.31-2.54,14-9.24,24.65-19.72,31.5-34.28a1.4,1.4,0,0,1,1.77-.84c2.93.54,6.94,2,6.94,3.31,0,.69-.54,1.08-2.24,1.23,7.78,10.86,20,17.49,31.51,20.26C659.81,145.71,659.19,147.1,657.73,147.63Zm-13.56,35.05c1.7-2.54,3.93-5.54,5.17-5.54,1.61,0,7.31,4.85,7.31,6.77,0,1.16-1.31,1.85-4.31,1.85H589.87c-1,0-1.69-.31-1.69-1.54s.69-1.54,1.69-1.54h12.94c.08-8.32.08-21.49-.46-26.19-.08-.69.38-1.08,1.08-1.08,1.31,0,8.24.31,8.24,2.16,0,1.46-1.46,2-3.54,2.54v22.57h12.32c.15-11,.15-32.89-.54-39-.08-.7.39-1.08,1.08-1.08,1.31,0,8.47.31,8.47,2.15,0,1.47-1.46,2-3.54,2.55v12.94h9.7c1.7-2.55,3.86-5.47,5.09-5.47,1.62,0,7.08,4.77,7.08,6.7,0,1.15-1.61,1.85-4.15,1.85H625.92v19.33Z"/><path class="cls-2" d="M696.48,129.38H666.59c-1,0-1.7-.31-1.7-1.54s.7-1.54,1.7-1.54h54.3c1.7-2.54,4-5.55,5.24-5.55,1.62,0,7.47,4.78,7.47,6.78,0,1.16-1.38,1.85-4.47,1.85H703c-.07.69-.61,1.16-1.62,1.54v8.55h8.4c1.08-1.46,2.39-2.93,3.16-2.93,1.46,0,5.85,3.31,5.85,5,0,1-1.31,1.69-2.62,2.23-.15,6.63.16,24.81.16,28.19,0,2.39-1.23,3-3.31,3-1.78,0-2.24-1.39-2.24-2.62v-2H687.54v3c0,1.7-1.08,2.54-3.39,2.54a1.89,1.89,0,0,1-2.08-2.15c.08-6.4.62-28-.23-36.21a1,1,0,0,1,1.08-1,18.34,18.34,0,0,1,6.7,2.93h6.86Zm27.11,51c.23-6,.46-13.86.46-17,0-2.69.15-19.56-.85-25.72-.15-.7.31-1.08,1-1.08,4.55,0,9.17.38,9.17,2.31,0,1.31-1.62,2.23-4,2.7-.16,4-.16,18.48-.16,20.87,0,4.31.31,21.88.31,24.42,0,1.77-1.31,2.54-3.77,2.54a2.07,2.07,0,0,1-2.32-2.16c0-.69,0-2.08.08-3.85H674.68v3.85c0,1.7-1.16,2.47-3.55,2.47-1.46,0-2.31-.7-2.31-2.16,0-2.77.62-19.56.62-24,0-2.78.15-19.88-.85-26-.15-.7.31-1.08,1-1.08,4.39,0,8.94.38,8.94,2.31,0,1.31-1.54,2.16-3.93,2.62-.15,4-.15,18.64-.15,21.1,0,2.78.07,11.4.15,17.72Zm-35.9-37.82c-.07,2-.15,6.7-.23,10.17h9V142.55Zm-.15,24.73h8.94V155.8h-9v.69Zm13.86-24.73v10.17H711c.07-4.24.07-8,0-10.17Zm9.48,24.73L711,155.8H701.4v11.48Z"/><path class="cls-2" d="M796.46,153c2-2.93,4.54-6.4,6.16-6.4,2.15,0,8.55,5.55,8.55,7.63,0,1.15-1.47,1.85-5.39,1.85H743.92c-1,0-1.69-.31-1.69-1.54s.69-1.54,1.69-1.54Z"/><path class="cls-2" d="M851.91,181c-.15,1.23-2.38,1.23-4.39,1-7.24,5.16-13.94,7.55-25,7.93-1.69-.08-2.16-1.62-.15-2.31,10.24-2.39,15.86-3.85,22.26-10.17a1.19,1.19,0,0,1,1.61-.23C848.91,178.14,851.91,179.6,851.91,181Zm-23.57-30.2c0,1.62-1.15,2.39-3.38,2.39a1.87,1.87,0,0,1-2.08-2.08c.07-5.62.53-22.11-.24-29.5a.92.92,0,0,1,1.08-1,17.23,17.23,0,0,1,6.32,2.69h16.17c1.31-1.84,2.86-3.85,3.78-3.85,1.31,0,6,3.85,6,5.47,0,1-1.16,1.46-3.62,1.46H842.21a2.39,2.39,0,0,1-1.54,1.08v2.85h6.24c.85-1.23,1.92-2.38,2.54-2.38,1.23,0,5,2.85,5,4.31,0,.77-.77,1.31-1.7,1.77,0,1.54-.07,4.24-.07,5.24,0,2.39-1,2.93-2.93,2.93a1.75,1.75,0,0,1-1.85-1.24h-5.62c-.16.62-.7,1-1.62,1.31v3.16h7.7c1.16-1.69,2.54-3.39,3.39-3.39,1.16,0,5.55,3.62,5.55,5.09.07,1-.93,1.38-3.32,1.38H828.34Zm19.34-12.94c.08-1.38.08-3,.15-4.47H828.27v4.47Zm-11.86,7.55v-4.47h-7.55l.07,4.47Zm0-15.1v-3.93h-7.4c-.08.85-.08,2.32-.08,3.93ZM839,177.37c0,1.69-1.23,2.46-3.46,2.46a1.89,1.89,0,0,1-2.08-2.16c0-5.31.46-20.64-.31-27.88a.92.92,0,0,1,1.08-1,19.89,19.89,0,0,1,6.62,2.77h28.43c1-1.38,2.31-2.77,3.08-2.77,1.38,0,5.7,3.16,5.7,4.78,0,.84-1.08,1.46-2.24,2-.15,5.31.08,18.25.08,21,0,2.38-1.23,3-3.31,3-1.77,0-2.31-1.39-2.31-2.62v-.61H839Zm.47-22.73-.39.08c-.08.85-.08,2.39-.15,4h31.5v-4.09Zm-.54,11.17h31.42l.08-4H838.9v4Zm31.35,7.47.07-4.39H838.9l.07,4.39Zm7.24-42.74c1.31-1.85,2.92-3.86,3.85-3.86,1.31,0,5.93,3.86,6,5.47,0,1-1.16,1.47-3.62,1.47H863.08a32.24,32.24,0,0,1-5.93,5.77c-1.85,1.31-3.23-.07-2.08-1.77a41.27,41.27,0,0,0,8.78-16.56,1.11,1.11,0,0,1,1.54-.92c2.55.69,6.32,2.85,6.32,4.23-.08,1-1.15,1.47-3.47,1.24-.77,1.38-1.69,3.08-2.92,4.93Zm7.78,48.37c.15,4.7,1.31,4.23,1.31,6,0,2-3.62,3.92-15.64,3.92-12.25,0-13.4-.23-13.4-4.46,0-1.39-.16-5.24-.16-5.93-.07-1.08.23-1.39,1.31-1.39,1.31,0,6.63.61,6.63,2.23,0,.77-.85,1.31-2.62,1.54a11.56,11.56,0,0,0-.08,2.39c.08,1,.39,1.16,8.32,1.16,8.7,0,9.09-.85,10.09-1.85a9.61,9.61,0,0,0,1.77-3.93C883.34,176.83,885.27,177.06,885.27,178.91Zm-25.27-34c-1,0-1.69-.31-1.69-1.54s.69-1.54,1.69-1.54h16c1.31-1.85,2.85-3.85,3.77-3.85,1.31,0,6,3.85,6,5.46.08,1-1.16,1.47-3.54,1.47Z"/><path class="cls-2" d="M661.16,344.43l22-22.63C671,321.8,661.16,331.94,661.16,344.43Z"/><path class="cls-2" d="M786.51,344.43l22-22.63C796.35,321.8,786.51,331.94,786.51,344.43Z"/><path class="cls-2" d="M857.58,317.83h.21l-29.7-60.31a51.81,51.81,0,0,0-45.83-29.28H709.19a51.81,51.81,0,0,0-45.83,29.28l-29.06,59a58.42,58.42,0,0,0-6.88,29c.69,31,25.62,56.05,55.79,56,21.73,0,40.53-12.9,49.68-31.61V370c3.72-6.75,7.26-9,12.73-9s9,2.28,12.73,9v-.1c9.16,18.75,28,31.62,49.78,31.62,30.76,0,55.7-25.68,55.7-57.35A58.41,58.41,0,0,0,857.58,317.83Zm-174.43,61.1c-18.51,0-33.51-15.45-33.51-34.5s15-34.49,33.51-34.49,33.51,15.44,33.51,34.49S701.65,378.93,683.15,378.93Zm62.67-29.12a8.38,8.38,0,1,1,8.14-8.38A8.27,8.27,0,0,1,745.82,349.81Zm62.67,29.12c-18.5,0-33.51-15.45-33.51-34.5s15-34.49,33.51-34.49S842,325.38,842,344.43,827,378.93,808.49,378.93Z"/><rect class="cls-3" x="3.65" width="83.58" height="83.58"/><rect class="cls-3" x="87.24" y="83.58" width="83.58" height="83.58"/><rect class="cls-3" x="170.82" width="83.58" height="83.58"/><rect class="cls-3" x="170.82" y="167.17" width="83.58" height="83.58"/><rect class="cls-3" x="87.24" y="250.75" width="83.58" height="83.58"/><rect class="cls-3" x="3.65" y="334.33" width="83.58" height="83.58"/><rect class="cls-3" x="170.82" y="334.33" width="83.58" height="83.58"/><rect class="cls-3" x="254.4" y="83.58" width="83.58" height="83.58"/><rect class="cls-3" x="87.24" y="417.92" width="83.58" height="83.58"/><rect class="cls-3" x="254.4" y="250.75" width="83.58" height="83.58"/></g></g></svg>