<svg xmlns="http://www.w3.org/2000/svg" viewBox="0 0 1049.5 501.5"><defs><style>.cls-1{fill:#ce371a;}.cls-2{fill:#fff;}.cls-3{fill:#efede1;}</style></defs><title>taimetable</title><g id="レイヤー_2" data-name="レイヤー 2"><g id="レイヤー_2-2" data-name="レイヤー 2"><rect class="cls-1" y="0.5" width="1049.5" height="500"/><path class="cls-2" d="M163.46,113.12a98.5,98.5,0,0,1-7.27,16.62c3.55,2.25,6.23,4.76,6.23,7.53,0,1.64-.86,3.28-2.68,3.28-2,0-3.64-2.07-7.19-4.93a60.7,60.7,0,0,1-26.65,21c-3.12,1.3-4.59-1.64-1.47-3.46,11.25-6.58,17.74-12.55,23.36-20.94-3.37-2-7.87-4.24-12.54-6.41-2.43-1.12-1.56-3.81,1.47-3.2A88,88,0,0,1,150.91,127c2.34-4.59,5.37-11.69,6.14-17.57.18-1.39-.25-1.56-1.38-1.39-5.8.87-11,2.77-13.67,2.77-1.22,0-2.51-.78-4-2-2.51,11.17-9.6,24.93-16.87,31.94-2.17,2.08-4.59.26-3.12-2.08,6.67-10.64,12.46-22.07,13.16-31.5.34-4.59,0-5.19-2.86-8.05-1.64-1.65-2.25-2.25-2.25-3s1-1.47,2.68-1.47c3.29,0,10.22,3.46,10.22,6.75,0,1-.09,2.08-.18,3.11a19.19,19.19,0,0,0,3.81.52,78,78,0,0,0,11.17-1.29c2.25-.44,3.54-1.82,4.93-1.82,2.6,0,7.53,4.07,7.53,5.71C166.23,109.48,164.24,110.61,163.46,113.12Z"/><path class="cls-2" d="M246,107.58a142.65,142.65,0,0,1-10.65,12.2,12.28,12.28,0,0,1,1.13.78c1.47,1.3,1.9,2.43,2.16,5a177.72,177.72,0,0,1-.08,26.23c-.26,2.68-2,4-3.9,4-2.6,0-4-3.21-4-6.15,0-1.81.69-3.37,1.13-5.8a90.22,90.22,0,0,0,.6-17.74,6,6,0,0,0-1-2.6c-8.92,8.4-19.65,16.1-29,20.34-3.38,1.56-4.94-1.73-2.17-3.46,16.1-10,33-25,38.52-35.22,1.55-2.86,1.38-4.07-1.48-7.27-1.55-1.73-1-2.69,1.13-2.69,4.5,0,10.21,4.25,10.21,7.19C248.7,104.12,247.23,106,246,107.58Z"/><path class="cls-2" d="M345.54,141.77c0,2.42-.86,4.24-3.37,4.24s-4.42-4.85-6.32-8.83c-8.74,2-31.07,7.36-33.75,7.88-3.21.69-6.06,2.33-8.23,2.33-2.77,0-6.4-4.41-6.4-7.53,0-1.82,1.3-2.33,2.86-2a24.49,24.49,0,0,0,5.36,1,27.55,27.55,0,0,0,3.72-.35c5.8-10.38,11.08-23.28,12.29-29.85.26-1.48.09-2.25-1.64-4.16-1.21-1.38-1.91-2-1.91-2.68,0-1,1.13-1.73,3.55-1.73,3.72,0,9.7,3.55,9.7,6.23,0,1.47-1.74,2.77-3.38,6.14-3,6.15-7.53,15.67-12.72,25.36,8.74-1.21,21-3.2,28.13-4.67a47.25,47.25,0,0,0-5.72-7c-2.33-2.34-.95-4.33,2-3C337.15,126.45,345.54,134.58,345.54,141.77Z"/><path class="cls-2" d="M436.67,118.31c0,1.47-1.21,2.25-3.29,2.25-1.9,0-4.33-.08-7.1-.08a192.48,192.48,0,0,0-20.07,1.73c2.94,1.55,4.06,3.29,4.06,4.67s-.86,3-1.55,4.67c-3.12,7.45-9.61,19.13-23.8,25.88-2.86,1.39-4.85-1.38-2.08-3.37,10.21-7.19,18.87-19,19.64-26.4.18-1.73-.08-2.6-2.07-4.5-8.83,1.64-18.61,4.24-22.07,4.24-3,0-6.84-4.24-7.36-8.05-.17-1.3.87-2.16,2.25-1.47,2.25,1.12,4.33,2.77,7.18,2.77,4.94,0,26.14-3.46,33.15-4.67,8-1.39,12.72-2.43,14.89-2.43C432.17,113.55,436.67,115.46,436.67,118.31Zm-51.5-16.44c-.77-1.56.09-2.68,1.65-2.08,3.11,1.3,5,2,7.62,2,9.95,0,15.92-4.24,18.78-4.24,2.33,0,6,1.13,6,3.29,0,1.47-1.64,2.77-4.32,3.55-2.95.86-13.07,3.29-20.17,3.29A11,11,0,0,1,385.17,101.87Z"/><path class="cls-2" d="M468.17,124.89c4.58,0,23.88-2,29.86-2.77,7.35-1,9.34-1.82,12.8-1.82s9,2,9,5.72c0,1.29-.87,2.42-3.55,2.42-3.2,0-4.85-.43-11.34-.43-6.75,0-25,2.16-29.08,2.85-3.89.61-6.75,1.47-9.61,1.47-3.72,0-8-5.36-8-9.43,0-1.47,1-2.08,2.42-1.21C462.8,123,465.14,124.89,468.17,124.89Z"/><rect class="cls-2" x="214.16" y="297.72" width="20.93" height="20.93"/><rect class="cls-2" x="305.66" y="297.72" width="20.93" height="20.93"/><rect class="cls-2" x="275.3" y="297.72" width="20.93" height="20.93"/><rect class="cls-2" x="214.16" y="330.13" width="20.93" height="20.93"/><rect class="cls-2" x="275.3" y="330.13" width="20.93" height="20.93"/><rect class="cls-2" x="244.53" y="330.13" width="20.93" height="20.93"/><rect class="cls-2" x="305.66" y="362.96" width="20.93" height="20.93"/><rect class="cls-2" x="275.3" y="362.96" width="20.93" height="20.93"/><rect class="cls-2" x="244.53" y="362.96" width="20.93" height="20.93"/><path class="cls-2" d="M345.53,228.78H328.64v16.4a11.12,11.12,0,0,1-11.11,11.1H295.44a11.12,11.12,0,0,1-11.11-11.1v-16.4H256.42V245a11.26,11.26,0,0,1-11.23,11.25H223.35A11.26,11.26,0,0,1,212.11,245V228.78H195.19a20,20,0,0,0-20,19.85V396.46a20,20,0,0,0,20,19.84H345.53a20,20,0,0,0,20-19.84V248.63A20,20,0,0,0,345.53,228.78Zm5.68,167.29a5.56,5.56,0,0,1-5.87,5.87H195.41a5.87,5.87,0,0,1-5.87-5.87V279.25H351.21V396.07Z"/><path class="cls-2" d="M223.28,248.48h22a3.38,3.38,0,0,0,3.38-3.36V214.67a8.49,8.49,0,0,0-8.51-8.45H228.41a8.48,8.48,0,0,0-8.5,8.45v30.45A3.37,3.37,0,0,0,223.28,248.48Z"/><path class="cls-2" d="M295.37,248.48H317.6a3.25,3.25,0,0,0,3.25-3.23V214.54a8.36,8.36,0,0,0-8.38-8.32h-12a8.36,8.36,0,0,0-8.38,8.32v30.71A3.25,3.25,0,0,0,295.37,248.48Z"/><path class="cls-2" d="M470.2,202.29c4.15,0,20.34-2.08,27.69-3.12,4-.51,4.5-1.64,6.41-1.64,3.8,0,9.26,4.67,9.26,7.1,0,2.59-2.69,2.59-4.5,6.58-6,13.06-17.23,28.82-41.89,36.69-2.86.87-4.16-2.25-1.3-3.55,19.91-9.17,33.41-24.23,37.65-38.51.69-2.34.34-2.42-2-2.25a223.58,223.58,0,0,0-23,4.15c-4.16,1-6.41,2.17-9,2.17-2.94,0-7.52-3.9-8.56-8.23-.52-2.16.78-2.94,2.68-1.9C466.13,201.17,467.69,202.29,470.2,202.29ZM521.52,197a2.88,2.88,0,0,1-2.94,3c-2,0-2.6-1.47-4.59-3.81A72.59,72.59,0,0,0,508.8,191a1.31,1.31,0,0,1,1-2.34C515.46,189.14,521.52,192.94,521.52,197Zm7.36-8.13a2.78,2.78,0,0,1-2.86,3c-1.3,0-2.16-.7-3.81-2.52a43.94,43.94,0,0,0-6.4-5.36c-1.39-1-.78-2.51.86-2.51C522.21,181.61,528.88,184.46,528.88,188.88Z"/><path class="cls-2" d="M469.42,293.85c4.24,0,9.86,3.2,9.86,7.1,0,12.81-13.67,26.31-28.21,30-2.34.61-3.55-1.82-1.21-3,11.51-6,22.24-15.84,22-25.18-.09-2.17-.95-2.6-3.29-4.07-1.73-1-3.72-1.73-3.72-2.86S467.51,293.85,469.42,293.85Zm20,.09c-.35-3.38-1-4.68-3.29-5.89-3-1.55-4.07-2.16-4.07-2.94,0-1.38,2.77-2.42,4.33-2.42,5.28,0,10,3.37,10,5.71,0,1.73-.52,4.15-.6,6.4-.09,3-1.56,15-2.17,18.78-.43,2.69.52,3.38,2.68,2.6,9-3.11,20.43-10.3,26.4-15.06,2.68-2.16,5,.17,2.51,2.94-5.36,5.8-15.23,13-26.57,18.27-2.34,1-3.63,3.28-6.32,3.28-2.42,0-5.36-4.5-5.36-7,0-1.9.86-3.46,1.47-6.66C489.15,308.39,489.93,298.61,489.41,293.94Z"/><rect class="cls-3" x="964.42" width="83.58" height="83.58" transform="translate(2012.42 83.58) rotate(-180)"/><rect class="cls-3" x="880.83" y="83.58" width="83.58" height="83.58" transform="translate(1845.25 250.75) rotate(-180)"/><rect class="cls-3" x="797.25" width="83.58" height="83.58" transform="translate(1678.08 83.58) rotate(-180)"/><rect class="cls-3" x="797.25" y="167.17" width="83.58" height="83.58" transform="translate(1678.08 417.92) rotate(-180)"/><rect class="cls-3" x="880.83" y="250.75" width="83.58" height="83.58" transform="translate(1845.25 585.08) rotate(-180)"/><rect class="cls-3" x="964.42" y="334.33" width="83.58" height="83.58" transform="translate(2012.42 752.25) rotate(-180)"/><rect class="cls-3" x="797.25" y="334.33" width="83.58" height="83.58" transform="translate(1678.08 752.25) rotate(-180)"/><rect class="cls-3" x="713.67" y="83.58" width="83.58" height="83.58" transform="translate(1510.92 250.75) rotate(-180)"/><rect class="cls-3" x="880.83" y="417.92" width="83.58" height="83.58" transform="translate(1845.25 919.42) rotate(-180)"/><rect class="cls-3" x="713.67" y="250.75" width="83.58" height="83.58" transform="translate(1510.92 585.08) rotate(-180)"/></g></g></svg>