<svg xmlns="http://www.w3.org/2000/svg" width="489.79" height="418.75" viewBox="0 0 489.79 418.75"><defs><style>.cls-1,.cls-21,.cls-30,.cls-4{fill:#a0a0ff;}.cls-1,.cls-10,.cls-11,.cls-12,.cls-13,.cls-14,.cls-15,.cls-16,.cls-17,.cls-20,.cls-21,.cls-30,.cls-6,.cls-7,.cls-9{stroke:#231815;}.cls-1{opacity:0.2;}.cls-2,.cls-6,.cls-7{fill:#7d7d7d;}.cls-3{fill:#e4006e;}.cls-17,.cls-18,.cls-31,.cls-32,.cls-33,.cls-5{fill:#fff;}.cls-10,.cls-12,.cls-17,.cls-6,.cls-9{stroke-width:2px;}.cls-13,.cls-7{stroke-width:0.8px;}.cls-8{fill:#888;opacity:0.7;}.cls-10,.cls-11,.cls-12,.cls-13,.cls-14,.cls-15,.cls-16,.cls-20,.cls-22,.cls-28,.cls-29,.cls-9{fill:none;}.cls-28,.cls-29,.cls-30,.cls-9{stroke-miterlimit:10;}.cls-10,.cls-11,.cls-15,.cls-20{stroke-linecap:square;}.cls-11{stroke-width:1.6px;}.cls-14,.cls-15{stroke-width:0.2px;}.cls-16{stroke-linejoin:bevel;}.cls-18{font-size:13.07px;letter-spacing:-0.02em;}.cls-18,.cls-32,.cls-33{font-family:AxisStd-Medium-90ms-RKSJ-H, AXIS Std;}.cls-19{font-size:23.86px;}.cls-19,.cls-27{fill:#f7f7f7;}.cls-19,.cls-23,.cls-26,.cls-27,.cls-31{font-family:AxisStd-Regular-90ms-RKSJ-H, AXIS Std;}.cls-22{stroke:#fff;stroke-width:2.5px;}.cls-23{font-size:10px;}.cls-24{letter-spacing:0.25em;}.cls-25{fill:#ffe727;}.cls-26,.cls-31{font-size:11px;}.cls-27{font-size:14px;}.cls-28,.cls-29{stroke:#898989;stroke-width:0.5px;}.cls-29{stroke-dasharray:3.03 2.02;}.cls-32,.cls-33{font-size:11.6px;}.cls-32{letter-spacing:-0.05em;}.cls-33{letter-spacing:-0.01em;}</style></defs><title>B1</title><g id="レイヤー_2" data-name="レイヤー 2"><g id="レイヤー_1-2" data-name="レイヤー 1"><path class="cls-1" d="M391.15,389.25H247.76q0-25-.07-49.93l-16.33,0V237.88l50.14.45c0-10.11,0-18.39,0-24.16,0-17.22-.1-15.19,0-23.45.2-16.88,0-18.77,0-18.77a567.45,567.45,0,0,0-143.8-25.34l-.21,26.72s-38.38-1.68-66.71-4h0q-.57-34.32-1.15-68.64c14.34-.39,33.93-.49,57.14.7,28.37,1.46,73.74,4,129.35,18.73a550.53,550.53,0,0,1,84,29.74l-15,35.63,20.3,9.73,16.36-36.66,22.78,13.88q-12.31,25.17-24.64,50.33A65.45,65.45,0,0,0,340,212v24.65l50.63.93.24,68.83Q391,347.85,391.15,389.25Z"/><rect class="cls-2" x="246.46" y="300.38" width="35.87" height="70.23"/><path class="cls-3" d="M344,195.2l-20.44-9.94,17.12-35.9,19.89,9.39Q352.29,177,344,195.2Z"/><rect class="cls-4" x="0.56" y="260.57" width="209.25" height="129.12"/><rect class="cls-2" x="209.68" y="260.82" width="20.58" height="79.12"/><rect class="cls-5" x="332.14" y="164.86" width="17.87" height="17.9" transform="translate(-0.35 0.69) rotate(-0.12)"/><path class="cls-3" d="M349.49,165.34l0,16.91-16.87,0,0-16.9,16.87,0m1-1-18.86,0,0,18.9,18.86,0,0-18.91Z"/><path class="cls-3" d="M341.07,168.2a1.19,1.19,0,1,0-1.18-1.18,1.18,1.18,0,0,0,1.18,1.18"/><path class="cls-3" d="M342.7,170.68l.92,3.43h.89l-.72-4.05a1.65,1.65,0,0,0-1.23-1.32,6.15,6.15,0,0,0-1.49-.19,6,6,0,0,0-1.48.19,1.64,1.64,0,0,0-1.23,1.32l-.71,4.05h.88l.92-3.43.37,1.38a7.87,7.87,0,0,0-1.34,4.42H340l.47,5.31h1.19l.46-5.32h1.54a7.87,7.87,0,0,0-1.35-4.41Z"/><rect class="cls-6" x="239.74" y="275.22" width="44.69" height="24.72"/><rect class="cls-2" x="216.17" y="325" width="14.08" height="14.94"/><path class="cls-7" d="M229.73,340.25q0-15.17,0-30.33h5.92v30.33Z"/><path class="cls-8" d="M484.08,183.29c-1.63-2.91-4.94-8.1-14.43-16a135,135,0,0,0-20.47-14l-34.46-20c-32.72-15.8-60.94-29.34-83.28-40-55.85-26.71-4.7-2-129.32-59,0,0-44.7-20.46-84-28.57-15-3.09-29.67-4.47-29.67-4.47L63.84,0h0c-1,10.24-3.08,30.73-3.08,30.73l18.86.07c4.51.26,10.93.76,18.57,1.85a224.9,224.9,0,0,1,43.25,10.63C186.5,59,242.39,84.69,242.39,84.69c86.57,39.76,99.93,44.6,138.67,65.36,17.34,9.29,31.45,17.32,40.88,22.78l27.48,19.94,5.26,9.67,1.7,12.94L449.81,290l-10.5,128.74,32.4-2.36q4.41-51.9,8.83-103.81l8.25-88.35c.33-3.27.73-8,.88-13.7s.23-8.77-.29-12.22A45.77,45.77,0,0,0,484.08,183.29Z"/><rect class="cls-5" x="444.72" y="326.66" width="18.85" height="4.87" transform="translate(88.3 754.19) rotate(-85.21)"/><rect class="cls-5" x="453.89" y="327.39" width="18.85" height="4.87" transform="translate(95.98 763.99) rotate(-85.21)"/><rect class="cls-5" x="463.28" y="327.9" width="18.85" height="4.86" transform="translate(104.05 773.81) rotate(-85.21)"/><path class="cls-9" d="M282.48,389l108.67.26"/><path class="cls-9" d="M390.62,237.62l-51.54.18L339,213v-.64c13.38,5.67,20.08,10.74,20.08,10.74l25.12-51.15C294.28,119.29,191.13,99.61,69.92,100l-.23,70.16,67.76,3.14.21-26.72c13.38.66,27.28,1.79,41.64,3.51a607.08,607.08,0,0,1,144.27,35.72"/><line class="cls-10" x1="1" y1="252.23" x2="76.76" y2="252.23"/><line class="cls-10" x1="136.18" y1="238.88" x2="70.56" y2="238.88"/><line class="cls-11" x1="210.14" y1="340.15" x2="215.87" y2="340.15"/><line class="cls-12" x1="323.57" y1="185.84" x2="340.11" y2="149.89"/><path class="cls-12" d="M344,195.8l12-26.55q2.34-5,4.69-9.95"/><polyline class="cls-13" points="357.58 166.53 368.82 172.22 355.32 201.13"/><line class="cls-12" x1="344.32" y1="195.18" x2="323.57" y2="185.84"/><path class="cls-12" d="M239.76,259.23l60.26-.1"/><line class="cls-14" x1="356.31" y1="168.95" x2="367.79" y2="174.8"/><line class="cls-14" x1="355.29" y1="171.47" x2="366.77" y2="177.32"/><line class="cls-14" x1="353.92" y1="173.81" x2="365.4" y2="179.66"/><line class="cls-14" x1="353.05" y1="176.4" x2="364.53" y2="182.25"/><line class="cls-14" x1="352.1" y1="178.95" x2="363.58" y2="184.81"/><line class="cls-14" x1="350.59" y1="181.22" x2="362.07" y2="187.07"/><line class="cls-14" x1="349.58" y1="183.74" x2="361.06" y2="189.59"/><line class="cls-14" x1="348.2" y1="186.08" x2="359.68" y2="191.93"/><line class="cls-14" x1="347.33" y1="188.67" x2="358.81" y2="194.52"/><line class="cls-14" x1="346.38" y1="191.23" x2="357.87" y2="197.08"/><line class="cls-14" x1="368.12" y1="173.45" x2="379.6" y2="179.3"/><line class="cls-14" x1="367.11" y1="175.97" x2="378.59" y2="181.82"/><line class="cls-14" x1="365.74" y1="178.31" x2="377.22" y2="184.16"/><line class="cls-14" x1="364.86" y1="180.9" x2="376.34" y2="186.75"/><line class="cls-14" x1="363.91" y1="183.46" x2="375.4" y2="189.31"/><line class="cls-14" x1="362.4" y1="185.72" x2="373.89" y2="191.57"/><line class="cls-14" x1="361.39" y1="188.24" x2="372.87" y2="194.09"/><line class="cls-14" x1="360.02" y1="190.58" x2="371.5" y2="196.43"/><line class="cls-14" x1="359.14" y1="193.17" x2="370.62" y2="199.02"/><line class="cls-14" x1="358.2" y1="195.72" x2="369.68" y2="201.57"/><line class="cls-15" x1="74.14" y1="251.99" x2="74.14" y2="239.1"/><rect class="cls-5" x="228.6" y="242.05" width="1.35" height="15.51"/><line class="cls-16" x1="268.11" y1="275.09" x2="268.06" y2="259.9"/><line class="cls-16" x1="265.41" y1="274.62" x2="265.36" y2="259.43"/><line class="cls-16" x1="262.7" y1="274.79" x2="262.64" y2="259.6"/><line class="cls-16" x1="259.99" y1="274.73" x2="259.94" y2="259.53"/><line class="cls-16" x1="257.29" y1="274.61" x2="257.23" y2="259.42"/><line class="cls-16" x1="254.58" y1="274.78" x2="254.53" y2="259.59"/><line class="cls-16" x1="251.88" y1="275.03" x2="251.82" y2="259.84"/><line class="cls-16" x1="249.17" y1="275.2" x2="249.12" y2="260.01"/><line class="cls-16" x1="246.47" y1="274.73" x2="246.41" y2="259.54"/><line class="cls-16" x1="243.76" y1="274.9" x2="243.71" y2="259.71"/><line class="cls-16" x1="281.03" y1="275.2" x2="280.97" y2="259.51"/><line class="cls-16" x1="278.33" y1="274.73" x2="278.27" y2="259.54"/><line class="cls-16" x1="275.61" y1="274.9" x2="275.56" y2="259.71"/><path class="cls-17" d="M84.85,195.24V170.65"/><line class="cls-10" x1="85.43" y1="194.32" x2="136.02" y2="194.32"/><text/><rect class="cls-4" x="374.99" y="183.12" width="32.32" height="31.05" rx="3.86"/><path class="cls-5" d="M398.32,188a1.17,1.17,0,1,0-1.16-1.16A1.17,1.17,0,0,0,398.32,188Z"/><path class="cls-5" d="M400.63,193.9l-2.24-1.29.21-1.06a6.36,6.36,0,0,0,.12-1.24,6.67,6.67,0,0,0-.27-1.85.17.17,0,0,0-.17-.12h0a4.65,4.65,0,0,0-4.5,4.65c0,.12,0,.25,0,.37l1,.17v-.07a3.46,3.46,0,0,1,1.19-2.61l-.56,10.76h1.25l1.32-6.85,1.23.58-.84,3.14.89.89,1.85-4a1.14,1.14,0,0,0,.11-.49A1.18,1.18,0,0,0,400.63,193.9Z"/><polygon class="cls-5" points="403.27 200.75 398.69 200.75 398.69 202.61 394.64 202.61 394.64 204.47 390.59 204.47 390.59 206.33 386.54 206.33 386.54 208.18 382.49 208.18 382.49 210.04 379.04 210.04 379.04 212.27 384.71 212.27 384.71 210.42 388.77 210.42 388.77 208.56 392.82 208.56 392.82 206.7 396.87 206.7 396.87 204.84 400.92 204.84 400.92 202.99 403.27 202.99 403.27 200.75"/><text class="cls-18" transform="translate(377.37 198.11) scale(1 1.05)">南</text><text class="cls-19" transform="translate(68.82 336.42)">小講堂</text><line class="cls-20" x1="108.21" y1="194.76" x2="108.21" y2="238.88"/><line class="cls-20" x1="101.62" y1="194.76" x2="101.62" y2="238.88"/><line class="cls-20" x1="88.44" y1="194.76" x2="88.44" y2="238.88"/><line class="cls-20" x1="98.32" y1="194.76" x2="98.32" y2="238.88"/><line class="cls-20" x1="95.03" y1="194.76" x2="95.03" y2="238.88"/><line class="cls-20" x1="91.73" y1="194.76" x2="91.73" y2="238.88"/><line class="cls-20" x1="104.91" y1="194.76" x2="104.91" y2="238.88"/><line class="cls-20" x1="136.18" y1="194.76" x2="136.18" y2="239.32"/><line class="cls-20" x1="125.55" y1="194.76" x2="125.55" y2="239.32"/><line class="cls-20" x1="118.47" y1="194.76" x2="118.47" y2="239.32"/><line class="cls-20" x1="122.01" y1="194.76" x2="122.01" y2="239.32"/><line class="cls-20" x1="132.64" y1="194.76" x2="132.64" y2="239.32"/><line class="cls-20" x1="129.09" y1="194.76" x2="129.09" y2="239.32"/><line class="cls-9" x1="209.68" y1="260.82" x2="209.68" y2="339.9"/><line class="cls-9" x1="230.3" y1="260.37" x2="230.3" y2="309.89"/><line class="cls-16" x1="294.58" y1="274.88" x2="294.53" y2="259.69"/><line class="cls-16" x1="291.88" y1="275.05" x2="291.82" y2="259.86"/><line class="cls-16" x1="289.17" y1="275.3" x2="289.12" y2="260.11"/><line class="cls-16" x1="286.5" y1="274.91" x2="286.44" y2="259.72"/><line class="cls-16" x1="283.79" y1="274.43" x2="283.74" y2="259.25"/><line class="cls-16" x1="297.32" y1="274.91" x2="297.26" y2="259.72"/><path class="cls-12" d="M284.43,275.35l15.59-.1"/><path class="cls-21" d="M380.86,389.58H298.48V320.22h36.39c6,2.59,20.55,10,32.14,28.13A93.94,93.94,0,0,1,380.86,389.58Z"/><line class="cls-22" x1="307.08" y1="320.22" x2="320.91" y2="320.22"/><line class="cls-10" x1="136.18" y1="238.88" x2="136.18" y2="259.97"/><line class="cls-22" x1="174.32" y1="260.37" x2="197.79" y2="260.37"/><rect class="cls-4" x="331.9" y="250.21" width="46.79" height="16.63" transform="translate(26.19 -32.61) rotate(5.46)"/><rect class="cls-4" x="383.33" y="368.97" width="33.5" height="14.46" transform="translate(776.28 -23.88) rotate(90)"/><text class="cls-23" transform="translate(381.48 356.54)"><tspan class="cls-24">B</tspan><tspan x="9.32" y="0">会場受付</tspan></text><text class="cls-23" transform="translate(343.98 277.71)">ラ・スール・リマーレ</text><line class="cls-9" x1="281.46" y1="171.95" x2="281.46" y2="218.19"/><path class="cls-25" d="M278.2,194.89,140.71,175.12q.09-12.75.19-25.51a543.74,543.74,0,0,1,137.3,24.2Z"/><text class="cls-26" transform="translate(151.22 167.8) rotate(8.38)">模擬店商品引き渡し場所</text><text class="cls-27" transform="translate(303.48 354.9)">中学<tspan x="0" y="16.8" xml:space="preserve">  視聴覚室</tspan></text><path class="cls-5" d="M391.15,389.25q-.27-75.83-.53-151.63"/><path class="cls-28" d="M391.15,389.25v-1.5"/><path class="cls-29" d="M391.14,385.72l-.51-145.59"/><path class="cls-28" d="M390.62,239.12v-1.5"/><rect class="cls-4" x="272.18" y="193.26" width="36.88" height="13" transform="translate(490.37 -90.86) rotate(90)"/><text class="cls-23" transform="translate(299.17 205.51)">東洋食品</text><path class="cls-9" d="M281.5,238.33l-51.22-.15.08,22.19L1,261.05q.12,64.65.23,129.29l208.58-.65-.06-49.55H246q0,15.71-.05,31.43l36.42.08.15-31.5H246v-40.2"/><rect class="cls-30" x="233.7" y="371.5" width="49.77" height="18.2"/><text class="cls-31" transform="translate(242.28 384.85)">保健室</text><line class="cls-9" x1="282.48" y1="340.15" x2="282.48" y2="300.38"/><line class="cls-20" x1="85.14" y1="194.76" x2="85.14" y2="238.88"/><rect class="cls-4" x="243.34" y="272.15" width="34.42" height="33.07" rx="4.11"/><path class="cls-5" d="M268.19,277.33a1.24,1.24,0,1,0-1.24-1.24A1.24,1.24,0,0,0,268.19,277.33Z"/><path class="cls-5" d="M270.64,283.63l-2.37-1.37.22-1.14a7,7,0,0,0,.12-1.31,6.75,6.75,0,0,0-.29-2,.17.17,0,0,0-.17-.13h0a5,5,0,0,0-4.79,5c0,.14,0,.27,0,.39l1,.19v-.08a3.63,3.63,0,0,1,1.27-2.77l-.61,11.45h1.33l1.42-7.29,1.31.61-.9,3.35.95.95,2-4.23a1.31,1.31,0,0,0,.11-.52A1.26,1.26,0,0,0,270.64,283.63Z"/><polygon class="cls-5" points="273.46 290.93 268.58 290.93 268.58 292.91 264.27 292.91 264.27 294.89 259.95 294.89 259.95 296.87 255.64 296.87 255.64 298.85 251.33 298.85 251.33 300.82 247.65 300.82 247.65 303.2 253.7 303.2 253.7 301.22 258.01 301.22 258.01 299.24 262.33 299.24 262.33 297.26 266.64 297.26 266.64 295.29 270.96 295.29 270.96 293.31 273.46 293.31 273.46 290.93"/><text class="cls-32" transform="translate(247.18 283.28) scale(1 0.85)">中</text><text class="cls-33" transform="translate(247.16 293.53) scale(1 0.85)">央</text></g></g></svg>